<svg width="571" height="187" viewBox="0 0 571 187" fill="none" xmlns="http://www.w3.org/2000/svg">
<path d="M98.005 76.1834C98.3987 76.2485 98.7924 76.3137 99.186 76.3789C104.697 77.2915 109.269 78.2031 112.901 79.1138C116.78 80.113 120.009 80.945 122.587 81.6098C124.363 82.0941 125.922 82.4475 127.265 82.6699C127.891 82.7734 128.473 82.8461 129.014 82.888C130.723 83.0521 132.433 82.7879 134.141 82.0953C134.272 82.0219 134.431 82.0005 134.616 82.0312C134.824 82.0657 135.056 82.1754 135.311 82.3604C135.589 82.5491 135.716 82.713 135.693 82.852C135.678 82.9446 135.605 83.0276 135.474 83.1011C131.945 85.0149 129.499 85.9186 128.137 85.8119C126.798 85.7092 125.017 85.4737 122.794 85.1057C120.988 84.8066 118.641 84.2515 115.754 83.4403C112 84.6984 108.733 86.1798 105.953 87.8845C103.196 89.593 100.325 91.6991 97.3411 94.2027C95.6871 95.5705 93.7792 97.61 91.6173 100.321C89.4554 103.032 87.4167 105.574 85.5014 107.945C89.2457 105.448 92.7156 104.464 95.9113 104.993C99.7553 105.63 102.1 107.85 102.945 111.654C103.314 113.309 103.346 115.051 103.043 116.881C102.648 119.266 101.696 121.785 100.186 124.437C97.4785 129.152 93.8031 132.957 89.1602 135.852C84.5211 138.724 80.2795 139.842 76.4355 139.205C74.4903 138.883 73.1636 137.771 72.4555 135.869C72.0298 134.705 71.9377 133.393 72.1792 131.934C72.3288 131.031 72.6075 130.066 73.0155 129.039C74.07 126.406 76.1508 123.61 79.2578 120.651C82.3687 117.669 86.7707 114.936 92.4636 112.452L93.1121 112.631C93.3861 112.7 93.5155 112.781 93.5002 112.874C93.4887 112.943 93.4193 113.003 93.292 113.053C90.901 114.418 88.5891 115.808 86.3563 117.223C84.1236 118.637 82.2459 120.063 80.7232 121.5C78.468 123.625 76.8437 125.676 75.8502 127.652C74.9337 129.452 74.3681 131 74.1534 132.296C74.1304 132.435 74.1074 132.574 74.0844 132.713C73.9505 133.809 74.1754 134.822 74.759 135.751C75.3427 136.681 76.1324 137.228 77.1282 137.393C78.6102 137.638 80.3848 137.194 82.4519 136.061C84.1063 135.122 85.7585 133.837 87.4083 132.207C89.0581 130.577 90.5941 128.916 92.0162 127.224C93.3882 125.548 94.575 123.984 95.5768 122.532C96.5785 121.08 97.2624 120.039 97.6283 119.41C99.0918 116.75 100.01 114.297 100.381 112.05C100.404 111.911 100.427 111.772 100.45 111.634C100.768 109.283 99.8154 107.71 97.5919 106.913C97.0515 106.729 96.5034 106.59 95.9476 106.498C94.7666 106.303 93.5608 106.329 92.3301 106.577C90.405 106.996 88.2548 108.056 85.8796 109.756C82.7909 111.886 79.9651 114.368 77.402 117.203C75.4825 119.312 73.5243 121.296 71.5274 123.154C69.5575 124.993 67.3328 126.647 64.8531 128.116C62.5894 129.43 60.0303 130.588 57.1759 131.591C54.3214 132.593 51.0249 133.392 47.2863 133.986C44.5046 134.406 41.9135 134.536 39.5132 134.376C38.0506 134.301 36.7173 134.163 35.5131 133.964C34.7489 133.837 34.0484 133.686 33.4115 133.509C32.57 133.274 31.0492 132.832 28.849 132.182C26.6681 131.559 24.5254 130.562 22.4209 129.191C20.3164 127.819 18.6127 125.967 17.3098 123.634C16.2466 121.721 15.9432 119.387 16.3995 116.631C16.503 116.006 16.6451 115.363 16.8257 114.703C17.9212 110.673 20.1715 107.572 23.5765 105.4C26.9815 103.228 30.6846 101.914 34.6857 101.458C37.5447 101.146 40.3521 101.219 43.1078 101.675C43.3393 101.713 43.5709 101.752 43.8025 101.79C46.7744 102.377 49.2759 103.362 51.3071 104.746C53.3421 106.106 54.6984 107.829 55.3759 109.916C55.6857 110.919 55.7466 111.988 55.5587 113.122C55.3555 114.35 54.8668 115.649 54.0927 117.019C53.0257 118.865 51.5051 120.433 49.5308 121.724C47.5564 123.015 45.5334 123.882 43.4617 124.324C40.8692 124.894 38.3688 124.979 35.9604 124.581C35.0573 124.431 34.1773 124.214 33.3203 123.929C30.9232 123.176 29.4815 122.758 28.9952 122.678C28.8794 122.659 28.8196 122.661 28.8158 122.684L28.8448 122.724L28.537 121.781C28.618 121.723 29.9185 121.843 32.4386 122.142C34.9317 122.459 37.7447 122.354 40.8775 121.826C43.2734 121.438 45.4992 120.783 47.555 119.863C49.6378 118.923 51.2244 117.746 52.315 116.332C53.286 115.066 53.8636 113.877 54.0476 112.765C54.201 111.839 54.0862 110.951 53.7033 110.103C52.8678 108.252 51.396 106.723 49.2878 105.518C47.1835 104.289 44.7786 103.439 42.073 102.967C41.9804 102.951 41.8878 102.936 41.7952 102.921C39.2016 102.491 36.9307 102.484 34.9824 102.899C32.4594 103.481 30.0079 104.276 27.6281 105.286C25.2483 106.295 23.1796 107.725 21.4219 109.576C19.7259 111.341 18.5748 113.839 17.9685 117.069C17.9532 117.162 17.9379 117.254 17.9225 117.347C17.3397 120.867 18.3326 123.779 20.9011 126.084C23.5315 128.447 26.356 130.14 29.3746 131.163C31.0229 131.698 32.6923 132.105 34.3827 132.385C37.6247 132.922 40.9684 132.988 44.4139 132.583C48.523 132.05 52.2184 130.853 55.5003 128.994C58.8863 127.08 61.9652 124.866 64.737 122.351C67.532 119.839 69.5423 117.9 70.768 116.533C75.158 111.716 78.7506 108.052 81.5455 105.541C84.3443 103.007 88.5022 99.3771 94.0192 94.652C96.9569 92.1406 100.014 89.8395 103.192 87.7485C106.373 85.6344 109.719 83.9638 113.229 82.7368C108.284 81.2757 103.18 79.8476 97.9148 78.4524C96.7761 78.1449 95.6626 77.9011 94.5742 77.7209C90.6144 77.0652 86.9911 77.179 83.7044 78.0623C74.5461 80.4954 68.5741 83.6582 65.7883 87.5508C64.0814 89.9567 63.0785 92.0627 62.7794 93.8689C62.5915 95.0036 62.6852 96.0184 63.0604 96.9132C63.8033 98.7492 65.0083 99.8053 66.6756 100.081C67.7177 100.254 68.9389 100.135 70.3392 99.7244C73.9923 98.64 77.3205 96.7881 80.3237 94.1687C82.4904 92.291 84.1383 90.601 85.2673 89.0988C86.4233 87.5772 87.3012 85.7954 87.901 83.7535C88.001 83.4369 88.3212 83.2996 88.8615 83.3415C88.9078 83.3492 88.9541 83.3568 89.0004 83.3645C89.3477 83.422 89.5023 83.5665 89.4639 83.7981C89.4562 83.8444 89.4486 83.8907 89.4409 83.9371C86.9822 90.5961 83.7766 95.2281 79.8241 97.8332C75.8715 100.438 72.2263 101.69 68.8883 101.59C68.2014 101.571 67.557 101.512 66.9549 101.412C65.2181 101.125 63.7414 100.488 62.5249 99.5011C60.8873 98.1831 60.2296 96.5516 60.5517 94.6064C60.916 92.4065 62.0557 90.0495 63.9708 87.5354C65.9091 85.0251 68.5037 82.79 71.7546 80.8302C75.0055 78.8703 78.8416 77.3999 83.2627 76.4189C87.7109 75.4187 92.625 75.3401 98.005 76.1834Z" fill="#975C28"/>
<path d="M119.313 129.485C119.307 129.555 119.265 129.775 119.187 130.145C119.132 130.518 119.101 130.739 119.095 130.809C119.094 131.374 118.864 132.014 118.403 132.729C117.942 133.444 117.433 133.896 116.875 134.084C115.997 134.434 115.558 134.75 115.558 135.033C115.558 135.315 115.82 135.42 116.344 135.346C116.818 135.316 117.418 135.048 118.143 134.544C118.471 134.29 118.789 134.01 119.098 133.706C119.406 133.403 119.715 133.087 120.026 132.76C120.412 132.369 120.787 132.389 121.151 132.82C121.492 133.249 121.459 133.635 121.053 133.978C120.462 134.564 119.9 135.082 119.367 135.531C118.2 136.516 117.07 137.068 115.976 137.188C115.189 137.31 114.433 137.199 113.708 136.855C112.929 137.708 111.999 138.536 110.918 139.34C110.009 140.064 109.038 140.688 108.004 141.213C106.968 141.762 105.842 142.126 104.626 142.306C103.411 142.462 102.27 142.165 101.203 141.416C99.7791 140.424 99.2224 138.928 99.5328 136.928C99.6745 135.81 100.039 134.698 100.627 133.594C101.216 132.489 101.82 131.61 102.441 130.955C102.751 130.628 103.203 130.16 103.796 129.551C104.389 128.941 105.081 128.281 105.871 127.571C103.271 129.071 101.038 130.684 99.1728 132.411C98.761 132.823 98.3975 132.804 98.0822 132.354C97.8895 132.125 97.9222 131.739 98.1801 131.196C99.4211 130.17 101.458 128.646 104.291 126.624C107.123 124.603 109.77 123.107 112.232 122.137C113.195 121.606 114.282 121.145 115.493 120.752C116.704 120.36 117.744 120.189 118.611 120.238C120.273 120.355 121.174 121.409 121.312 123.4C121.34 123.897 121.152 124.729 120.747 125.896C120.342 127.063 119.867 128.224 119.322 129.379C119.32 129.403 119.318 129.426 119.316 129.45C119.314 129.473 119.313 129.485 119.313 129.485ZM112.733 135.854C112.247 134.635 112.468 133.405 113.398 132.165C113.665 131.787 114.192 131.125 114.979 130.178C115.766 129.232 116.501 128.611 117.186 128.315C117.506 128.154 117.865 128.09 118.262 128.124C118.589 127.327 118.928 126.378 119.28 125.277C119.664 124.085 119.649 123.283 119.236 122.871C118.849 122.438 118.468 122.205 118.094 122.173C117.131 122.139 115.93 122.697 114.49 123.847C113.052 124.974 111.61 126.289 110.163 127.792C108.741 129.297 107.426 130.776 106.22 132.229C105.037 133.684 104.232 134.699 103.807 135.276C102.245 137.311 101.688 138.877 102.137 139.975C102.592 141.286 104.019 141.395 106.42 140.302C107.472 139.849 108.65 139.148 109.955 138.198C111.112 137.33 112.038 136.549 112.733 135.854Z" fill="#975C28"/>
<path d="M126.381 132.835C126.451 132.839 126.522 132.842 126.592 132.845C127.108 132.869 127.543 133.101 127.899 133.54C128.208 133.977 128.35 134.454 128.326 134.97C128.322 135.063 128.318 135.157 128.313 135.251C128.039 136.625 127.432 137.29 126.494 137.246C126.471 137.245 126.447 137.244 126.424 137.243C126.4 137.242 126.377 137.241 126.354 137.24C125.369 137.194 124.555 137.768 123.913 138.96C123.611 139.392 123.45 139.808 123.432 140.206C123.414 140.605 123.525 140.986 123.767 141.35C123.919 141.615 124.159 141.756 124.488 141.771C125.121 141.8 126.057 141.362 127.298 140.456C127.93 139.991 128.762 139.278 129.793 138.315C130.826 137.329 131.944 136.265 133.148 135.122C134.574 133.754 136.011 132.411 137.458 131.092C138.929 129.773 140.456 128.516 142.038 127.321C142.768 126.79 143.779 126.015 145.071 124.993C146.365 123.949 147.552 123.17 148.633 122.656C149.017 122.485 149.304 122.381 149.494 122.343C150.041 122.204 150.771 122.155 151.686 122.198C152.905 122.254 153.509 122.399 153.498 122.634C153.496 122.681 153.482 122.727 153.457 122.773L139.96 139.49C139.711 139.807 139.41 140.216 139.058 140.717C138.832 141.012 138.714 141.277 138.704 141.511C138.696 141.676 138.748 141.819 138.86 141.942C139.06 142.186 139.301 142.314 139.582 142.327C139.793 142.337 140.019 142.289 140.259 142.183C141.197 141.709 142.044 141.184 142.799 140.608C143.578 140.01 144.406 139.378 145.283 138.714C147.062 137.339 148.729 135.842 150.284 134.222C150.456 134.066 150.635 133.992 150.823 134C151.012 133.986 151.195 134.076 151.374 134.272C151.553 134.469 151.638 134.672 151.628 134.883C151.619 135.071 151.529 135.255 151.356 135.435C149.729 137.075 148.037 138.606 146.28 140.029C144.672 141.247 142.762 142.427 140.547 143.57C139.56 144.089 138.714 144.332 138.011 144.299C137.261 144.264 136.69 143.897 136.299 143.198C136.014 142.762 135.886 142.227 135.915 141.594C135.923 141.43 135.942 141.266 135.973 141.103C136.133 139.677 136.709 138.153 137.7 136.531C138.692 134.908 139.46 133.792 140.005 133.183L143.208 129.454C143.142 129.357 143.051 129.306 142.934 129.3C142.793 129.294 142.59 129.367 142.324 129.519C140.197 130.807 138.203 132.254 136.343 133.86C134.335 135.623 132.454 137.428 130.701 139.274C128.947 141.119 127.314 142.383 125.802 143.065C125.01 143.428 124.309 143.595 123.7 143.567C123.067 143.538 122.537 143.302 122.111 142.859C121.438 142.17 121.133 141.146 121.196 139.786C121.212 139.434 121.253 139.048 121.32 138.629C121.624 137.139 122.141 135.847 122.873 134.753C123.582 133.658 124.751 133.019 126.381 132.835Z" fill="#975C28"/>
<path d="M148.629 134.864C149.068 133.72 150.912 132.069 154.16 129.911C157.408 127.752 160.226 126.116 162.614 125.001C164.676 123.67 166.494 122.993 168.067 122.969C168.7 122.979 169.331 123.199 169.958 123.631C170.609 124.04 170.999 124.656 171.128 125.48C171.274 126.679 170.705 127.903 169.418 129.152C168.132 130.4 166.589 131.574 164.788 132.674C163.011 133.775 161.213 134.746 159.393 135.587C157.573 136.405 156.215 136.972 155.318 137.287C155.126 137.566 154.958 137.81 154.814 138.019C154.694 138.229 154.586 138.403 154.49 138.542C152.977 140.844 152.494 142.503 153.042 143.521C153.591 144.515 154.93 144.465 157.059 143.369C158.81 142.41 160.375 141.365 161.753 140.235C163.251 138.99 165.05 137.185 167.151 134.822C167.532 134.452 167.908 134.458 168.277 134.839C168.624 135.196 168.619 135.583 168.26 136.001C167.616 136.719 167.067 137.298 166.615 137.737C166.162 138.176 165.044 139.192 163.259 140.786C162.093 141.895 160.573 143.023 158.702 144.169C157.707 144.764 156.609 145.182 155.408 145.422C154.207 145.686 153.048 145.493 151.931 144.843C150.442 143.928 149.783 142.475 149.954 140.482C150.017 139.356 150.375 138.223 151.025 137.082C151.676 135.918 152.289 134.988 152.863 134.293C153.15 133.945 153.556 133.458 154.082 132.832C154.631 132.183 155.287 131.465 156.05 130.678C153.442 132.447 151.314 134.223 149.668 136.006C149.287 136.376 148.935 136.382 148.611 136.025C148.404 135.788 148.409 135.4 148.629 134.864ZM166.604 129.004C167.86 128.178 168.685 127.192 169.077 126.048C169.47 124.903 169.091 124.346 167.94 124.376C166.554 124.426 164.787 125.644 162.639 128.03C160.514 130.416 158.661 132.677 157.08 134.813C158.712 133.992 160.322 133.077 161.91 132.068C163.498 131.059 165.062 130.037 166.604 129.004Z" fill="#975C28"/>
<path d="M169.617 135.195C170.025 134.04 171.822 132.338 175.01 130.091C178.197 127.844 180.968 126.13 183.324 124.949C185.349 123.562 187.147 122.835 188.719 122.768C189.353 122.76 189.989 122.963 190.628 123.377C191.29 123.768 191.697 124.373 191.848 125.193C192.028 126.387 191.492 127.627 190.241 128.91C188.99 130.194 187.48 131.41 185.71 132.56C183.964 133.709 182.193 134.729 180.397 135.621C178.601 136.489 177.259 137.093 176.371 137.433C176.187 137.717 176.026 137.965 175.888 138.178C175.773 138.391 175.67 138.568 175.578 138.71C174.129 141.053 173.692 142.725 174.269 143.727C174.844 144.706 176.181 144.618 178.279 143.465C180.003 142.457 181.539 141.369 182.885 140.201C184.348 138.915 186.096 137.062 188.131 134.641C188.502 134.261 188.877 134.256 189.258 134.627C189.614 134.975 189.619 135.362 189.273 135.789C188.648 136.524 188.116 137.118 187.676 137.57C187.235 138.021 186.146 139.068 184.406 140.71C183.27 141.851 181.783 143.021 179.944 144.218C178.966 144.841 177.88 145.289 176.686 145.562C175.493 145.859 174.329 145.698 173.194 145.079C171.681 144.206 170.982 142.771 171.097 140.775C171.13 139.647 171.455 138.505 172.074 137.347C172.693 136.165 173.279 135.219 173.834 134.507C174.111 134.152 174.504 133.654 175.012 133.013C175.543 132.349 176.179 131.613 176.92 130.806C174.362 132.646 172.284 134.48 170.688 136.308C170.317 136.688 169.965 136.705 169.632 136.357C169.418 136.125 169.413 135.737 169.617 135.195ZM187.423 128.841C188.656 127.98 189.453 126.972 189.814 125.817C190.175 124.662 189.781 124.116 188.631 124.177C187.247 124.265 185.515 125.532 183.433 127.976C181.375 130.42 179.586 132.732 178.064 134.911C179.673 134.045 181.257 133.086 182.816 132.033C184.376 130.981 185.911 129.916 187.423 128.841Z" fill="#975C28"/>
<path d="M211.903 133.419C213.752 133.284 214.787 134.067 215.006 135.769C215.007 135.792 215.009 135.815 215.011 135.839C215.133 137.501 214.269 138.4 212.42 138.536C211.671 138.591 211.023 138.426 210.477 138.043C209.735 138.191 209.388 138.594 209.436 139.249C209.455 139.506 209.536 139.807 209.679 140.149C210.055 141.11 210.858 141.781 212.086 142.161C213.314 142.542 214.515 142.701 215.687 142.638C215.827 142.628 215.968 142.617 216.108 142.607C218.192 142.454 220.111 141.666 221.865 140.242C222.934 139.411 223.817 138.452 224.514 137.365C225.232 136.253 225.924 135.096 226.589 133.894C227.375 132.424 227.859 131 228.04 129.622C228.084 129.265 228.096 128.935 228.073 128.631C228.008 127.741 227.648 127.003 226.993 126.415C226.465 125.96 225.885 125.755 225.253 125.802C225.066 125.816 224.88 125.853 224.696 125.913C223.821 126.166 222.811 126.358 221.667 126.489C221.528 126.523 221.401 126.544 221.284 126.552C220.464 126.613 219.96 126.32 219.772 125.675C219.713 125.514 219.678 125.364 219.668 125.224C219.613 124.474 220.134 124.036 221.231 123.908C221.348 123.9 221.465 123.891 221.582 123.883C223.244 123.761 224.906 123.956 226.567 124.47C227.477 124.356 228.493 124.093 229.616 123.681C230.761 123.244 231.976 122.484 233.261 121.401C235.798 118.767 237.188 116.217 237.43 113.752C237.475 113.395 237.486 113.065 237.463 112.761C237.322 110.841 236.08 109.791 233.737 109.61C233.476 109.582 233.217 109.578 232.959 109.597C231.625 109.695 230.247 110.325 228.826 111.489C227.115 112.862 225.923 114.091 225.249 115.176C224.744 115.99 224.391 116.945 224.189 118.043C224.136 118.282 224.116 118.495 224.13 118.683C224.183 119.408 224.684 119.819 225.632 119.914C225.775 119.927 225.916 119.928 226.056 119.918C227.133 119.839 228.389 119.146 229.823 117.841C231.054 116.668 231.699 115.514 231.757 114.38C231.783 114.096 231.96 113.942 232.288 113.918C232.616 113.893 232.79 114.022 232.811 114.303C232.841 115.995 232.151 117.493 230.74 118.797C229.396 120.049 227.987 120.729 226.512 120.838C226.208 120.86 225.902 120.859 225.594 120.834C223.771 120.686 222.695 119.812 222.366 118.212C222.293 117.864 222.245 117.527 222.22 117.199C222.054 114.928 223.007 113.011 225.081 111.446C227.469 109.67 229.857 108.695 232.245 108.519C234.913 108.323 237.148 108.948 238.949 110.392C240.428 111.625 241.232 113.119 241.361 114.875C241.386 115.226 241.389 115.579 241.368 115.934C241.266 117.118 240.651 118.352 239.521 119.635C238.414 120.893 237.115 121.965 235.627 122.851C233.417 124.167 231.018 124.99 228.43 125.321C229.909 126.225 230.951 127.443 231.558 128.975C231.767 129.572 231.893 130.174 231.938 130.783C232.024 131.953 231.807 133.17 231.288 134.431C230.489 136.373 229.228 138.101 227.503 139.617C225.977 140.953 224.167 141.944 222.073 142.593C219.977 143.217 218.134 143.588 216.542 143.705C214.575 143.849 212.69 143.658 210.886 143.132C209.081 142.582 208.067 141.115 207.845 138.73C207.742 137.326 208.076 136.113 208.849 135.091C209.621 134.069 210.639 133.512 211.903 133.419Z" fill="#975C28"/>
<path d="M275.051 106.925C275.156 107.219 275.222 107.472 275.246 107.681C275.315 108.264 275.128 108.582 274.685 108.634C274.615 108.642 274.546 108.651 274.476 108.659C274.429 108.664 274.382 108.67 274.336 108.675C273.87 108.73 273.668 109.026 273.732 109.562C273.759 109.795 273.826 110.059 273.931 110.354C274.111 110.876 274.236 111.429 274.305 112.012C274.599 114.506 273.913 117.695 272.244 121.579C270.168 126.41 267.181 130.734 263.283 134.55C259.406 138.341 255.684 140.447 252.117 140.869C248.551 141.29 246.23 140.052 245.155 137.153C244.912 136.497 244.746 135.795 244.658 135.049C244.355 132.485 244.998 129.325 246.587 125.568C248.255 121.684 250.626 118.048 253.7 114.659C256.774 111.27 259.859 108.779 262.956 107.184C265.545 105.885 268.06 105.068 270.502 104.732C270.525 104.729 270.548 104.727 270.572 104.724C272.949 104.443 274.442 105.176 275.051 106.925ZM267.114 107.862C264.34 108.19 261.64 110.246 259.015 114.031C256.413 117.813 254.001 121.903 251.779 126.302C249.577 130.675 248.301 134.075 247.95 136.504C247.886 136.961 247.876 137.376 247.92 137.749C248.101 139.287 249.323 139.923 251.584 139.655C254.334 139.33 257.474 137.494 261.002 134.146C264.553 130.796 267.439 126.921 269.661 122.523C271.689 118.478 272.539 115.068 272.211 112.294C272.186 112.085 272.15 111.876 272.101 111.669C271.527 108.806 269.864 107.537 267.114 107.862Z" fill="#975C28"/>
<path d="M326.868 85.3077C325.51 87.9031 324.265 90.5381 323.135 93.2129C322.027 95.8836 320.837 98.4855 319.562 101.019C320.171 100.412 320.792 99.8037 321.424 99.1932C322.08 98.5787 322.722 97.9546 323.35 97.3211C324.959 95.7542 326.549 94.143 328.119 92.4877C329.708 90.8051 331.171 89.085 332.509 87.3271C333.213 86.4421 333.936 85.3988 334.68 84.1971C335.184 83.3946 335.854 82.1819 336.691 80.5589C337.551 78.9319 337.367 77.7369 336.138 76.9741C335.045 76.3068 333.853 76.5741 332.561 77.7759C331.269 78.9778 330.366 79.9452 329.85 80.6783C329.063 81.7684 328.393 82.7786 327.841 83.7088C327.284 84.6158 326.96 85.1488 326.868 85.3077ZM302.787 129.458C302.64 128.34 302.764 127.067 303.159 125.641C303.572 124.187 303.996 123.064 304.431 122.274C304.61 121.933 305.057 121.081 305.772 119.717C306.511 118.35 307.224 117.177 307.911 116.2C308.048 115.89 308.185 115.58 308.321 115.271C308.477 114.934 308.644 114.595 308.823 114.254C307.274 116.168 305.801 118.104 304.403 120.063C303.024 121.995 301.85 123.736 300.881 125.287C300.599 125.717 300.24 125.78 299.806 125.474C299.562 125.302 299.495 124.921 299.607 124.329C299.842 123.216 301.337 120.859 304.093 117.258C306.845 113.634 309.37 110.692 311.669 108.433C313.259 105.25 314.906 102.056 316.612 98.8521C318.34 95.6443 320.148 92.4108 322.034 89.1517C323.208 87.1365 324.598 84.9287 326.205 82.5283C327.832 80.1007 329.513 78.0567 331.249 76.3963C332.126 75.5525 333.092 74.8721 334.145 74.355C335.218 73.8108 336.319 73.7024 337.448 74.0299C338.713 74.4528 339.401 75.1906 339.513 76.2433C339.648 77.2919 339.506 78.3889 339.086 79.5342C338.606 80.8806 337.981 82.0853 337.214 83.1483C336.442 84.1881 335.846 85.0067 335.426 85.604C333.73 88.0436 331.745 90.4622 329.47 92.8598C327.215 95.2302 325.294 97.2683 323.709 98.9739C322.721 100.004 321.773 100.919 320.864 101.721C319.979 102.519 319.015 103.413 317.972 104.405C317.444 105.474 316.915 106.543 316.386 107.612C315.877 108.653 315.367 109.695 314.858 110.737C316.002 109.918 316.82 109.347 317.311 109.023C319.012 107.845 320.46 107.402 321.654 107.695C322.845 107.964 323.478 109.271 323.553 111.617C323.593 113.492 323.012 115.559 321.809 117.817C320.63 120.072 319.557 121.915 318.591 123.346C319.584 122.482 320.422 121.478 321.104 120.335C321.41 119.9 321.778 119.824 322.208 120.107C322.6 120.443 322.669 120.836 322.414 121.286C321.483 122.782 320.359 123.991 319.042 124.911C317.721 125.808 316.428 126.724 315.161 127.66C313.584 129.412 312.058 130.773 310.583 131.745C308.859 132.927 307.261 133.396 305.789 133.152C304.028 132.887 303.027 131.656 302.787 129.458ZM317.755 111.161C316.779 111.165 315.717 111.838 314.569 113.182C313.444 114.521 312.356 116.069 311.304 117.825C310.275 119.576 309.351 121.322 308.535 123.06C307.737 124.772 307.186 125.987 306.883 126.707C305.829 129.273 305.818 130.788 306.852 131.251C307.882 131.692 309.029 131.372 310.295 130.294C311.131 129.624 311.839 129.037 312.418 128.531C313.016 127.998 313.656 127.362 314.337 126.624C315.804 125.058 317.082 123.299 318.171 121.346C318.514 120.714 318.938 119.592 319.443 117.979C319.948 116.366 320.121 114.824 319.959 113.351C319.783 111.928 319.048 111.198 317.755 111.161Z" fill="#975C28"/>
<path d="M352.26 115.842C351.041 117.981 349.774 119.879 348.457 121.535C347.241 123.099 345.676 124.71 343.761 126.367C343.352 126.714 342.787 126.996 342.065 127.214C341.37 127.451 340.767 127.49 340.256 127.33C339.109 126.988 338.501 126.117 338.433 124.718C338.361 123.655 338.517 122.533 338.9 121.354C339.306 120.17 339.574 119.361 339.701 118.928C339.165 119.708 338.665 120.432 338.202 121.1C337.739 121.769 337.34 122.341 337.005 122.816C335.928 124.352 334.668 125.817 333.227 127.211C332.726 127.696 332.108 128.252 331.374 128.88C330.175 129.818 328.965 130.111 327.744 129.76C327.408 129.637 327.092 129.378 326.796 128.983C326.523 128.583 326.294 128.222 326.109 127.901C325.689 127.243 325.747 125.878 326.285 123.805C326.822 121.732 327.372 120.136 327.935 119.016L331.431 112.163C328.411 115.219 326.051 118.344 324.352 121.539C324.137 122.014 323.78 122.086 323.282 121.756C323.033 121.591 322.956 121.211 323.051 120.617C323.27 119.807 324.366 118.183 326.338 115.747C328.306 113.288 330.229 111.018 332.106 108.937C332.455 108.531 332.861 108.113 333.325 107.684C333.784 107.231 334.144 106.763 334.405 106.279C334.51 106.09 334.802 105.935 335.28 105.814C335.759 105.693 336.205 105.591 336.619 105.507C338.022 105.222 338.642 105.264 338.477 105.633L329.465 125.136C329.3 125.505 329.099 125.989 328.861 126.588C328.619 127.164 328.652 127.564 328.961 127.789C329.473 128.188 330.08 128.053 330.783 127.384C331.508 126.71 332.018 126.211 332.311 125.888C334.478 123.7 336.458 121.239 338.25 118.504C340.038 115.746 341.787 113.092 343.497 110.542C344.212 109.463 344.858 108.338 345.434 107.167C346.011 105.996 346.59 104.837 347.172 103.689C347.277 103.5 347.569 103.345 348.047 103.224C348.526 103.103 348.972 103.001 349.386 102.917C350.789 102.632 351.409 102.674 351.244 103.043L342.232 122.546C342.067 122.915 341.866 123.399 341.628 123.998C341.386 124.574 341.43 124.972 341.762 125.192C342.191 125.536 342.663 125.5 343.178 125.085C343.977 124.42 344.695 123.711 345.333 122.959C345.989 122.179 346.65 121.363 347.315 120.509C348.434 119.061 349.637 117.2 350.925 114.927C351.25 114.525 351.618 114.451 352.029 114.703C352.444 114.978 352.521 115.357 352.26 115.842Z" fill="#975C28"/>
<path d="M355.558 123.983C353.725 123.438 352.615 122.319 352.228 120.626C352.207 120.534 352.186 120.443 352.165 120.351C351.983 119.237 351.969 117.964 352.124 116.533C352.279 115.101 352.552 113.979 352.945 113.167C353.134 112.835 353.408 112.351 353.769 111.715C354.124 111.056 354.557 110.319 355.069 109.504C352.972 111.813 351.306 114.059 350.071 116.243C349.958 116.485 349.81 116.628 349.627 116.669C349.444 116.711 349.24 116.662 349.015 116.52C348.903 116.45 348.826 116.323 348.784 116.14C348.714 115.939 348.705 115.688 348.757 115.388C348.955 114.042 350.648 111.705 353.837 108.377C357.02 105.026 359.542 102.729 361.4 101.486C363.067 99.9255 364.604 98.9606 366.012 98.5908C366.058 98.5804 366.104 98.5699 366.15 98.5595C367.179 98.3244 368.182 98.4446 369.157 98.9201C369.219 98.9783 369.453 99.2137 369.86 99.6263C370.29 100.034 370.745 100.183 371.226 100.073C371.707 99.9631 372.168 99.5569 372.609 98.8542C373.045 98.1286 373.332 97.5936 373.47 97.2491C374.649 94.5002 375.563 91.7033 376.213 88.8582C376.864 86.0131 377.368 83.1052 377.725 80.1346C377.964 77.9131 377.957 75.7236 377.705 73.5661C377.66 73.2634 377.604 72.9633 377.536 72.6658C377.128 70.881 376.201 69.2989 374.755 67.9198C373.173 66.4752 370.597 65.8957 367.027 66.1813C366.673 66.2139 366.313 66.272 365.947 66.3556C362.789 67.0766 359.827 69.7633 357.061 74.4155C354.29 79.0449 352.712 82.8361 352.327 85.7891C352.085 87.5778 352.1 89.0671 352.372 90.257C352.55 91.035 352.841 91.6787 353.246 92.1881C354.222 93.5064 355.626 94.0163 357.46 93.7179C357.625 93.7042 357.788 93.6791 357.948 93.6425C359.596 93.2663 361.177 92.2311 362.693 90.5369C364.195 88.8937 365.553 86.8261 366.766 84.3342C368.001 81.8371 368.355 77.904 367.828 72.5351C367.76 71.9245 367.91 71.5774 368.276 71.4938C368.299 71.4886 368.322 71.4833 368.345 71.4781C368.767 71.4298 369.046 71.7032 369.182 72.2981C370.379 78.5975 369.839 83.5602 367.561 87.1861C365.306 90.8069 362.823 93.2158 360.111 94.4129C359.433 94.7121 358.785 94.9323 358.167 95.0734C357.206 95.2928 356.297 95.3197 355.441 95.1541C354.034 94.8975 353.117 94.6254 352.69 94.3376C350.752 93.0224 349.57 91.4266 349.141 89.5502C348.869 88.3603 348.908 87.0514 349.256 85.6237C350.128 81.9575 350.779 79.642 351.209 78.6771C353.778 72.529 357.593 68.3594 362.654 66.1685C363.97 65.6033 365.222 65.1848 366.412 64.9131C369.776 64.1451 372.623 64.5422 374.954 66.1046C376.836 67.3845 378.082 69.3631 378.693 72.0404C379.305 74.7178 379.517 77.5464 379.331 80.5262C378.969 86.2186 377.673 91.9316 375.443 97.6653C373.208 103.376 370.615 108.627 367.664 113.418C368.611 112.503 369.395 111.458 370.017 110.28C370.131 110.038 370.279 109.896 370.462 109.854C370.645 109.812 370.849 109.862 371.074 110.003C371.327 110.162 371.474 110.333 371.516 110.516C371.558 110.699 371.508 110.903 371.367 111.128C370.52 112.693 369.452 113.973 368.162 114.965C366.89 115.93 365.657 116.91 364.463 117.905C362.916 119.775 361.307 121.322 359.636 122.546C358.584 123.316 357.658 123.792 356.857 123.975C356.376 124.085 355.943 124.087 355.558 123.983ZM366.666 100.031C366.546 100.034 366.429 100.049 366.315 100.075C365.445 100.273 364.515 101.051 363.525 102.409C362.406 103.94 361.337 105.689 360.317 107.656C359.321 109.617 358.436 111.54 357.662 113.426C356.889 115.312 356.372 116.634 356.112 117.392C355.561 118.986 355.372 120.161 355.544 120.916C355.659 121.42 355.926 121.744 356.344 121.889C356.796 122.075 357.262 122.113 357.743 122.003C358.384 121.857 359.05 121.452 359.741 120.789C361.296 119.374 362.578 118.082 363.587 116.913C365.01 115.24 366.181 113.407 367.099 111.416C367.431 110.762 367.885 109.431 368.462 107.421C369.061 105.406 369.242 103.668 369.004 102.205C368.978 102.091 368.952 101.976 368.926 101.862C368.644 100.626 367.891 100.016 366.666 100.031Z" fill="#975C28"/>
<path d="M389.956 101.665C389.973 101.733 390.005 101.955 390.05 102.331C390.119 102.701 390.162 102.92 390.179 102.989C390.362 103.524 390.351 104.204 390.146 105.029C389.942 105.855 389.607 106.447 389.14 106.806C388.423 107.422 388.111 107.863 388.202 108.131C388.293 108.398 388.575 108.412 389.047 108.173C389.486 107.99 389.966 107.543 390.489 106.831C390.717 106.484 390.927 106.116 391.12 105.729C391.314 105.342 391.504 104.943 391.692 104.533C391.93 104.038 392.292 103.935 392.776 104.225C393.237 104.52 393.331 104.896 393.059 105.352C392.689 106.098 392.325 106.77 391.967 107.368C391.183 108.678 390.292 109.567 389.296 110.034C388.591 110.405 387.839 110.545 387.042 110.454C386.582 111.514 385.971 112.599 385.209 113.709C384.584 114.689 383.867 115.595 383.059 116.426C382.257 117.281 381.31 117.99 380.217 118.555C379.119 119.097 377.944 119.186 376.691 118.822C375.022 118.345 374.011 117.111 373.656 115.119C373.428 114.014 373.413 112.845 373.611 111.609C373.809 110.374 374.096 109.346 374.471 108.526C374.659 108.116 374.934 107.526 375.298 106.758C375.662 105.989 376.102 105.14 376.62 104.212C374.646 106.473 373.057 108.723 371.851 110.962C371.596 111.485 371.246 111.585 370.801 111.261C370.545 111.108 370.451 110.732 370.519 110.134C371.36 108.762 372.793 106.66 374.818 103.829C376.842 100.998 378.861 98.725 380.875 97.0098C381.614 96.1952 382.493 95.406 383.512 94.6424C384.53 93.8788 385.458 93.3799 386.294 93.1458C387.905 92.7176 389.098 93.4226 389.874 95.2608C390.062 95.7218 390.154 96.5699 390.149 97.8053C390.145 99.0406 390.072 100.293 389.93 101.563C389.936 101.585 389.942 101.608 389.947 101.631C389.953 101.654 389.956 101.665 389.956 101.665ZM385.795 109.823C384.94 108.828 384.752 107.593 385.229 106.118C385.359 105.674 385.643 104.876 386.081 103.726C386.518 102.576 387.013 101.75 387.565 101.249C387.815 100.992 388.134 100.816 388.521 100.718C388.571 99.8588 388.585 98.8511 388.561 97.6955C388.537 96.4431 388.263 95.689 387.739 95.4332C387.233 95.149 386.797 95.0526 386.433 95.1439C385.511 95.4236 384.555 96.3409 383.566 97.8958C382.571 99.428 381.633 101.139 380.752 103.03C379.894 104.915 379.129 106.74 378.459 108.506C377.811 110.265 377.38 111.487 377.164 112.17C376.346 114.601 376.327 116.264 377.108 117.157C377.963 118.249 379.349 117.89 381.266 116.078C382.113 115.309 383.001 114.263 383.928 112.942C384.741 111.746 385.363 110.706 385.795 109.823Z" fill="#975C28"/>
<path d="M418.762 62.4897C417.657 65.2028 416.669 67.9445 415.799 70.7148C414.951 73.4788 414.013 76.1824 412.986 78.8253C413.535 78.1636 414.095 77.4987 414.666 76.8308C415.26 76.1566 415.839 75.4743 416.404 74.7837C417.857 73.0706 419.286 71.3153 420.691 69.5179C422.113 67.6916 423.406 65.8398 424.57 63.9625C425.186 63.0145 425.807 61.907 426.433 60.6399C426.857 59.7931 427.409 58.522 428.088 56.8266C428.789 55.1251 428.492 53.9531 427.196 53.3109C426.044 52.7508 424.882 53.1304 423.711 54.4499C422.54 55.7693 421.733 56.8185 421.289 57.5974C420.61 58.7575 420.039 59.8269 419.577 60.8055C419.11 61.7614 418.838 62.3229 418.762 62.4897ZM398.997 108.733C398.744 107.635 398.746 106.356 399.003 104.898C399.277 103.411 399.592 102.254 399.949 101.426C400.094 101.069 400.458 100.178 401.04 98.7529C401.645 97.3212 402.244 96.086 402.835 95.0475C402.941 94.7262 403.048 94.4049 403.154 94.0835C403.277 93.7334 403.412 93.3801 403.557 93.0237C402.198 95.0763 400.915 97.1443 399.71 99.2275C398.522 101.282 397.519 103.127 396.702 104.763C396.462 105.218 396.111 105.315 395.65 105.052C395.39 104.904 395.288 104.531 395.342 103.931C395.47 102.801 396.734 100.312 399.135 96.4647C401.529 92.5947 403.762 89.4259 405.835 86.9583C407.115 83.6377 408.45 80.3015 409.843 76.9498C411.258 73.5919 412.749 70.201 414.316 66.7769C415.293 64.659 416.466 62.3288 417.837 59.7862C419.225 57.2147 420.703 55.0199 422.273 53.2016C423.066 52.278 423.963 51.5087 424.962 50.8936C425.978 50.2496 427.064 50.0368 428.219 50.2552C429.518 50.5557 430.274 51.2246 430.486 52.2618C430.72 53.2928 430.683 54.3983 430.374 55.5785C430.024 56.9645 429.518 58.2232 428.854 59.3544C428.185 60.4631 427.67 61.3347 427.309 61.9694C425.853 64.5595 424.108 67.1562 422.072 69.7596C420.052 72.3342 418.335 74.5459 416.919 76.3948C416.034 77.5141 415.177 78.516 414.349 79.4005C413.543 80.2788 412.669 81.2612 411.726 82.3476C411.302 83.462 410.877 84.5765 410.453 85.6909C410.045 86.7765 409.637 87.862 409.229 88.9476C410.29 88.0236 411.05 87.377 411.508 87.0077C413.089 85.6732 414.488 85.0945 415.705 85.2716C416.916 85.4261 417.67 86.6673 417.968 88.9951C418.187 90.8578 417.806 92.9706 416.824 95.3335C415.864 97.6902 414.972 99.6267 414.147 101.143C415.053 100.189 415.791 99.1097 416.362 97.9065C416.624 97.445 416.983 97.3342 417.439 97.5744C417.861 97.8722 417.967 98.257 417.756 98.7287C416.972 100.307 415.968 101.617 414.745 102.658C413.516 103.677 412.315 104.713 411.143 105.765C409.74 107.659 408.351 109.16 406.976 110.268C405.372 111.608 403.826 112.227 402.338 112.125C400.559 112.029 399.445 110.898 398.997 108.733ZM412.154 89.0941C411.182 89.1904 410.189 89.962 409.175 91.4088C408.183 92.8494 407.247 94.4937 406.366 96.3418C405.509 98.1836 404.756 100.009 404.109 101.817C403.478 103.597 403.045 104.86 402.812 105.605C402.007 108.26 402.141 109.769 403.214 110.132C404.281 110.472 405.393 110.045 406.55 108.851C407.319 108.104 407.968 107.452 408.496 106.893C409.04 106.305 409.617 105.612 410.225 104.812C411.535 103.114 412.64 101.24 413.538 99.1926C413.819 98.5314 414.134 97.3739 414.484 95.7202C414.833 94.0666 414.857 92.5143 414.556 91.0634C414.245 89.6641 413.444 89.0076 412.154 89.0941Z" fill="#975C28"/>
<path d="M453.918 88.3077C453.42 89.2276 452.953 90.0886 452.517 90.8907C452.097 91.6633 451.737 92.3182 451.439 92.8553C450.438 94.5985 449.34 96.1879 448.143 97.6235C447.553 98.3266 446.99 98.9596 446.454 99.5225C445.94 100.078 445.369 100.455 444.743 100.653C444.183 100.829 443.589 100.857 442.96 100.735C442.597 100.678 442.248 100.468 441.912 100.106C441.592 99.7147 441.337 99.3765 441.149 99.0914C441.032 98.9559 440.939 98.7762 440.868 98.5524C440.628 97.7913 440.633 96.5962 440.882 94.967C441.198 92.849 441.577 91.2034 442.02 90.0302L445.613 80.59C445.993 79.6089 446.109 78.8832 445.96 78.4132C445.904 78.2341 445.81 78.0915 445.678 77.9854C445.546 77.8794 445.39 77.8546 445.211 77.9111C444.764 78.0523 444.182 78.6664 443.467 79.7535C442.005 81.9866 440.651 84.2103 439.405 86.4246C438.175 88.6095 436.984 91.0771 435.834 93.8274C435.704 94.0406 435.564 94.1831 435.415 94.2549C435.236 94.3114 435.028 94.2783 434.793 94.1557C434.675 94.0944 434.588 93.9742 434.531 93.7952C434.445 93.6008 434.416 93.3516 434.443 93.0477C434.579 91.9957 435.675 89.6565 437.73 86.03C439.801 82.3741 441.576 79.6116 443.054 77.7425L443.131 77.7549C443.581 77.0718 444.432 76.5325 445.685 76.1371C445.73 76.123 445.786 76.1053 445.853 76.0841C447.658 75.564 448.762 75.942 449.164 77.2179C449.186 77.2851 449.207 77.3522 449.228 77.4194C449.561 78.8649 449.54 80.1266 449.167 81.2044L444.15 95.9665C444.025 96.3505 443.884 96.8381 443.726 97.4294C443.616 97.784 443.597 98.0732 443.667 98.297C443.717 98.4537 443.815 98.5704 443.962 98.647C444.234 98.8073 444.505 98.8451 444.773 98.7604C444.975 98.6968 445.17 98.5738 445.358 98.3913C446.732 96.9733 448.044 95.2798 449.293 93.3105C453.393 86.7996 456.695 79.9864 459.201 72.8707C459.286 72.6716 459.56 72.4868 460.023 72.3161C460.486 72.1454 460.919 71.9965 461.322 71.8695C462.477 71.5541 463.087 71.4972 463.151 71.6986C463.158 71.721 463.157 71.7581 463.149 71.81C461.889 75.776 460.608 79.7491 459.303 83.7293C457.992 87.687 456.636 91.6589 455.235 95.6449C456.363 94.3047 457.328 93.1511 458.131 92.1842C459.395 90.6532 460.406 89.2145 461.163 87.8683C461.789 86.8094 462.429 85.5244 463.085 84.0132C463.2 83.7553 463.348 83.598 463.527 83.5416C463.706 83.4851 463.913 83.5181 464.149 83.6407C464.355 83.748 464.486 83.8911 464.543 84.0702C464.629 84.2646 464.614 84.4908 464.498 84.7488C463.905 86.068 463.352 87.2022 462.84 88.1516C462.25 89.2481 461.648 90.2257 461.033 91.0843C460.433 91.9134 459.736 92.7855 458.941 93.7006C458.245 94.5356 457.439 95.4913 456.523 96.5678C455.607 97.6442 454.635 98.8125 453.605 100.073C451.849 104.884 450.021 109.546 448.122 114.059C446.245 118.564 444.231 123.297 442.08 128.259C441.317 129.976 440.034 131.956 438.231 134.198C436.89 135.877 435.592 136.913 434.339 137.309C433.913 137.443 433.489 137.503 433.066 137.489C432.013 137.427 431.345 136.948 431.063 136.053C430.823 135.292 430.866 134.22 431.193 132.837C431.559 131.343 432.429 129.186 433.803 126.365C435.185 123.567 436.304 121.417 437.159 119.917C437.901 118.6 438.838 117.123 439.97 115.486C441.103 113.849 442.277 112.186 443.492 110.498C444.328 109.324 445.197 108.139 446.099 106.944C447.009 105.771 447.911 104.613 448.806 103.469C450.427 98.6998 452.131 93.646 453.918 88.3077ZM436.542 132.59C437.267 132.312 438.024 131.593 438.815 130.433C439.606 129.273 440.541 127.206 441.621 124.231C442.617 121.456 443.585 118.714 444.527 116.005C445.47 113.296 446.404 110.601 447.331 107.922C446.747 108.647 446.156 109.387 445.558 110.142C444.981 110.89 444.431 111.642 443.907 112.398C443.163 113.396 442.235 114.747 441.124 116.451C439.997 118.185 438.903 119.982 437.841 121.843C436.061 124.939 434.802 127.699 434.065 130.122C433.784 131.023 433.713 131.698 433.854 132.145C434.102 132.929 434.953 133.091 436.408 132.632C436.452 132.618 436.497 132.604 436.542 132.59Z" fill="#975C28"/>
<path d="M462.83 83.8691C462.886 82.6368 464.09 80.4734 466.441 77.3789C468.785 74.2623 470.894 71.7697 472.766 69.9014C474.268 67.9598 475.745 66.7198 477.198 66.1813C477.821 65.9717 478.5 65.966 479.236 66.1644C479.986 66.333 480.559 66.7841 480.954 67.5178C481.051 67.7328 481.137 67.9515 481.212 68.174C481.451 68.8117 481.524 69.5055 481.43 70.2554C481.299 71.2653 480.688 71.9536 479.598 72.3204C478.152 72.8069 477.201 72.3717 476.744 71.0146C476.31 69.7243 476.697 68.7398 477.905 68.0609C478.239 67.8744 478.372 67.681 478.304 67.4808C478.252 67.3251 478.014 67.3183 477.592 67.4605C476.694 67.8119 475.807 68.8165 474.928 70.4742C474.064 72.1022 473.26 73.9082 472.516 75.8921C471.787 77.8463 471.161 79.7408 470.639 81.5757C470.11 83.3883 469.769 84.6548 469.615 85.3752C469.13 87.3213 469.042 88.7504 469.349 89.6625C469.468 90.0185 469.651 90.3037 469.896 90.5183C470.291 90.8809 470.777 90.9649 471.356 90.7702C472.023 90.5457 472.786 89.9794 473.645 89.0714C474.976 87.5831 476.104 86.0769 477.028 84.5526C477.596 83.5935 478.154 82.5268 478.7 81.3525C479.238 80.1559 479.78 78.9334 480.326 77.6848C480.414 77.4322 480.548 77.276 480.726 77.2161C480.904 77.1562 481.111 77.1853 481.349 77.3034C481.557 77.4067 481.691 77.5474 481.751 77.7254C481.841 77.9181 481.83 78.1445 481.72 78.4046C481.351 79.2964 481.027 80.0247 480.746 80.5896C480.466 81.1545 479.764 82.4926 478.642 84.6037C477.815 86.1203 476.754 87.6783 475.46 89.2778C474.728 90.1929 473.835 90.9636 472.783 91.5901C472.472 91.7691 472.161 91.911 471.849 92.0158C471.048 92.2853 470.199 92.336 469.3 92.1678C467.733 91.853 466.669 90.8614 466.107 89.1929C466.055 89.0372 466.014 88.8777 465.983 88.7145C465.669 87.6317 465.628 86.4442 465.862 85.152C466.088 83.8376 466.356 82.7568 466.666 81.9098C467.048 80.7656 467.638 79.2795 468.434 77.4512C466.571 80.0099 465.168 82.3891 464.224 84.5888C464.121 84.8712 463.98 85.0423 463.802 85.1022C463.624 85.1621 463.424 85.1181 463.2 84.9703C463.082 84.9112 462.992 84.7927 462.932 84.6148C462.843 84.422 462.809 84.1735 462.83 83.8691Z" fill="#975C28"/>
<path d="M485.04 75.7069C485.106 75.6833 485.172 75.6596 485.239 75.636C485.725 75.4625 486.216 75.5117 486.712 75.7835C487.163 76.0711 487.475 76.458 487.649 76.9444C487.68 77.0329 487.712 77.1213 487.744 77.2097C488.01 78.5851 487.701 79.4304 486.816 79.7458C486.794 79.7537 486.772 79.7616 486.75 79.7695C486.728 79.7774 486.706 79.7852 486.684 79.7931C485.755 80.1243 485.219 80.9632 485.077 82.31C484.961 82.8246 484.971 83.2699 485.105 83.6457C485.239 84.0216 485.486 84.3319 485.848 84.5768C486.089 84.7648 486.365 84.8036 486.674 84.6933C487.271 84.4804 487.972 83.7197 488.776 82.4111C489.185 81.7419 489.685 80.7663 490.274 79.4845C490.856 78.1806 491.487 76.7717 492.169 75.2579C492.97 73.452 493.79 71.6642 494.629 69.8947C495.491 68.1172 496.427 66.3753 497.438 64.669C497.912 63.9019 498.554 62.8009 499.363 61.366C500.164 59.9091 500.968 58.7379 501.773 57.8525C502.064 57.5495 502.29 57.3443 502.451 57.237C502.904 56.9009 503.562 56.5791 504.424 56.2717C505.574 55.8617 506.188 55.7672 506.267 55.9883C506.283 56.0325 506.287 56.0807 506.281 56.1328L500.128 76.7181C500.017 77.1065 499.894 77.599 499.758 78.1958C499.661 78.5542 499.652 78.8439 499.731 79.065C499.787 79.2197 499.889 79.3327 500.039 79.4038C500.317 79.5539 500.588 79.5817 500.854 79.4871C501.053 79.4161 501.243 79.2859 501.425 79.0966C502.113 78.3027 502.698 77.4961 503.178 76.6769C503.673 75.8277 504.2 74.9295 504.759 73.9824C505.884 72.0362 506.86 70.0188 507.685 67.9303C507.784 67.7203 507.922 67.5838 508.099 67.5207C508.268 67.4355 508.473 67.4498 508.713 67.5636C508.953 67.6774 509.108 67.8338 509.179 68.0328C509.242 68.2097 509.228 68.4141 509.136 68.6462C508.253 70.7804 507.267 72.8389 506.18 74.8215C505.154 76.5578 503.834 78.3745 502.218 80.2716C501.5 81.1255 500.81 81.6707 500.147 81.9072C499.439 82.1595 498.772 82.036 498.146 81.5368C497.716 81.2414 497.395 80.7952 497.182 80.1982C497.127 80.0435 497.083 79.8848 497.05 79.7221C496.658 78.342 496.612 76.7133 496.915 74.8361C497.217 72.959 497.505 71.6352 497.779 70.8648L499.33 66.1998C499.232 66.1351 499.128 66.1224 499.017 66.1618C498.885 66.2091 498.724 66.3535 498.536 66.595C497.056 68.5932 495.76 70.6878 494.647 72.8788C493.457 75.2719 492.4 77.6548 491.477 80.0274C490.554 82.4001 489.522 84.1885 488.382 85.3927C487.786 86.0288 487.201 86.4493 486.626 86.6542C486.029 86.8671 485.45 86.8495 484.888 86.6013C484.004 86.2188 483.333 85.3864 482.876 84.1042C482.757 83.7725 482.649 83.3999 482.552 82.9861C482.268 81.4924 482.258 80.1005 482.521 78.8107C482.761 77.5287 483.601 76.4941 485.04 75.7069Z" fill="#975C28"/>
<path d="M526.458 62.834C526.013 63.7806 525.596 64.6666 525.206 65.4922C524.83 66.2874 524.508 66.9616 524.241 67.5147C523.341 69.3118 522.334 70.9609 521.221 72.4621C520.671 73.1975 520.145 73.8614 519.641 74.4538C519.16 75.0379 518.612 75.4464 517.997 75.6793C517.449 75.8873 516.857 75.9484 516.222 75.8627C515.856 75.8255 515.496 75.6359 515.14 75.2937C514.798 74.9213 514.525 74.598 514.321 74.324C514.197 74.1953 514.093 74.0213 514.01 73.8018C513.727 73.0555 513.664 71.8621 513.82 70.2214C514.016 68.0889 514.302 66.4244 514.677 65.2281L517.73 55.5994C518.053 54.5983 518.127 53.8673 517.953 53.4063C517.886 53.2307 517.784 53.0937 517.646 52.9953C517.509 52.8969 517.352 52.881 517.176 52.9475C516.737 53.1139 516.192 53.76 515.539 54.8859C514.206 57.1982 512.981 59.4951 511.862 61.7764C510.758 64.0275 509.709 66.5586 508.716 69.3697C508.599 69.5899 508.467 69.7401 508.322 69.8203C508.146 69.8868 507.937 69.8656 507.695 69.7565C507.574 69.702 507.48 69.587 507.414 69.4114C507.317 69.2222 507.274 68.9751 507.283 68.6701C507.359 67.6121 508.321 65.2146 510.168 61.4774C512.028 57.7099 513.643 54.8513 515.013 52.9015L515.091 52.9095C515.501 52.202 516.32 51.6153 517.549 51.1495C517.593 51.1329 517.648 51.1121 517.714 51.0871C519.486 50.4656 520.61 50.7803 521.084 52.0314C521.109 52.0973 521.134 52.1631 521.159 52.2289C521.573 53.6533 521.624 54.9141 521.312 56.0113L517.141 71.034C517.038 71.4245 516.924 71.9194 516.8 72.5187C516.71 72.8789 516.707 73.1687 516.79 73.3882C516.848 73.5419 516.953 73.6528 517.105 73.7209C517.385 73.8655 517.657 73.8879 517.921 73.7881C518.118 73.7133 518.306 73.5794 518.484 73.3864C519.775 71.8929 520.989 70.1277 522.125 68.0908C525.848 61.3581 528.759 54.3686 530.858 47.1223C530.931 46.9188 531.194 46.7187 531.647 46.5221C532.099 46.3254 532.523 46.1522 532.918 46.0025C534.054 45.6222 534.66 45.5308 534.735 45.7283C534.743 45.7503 534.745 45.7874 534.739 45.8396C533.707 49.8706 532.652 53.91 531.576 57.9576C530.491 61.9834 529.362 66.0257 528.189 70.0847C529.239 68.6827 530.138 67.4763 530.884 66.4655C532.06 64.8652 532.987 63.3716 533.666 61.9846C534.231 60.892 534.798 59.5727 535.367 58.0268C535.468 57.7627 535.606 57.5974 535.781 57.5309C535.957 57.4643 536.166 57.4856 536.408 57.5946C536.62 57.69 536.759 57.8255 536.826 58.0011C536.922 58.1903 536.92 58.417 536.82 58.6811C536.303 60.0318 535.815 61.1956 535.357 62.1724C534.83 63.3006 534.285 64.3108 533.719 65.2028C533.167 66.0646 532.52 66.9749 531.779 67.9335C531.131 68.8066 530.381 69.8065 529.527 70.9331C528.674 72.0597 527.769 73.2812 526.812 74.5977C525.332 79.5012 523.772 84.2594 522.131 88.8722C520.513 93.4767 518.77 98.3165 516.903 103.392C516.239 105.149 515.07 107.199 513.397 109.54C512.153 111.291 510.917 112.4 509.688 112.866C509.271 113.024 508.851 113.108 508.428 113.118C507.373 113.116 506.679 112.676 506.346 111.798C506.063 111.052 506.046 109.979 506.294 108.58C506.574 107.068 507.321 104.865 508.533 101.97C509.754 99.098 510.749 96.8885 511.518 95.3419C512.184 93.9851 513.035 92.4575 514.073 90.7588C515.111 89.0601 516.189 87.3339 517.307 85.58C518.074 84.3603 518.875 83.1281 519.709 81.8834C520.55 80.6607 521.386 79.4532 522.214 78.2607C523.562 73.4072 524.977 68.2649 526.458 62.834ZM511.62 108.03C512.328 107.711 513.043 106.95 513.767 105.747C514.491 104.544 515.308 102.427 516.218 99.3968C517.054 96.5698 517.866 93.7771 518.653 91.0189C519.44 88.2607 520.22 85.5176 520.993 82.7897C520.452 83.547 519.904 84.3196 519.349 85.1072C518.816 85.8865 518.309 86.6685 517.828 87.4531C517.142 88.4912 516.293 89.8925 515.28 91.6571C514.253 93.4518 513.262 95.3083 512.308 97.2264C510.706 100.419 509.606 103.245 509.008 105.706C508.777 106.622 508.745 107.299 508.912 107.738C509.203 108.506 510.062 108.62 511.488 108.079C511.532 108.063 511.576 108.046 511.62 108.03Z" fill="#975C28"/>
<path d="M553.077 52.2068C552.322 54.3756 551.41 56.4677 550.341 58.4832C549.798 59.5323 549.131 60.555 548.34 61.5512C547.562 62.5169 546.825 63.4283 546.13 64.2853C545.579 64.9334 544.966 65.3917 544.289 65.6603C543.875 65.825 543.43 65.9132 542.955 65.9251C541.708 65.9657 540.777 65.4644 540.16 64.4212C540.004 64.1549 539.87 63.88 539.757 63.5964C539.445 62.8111 539.332 61.9848 539.417 61.1177C539.523 60.2418 539.826 59.3512 540.325 58.4458C540.838 57.5099 541.345 56.6895 541.848 55.9847C542.771 54.6836 543.454 53.4779 543.897 52.3676C544.361 51.2485 544.679 49.8218 544.849 48.0875C544.938 47.168 544.883 46.4574 544.684 45.9557C544.458 45.3885 544.036 45.0889 543.418 45.0569C542.821 45.0162 542.326 45.0738 541.933 45.2298C541.628 45.3511 541.407 45.5271 541.271 45.7578C539.945 48.0777 538.911 50.4333 538.168 52.8244C537.865 53.7782 537.499 54.7951 537.069 55.875C536.639 56.9549 536.286 58.0045 536.009 59.0238C535.925 59.2589 535.801 59.4221 535.635 59.5132C535.46 59.5825 535.247 59.5537 534.994 59.4267C534.842 59.3609 534.731 59.2408 534.662 59.0663C534.593 58.8917 534.565 58.6628 534.579 58.3796C534.564 57.1983 535.14 55.1511 536.306 52.238C537.495 49.3162 538.688 46.8848 539.887 44.9437C540.561 43.8426 541.199 43.0966 541.802 42.7058C542.26 42.3975 542.708 42.1566 543.144 41.9833C544.78 41.3335 546.386 41.5924 547.961 42.76C548.544 43.2103 548.965 43.7627 549.225 44.4172C549.424 44.9189 549.53 45.4705 549.541 46.072C549.552 47.1792 549.272 48.2878 548.703 49.3979C548.134 50.508 547.477 51.6527 546.733 52.8321C546.177 53.7853 545.63 54.7603 545.092 55.7572C544.544 56.7322 544.126 57.7446 543.835 58.7943C543.545 59.844 543.549 60.9032 543.847 61.9718C543.877 62.1114 543.914 62.2357 543.958 62.3447C544.269 63.1301 544.676 63.4231 545.178 63.2238C545.462 63.1112 545.774 62.8482 546.115 62.435C546.775 61.6171 547.276 60.8752 547.617 60.2091C547.972 59.5126 548.401 58.6855 548.905 57.7278C549.969 55.7646 550.872 53.7139 551.614 51.5756C551.71 51.3099 551.846 51.1424 552.02 51.0731C552.195 51.0038 552.404 51.0217 552.648 51.1269C552.861 51.219 553.002 51.3523 553.072 51.5268C553.171 51.7145 553.173 51.9411 553.077 52.2068Z" fill="#975C28"/>
</svg>
