<svg width="219" height="220" viewBox="0 0 219 220" fill="none" xmlns="http://www.w3.org/2000/svg">
<g filter="url(#filter0_d_178_509)">
<rect x="10.3752" y="10.9211" width="192.669" height="192.669" rx="96.3344" fill="#C89C6D"/>
</g>
<path d="M69.6177 68.833C69.7181 68.833 70.4005 68.8129 71.6648 68.7728L72.6282 68.8029L74.5248 68.833C74.605 69.4752 74.6452 69.9469 74.6452 70.2479C74.6452 70.3483 74.6352 70.6593 74.6151 71.1812C74.595 71.4621 74.5749 72.5359 74.5549 74.4023L74.4947 78.9481L74.5248 81.808L74.314 102.129V103.845C74.314 104.447 74.4545 104.878 74.7355 105.139C75.0165 105.4 75.7691 105.621 76.9933 105.801C77.475 105.862 78.4384 106.022 79.8834 106.283C79.9235 106.484 79.9436 106.674 79.9436 106.855C79.9436 107.076 79.9235 107.557 79.8834 108.3H78.5889C77.7058 108.3 76.4214 108.26 74.7355 108.18C73.7119 108.119 73.0095 108.089 72.6282 108.089C72.1465 108.089 70.3703 108.139 67.2997 108.24C66.9585 108.26 66.6775 108.27 66.4568 108.27H65.9149L65.0418 108.21L64.229 108.27L62.7238 108.21C62.5231 108.21 62.1117 108.24 61.4895 108.3C61.4494 107.858 61.4293 107.517 61.4293 107.276C61.4293 107.056 61.4494 106.725 61.4895 106.283C62.2923 106.062 63.2255 105.841 64.2892 105.621C65.7543 105.32 66.6474 105.029 66.9685 104.748C67.3097 104.447 67.4803 104.055 67.4803 103.574L67.4502 101.526L67.5706 99.2988L67.5405 94.7229L67.5104 93.5488C67.5104 93.3882 67.5305 92.7862 67.5706 91.7425C67.6108 91.2006 67.6308 90.719 67.6308 90.2975C67.6308 90.0366 67.6007 89.2238 67.5405 87.859L67.6609 86.1431C67.5807 84.8386 67.5405 84.0659 67.5405 83.825C67.5405 83.524 67.5506 83.223 67.5706 82.9219L67.6308 82.1693L67.5405 80.1222L67.6308 79.189C67.6509 78.7675 67.6609 78.2055 67.6609 77.5031C67.6609 76.8207 67.6509 75.9878 67.6308 75.0044C66.2059 76.0681 64.5802 77.1318 62.7539 78.1955C62.5532 78.3159 61.6501 78.7273 60.0445 79.4298C59.4023 78.4664 58.9908 77.7439 58.8102 77.2623C60.9376 76.1584 62.3826 75.3456 63.1453 74.8238C64.4097 73.9407 65.7744 72.8369 67.2395 71.5123C67.8616 70.9303 68.6544 70.0372 69.6177 68.833ZM83.9776 93.037H93.4605L98.2772 92.9768C98.9395 92.9768 99.5517 93.017 100.114 93.0972C100.174 94.0405 100.234 94.7429 100.294 95.2045L100.324 95.7163L100.204 97.2818C100.184 97.5226 100.174 97.8236 100.174 98.1849V98.7268L83.8572 98.7569C83.8371 98.1749 83.8271 97.7333 83.8271 97.4323C83.8271 96.9305 83.8471 96.3686 83.8873 95.7464C83.9073 95.4253 83.9174 95.1945 83.9174 95.054L83.8873 93.5488L83.9776 93.037ZM114.654 68.833C114.754 68.833 115.437 68.8129 116.701 68.7728L117.665 68.8029L119.561 68.833C119.641 69.4752 119.682 69.9469 119.682 70.2479C119.682 70.3483 119.671 70.6593 119.651 71.1812C119.631 71.4621 119.611 72.5359 119.591 74.4023L119.531 78.9481L119.561 81.808L119.35 102.129V103.845C119.35 104.447 119.491 104.878 119.772 105.139C120.053 105.4 120.805 105.621 122.03 105.801C122.511 105.862 123.475 106.022 124.92 106.283C124.96 106.484 124.98 106.674 124.98 106.855C124.98 107.076 124.96 107.557 124.92 108.3H123.625C122.742 108.3 121.458 108.26 119.772 108.18C118.748 108.119 118.046 108.089 117.665 108.089C117.183 108.089 115.407 108.139 112.336 108.24C111.995 108.26 111.714 108.27 111.493 108.27H110.951L110.078 108.21L109.265 108.27L107.76 108.21C107.559 108.21 107.148 108.24 106.526 108.3C106.486 107.858 106.466 107.517 106.466 107.276C106.466 107.056 106.486 106.725 106.526 106.283C107.329 106.062 108.262 105.841 109.326 105.621C110.791 105.32 111.684 105.029 112.005 104.748C112.346 104.447 112.517 104.055 112.517 103.574L112.487 101.526L112.607 99.2988L112.577 94.7229L112.547 93.5488C112.547 93.3882 112.567 92.7862 112.607 91.7425C112.647 91.2006 112.667 90.719 112.667 90.2975C112.667 90.0366 112.637 89.2238 112.577 87.859L112.697 86.1431C112.617 84.8386 112.577 84.0659 112.577 83.825C112.577 83.524 112.587 83.223 112.607 82.9219L112.667 82.1693L112.577 80.1222L112.667 79.189C112.687 78.7675 112.697 78.2055 112.697 77.5031C112.697 76.8207 112.687 75.9878 112.667 75.0044C111.242 76.0681 109.617 77.1318 107.79 78.1955C107.59 78.3159 106.686 78.7273 105.081 79.4298C104.439 78.4664 104.027 77.7439 103.847 77.2623C105.974 76.1584 107.419 75.3456 108.182 74.8238C109.446 73.9407 110.811 72.8369 112.276 71.5123C112.898 70.9303 113.691 70.0372 114.654 68.833ZM149.064 68.9835L150.177 68.9534C150.318 68.9534 150.679 68.9635 151.261 68.9835C150.418 73.0175 149.806 75.3556 149.425 75.9979C149.184 76.3993 148.943 76.62 148.702 76.6602C146.294 76.7605 145.019 76.8107 144.879 76.8107H144.066L142.139 76.8408C141.818 76.8408 141.337 76.8207 140.694 76.7806C139.009 76.7204 137.784 76.6903 137.022 76.6903C136.801 76.6903 136.47 76.7003 136.028 76.7204C135.948 77.2823 135.908 77.6837 135.908 77.9246L135.757 81.8381L135.637 84.668C136.5 84.2465 137.403 83.9354 138.346 83.7347C139.31 83.514 140.303 83.4036 141.327 83.4036C142.832 83.4036 144.297 83.6946 145.722 84.2766C147.167 84.8586 148.431 85.6815 149.515 86.7452C150.318 87.548 151.101 88.6217 151.863 89.9664C152.405 90.9297 152.706 91.6522 152.766 92.1339C153.007 93.9 153.128 94.8333 153.128 94.9336C153.128 96.479 152.957 97.8939 152.616 99.1783C152.295 100.443 151.572 101.858 150.448 103.423C149.324 104.989 148.311 106.072 147.408 106.674C146.043 107.598 144.558 108.24 142.952 108.601C141.367 108.982 139.42 109.173 137.112 109.173C134.403 109.173 132.135 108.521 130.308 107.216C129.225 106.434 128.683 105.45 128.683 104.266C128.683 103.403 128.994 102.66 129.616 102.038C130.258 101.416 131.041 101.105 131.964 101.105C133.389 101.105 134.834 102.018 136.299 103.845C137.162 104.948 137.814 105.621 138.256 105.862C138.938 106.243 139.711 106.434 140.574 106.434C141.718 106.434 142.832 106.092 143.916 105.41C145.019 104.708 145.913 103.654 146.595 102.249C147.297 100.824 147.649 99.4995 147.649 98.2752C147.649 96.1679 146.926 94.3616 145.481 92.8564C144.056 91.3311 142.35 90.5685 140.363 90.5685C139.34 90.5685 138.447 90.6889 137.684 90.9297C137.303 91.0501 136.59 91.4616 135.547 92.164L134.252 93.0069C134.011 93.1073 133.78 93.1574 133.56 93.1574C133.259 93.1574 133.008 93.0772 132.807 92.9166C132.667 92.7761 132.596 92.5855 132.596 92.3446L132.958 82.8015C132.958 82.38 132.978 82.0087 133.018 81.6876C133.058 81.3665 133.088 80.5336 133.108 79.189C133.148 77.8242 133.188 76.8508 133.229 76.2688C133.289 75.4058 133.329 74.6933 133.349 74.1314C133.349 73.73 133.369 73.3386 133.409 72.9573C133.429 72.6964 133.439 72.5057 133.439 72.3853L133.409 71.2715C133.409 70.8099 133.73 70.4787 134.373 70.278C134.714 70.1777 136.319 70.1275 139.189 70.1275L146.113 70.2178C147.217 70.2178 147.92 70.1476 148.221 70.0071C148.542 69.8465 148.823 69.5053 149.064 68.9835ZM30.5019 144.405L30.5371 143.211C30.7595 143.141 31.1517 143.053 31.7136 142.948C32.6151 142.772 33.1595 142.614 33.3468 142.474C33.5458 142.333 33.7858 141.994 34.0668 141.455L37.6141 132.165L41.7761 121.242C42.1624 121.254 42.5312 121.26 42.8824 121.26H43.6727L43.8307 121.576L46.8863 128.811C47.577 130.345 48.1975 131.838 48.7478 133.289C49.298 134.729 49.7722 135.906 50.1702 136.819C50.4044 137.369 50.7263 138.195 51.1361 139.295C51.3468 139.892 51.6687 140.641 52.1019 141.543C52.3361 142.035 52.5117 142.321 52.6287 142.403C52.8395 142.579 53.179 142.696 53.6473 142.755C54.1273 142.813 54.6424 142.948 55.1926 143.159C55.2512 143.545 55.2805 143.832 55.2805 144.019C55.2805 144.101 55.2746 144.23 55.2629 144.405C54.3966 144.405 53.4424 144.364 52.4005 144.282C51.3585 144.2 50.4219 144.16 49.5907 144.16C48.6658 144.16 47.9985 144.171 47.5888 144.195L44.6034 144.353L43.7429 144.388C43.7429 143.978 43.7605 143.586 43.7956 143.211L45.7449 142.79C46.3302 142.638 46.6697 142.52 46.7634 142.439C46.8805 142.321 46.939 142.187 46.939 142.035C46.939 141.882 46.9097 141.724 46.8512 141.561L46.1488 139.84L44.7614 136.398L38.0531 136.38C37.8073 136.942 37.298 138.318 36.5253 140.507C36.3029 141.127 36.1917 141.549 36.1917 141.771C36.1917 142.076 36.2736 142.292 36.4375 142.421C36.7068 142.643 37.2219 142.801 37.9829 142.895C38.0883 142.919 38.5039 142.983 39.2297 143.088C39.2414 143.51 39.2473 143.802 39.2473 143.966C39.2473 144.095 39.2356 144.23 39.2122 144.37C38.4863 144.37 36.7536 144.271 34.0141 144.072L33.2941 144.195C32.4278 144.335 31.6024 144.405 30.818 144.405H30.5019ZM38.7556 134.536C41.4951 134.571 43.1107 134.589 43.6024 134.589L44.0414 134.571C43.6902 133.529 43.2336 132.318 42.6717 130.936C42.1097 129.543 41.6531 128.483 41.3019 127.758L38.7556 134.536ZM55.6844 144.335C55.6844 143.972 55.7195 143.557 55.7897 143.088C55.8951 143.065 56.1409 143.03 56.5273 142.983L57.2824 142.842C58.02 142.714 58.5761 142.573 58.9507 142.421L59.179 138.031L59.1087 134.483L59.1263 133.377L59.179 128.46L59.1614 126.932V126.177C59.1614 124.784 59.0619 123.847 58.8629 123.367C58.7926 123.332 58.6873 123.309 58.5468 123.297C58.4414 123.285 58.3302 123.268 58.2131 123.244C57.6746 123.151 57.1887 123.092 56.7556 123.069L56.4922 122.999C56.1644 122.963 55.9244 122.917 55.7722 122.858C55.737 122.519 55.7195 122.302 55.7195 122.208C55.7195 122.068 55.7546 121.875 55.8248 121.629C56.0824 121.57 56.3575 121.541 56.6502 121.541C57.3526 121.541 58.0785 121.57 58.8278 121.629C60.9468 121.781 63.2531 121.857 65.7468 121.857L71.4014 121.769L75.5634 121.804C78.6775 121.804 80.8785 121.728 82.1663 121.576C82.6697 121.518 83.0151 121.488 83.2024 121.488C83.4248 121.488 83.7878 121.512 84.2912 121.559C84.2795 122.027 84.2502 122.442 84.2034 122.805C82.6229 123.11 81.5809 123.408 81.0775 123.701C80.9839 123.935 80.937 124.597 80.937 125.685V126.037L80.9546 126.915L80.9721 130.831L80.9546 133.921L80.9897 136.222V138.716L81.0248 140.788C81.0248 141.198 81.0131 141.666 80.9897 142.193C81.2356 142.263 81.4639 142.321 81.6746 142.368C82.7751 142.602 83.6063 142.842 84.1682 143.088L84.2209 144.318L83.3956 144.335C83.2434 144.335 83.0385 144.323 82.7809 144.3L81.4639 144.23C80.5039 144.124 78.9702 144.072 76.8629 144.072C76.1721 144.072 75.5341 144.095 74.9487 144.142L73.1048 144.3C72.9292 144.3 72.7302 144.265 72.5078 144.195C72.5195 143.633 72.5487 143.252 72.5956 143.053L73.7897 142.772L74.4746 142.649C75.2121 142.532 75.6921 142.433 75.9146 142.351C76.0668 141.777 76.1429 138.136 76.1429 131.428L76.0375 123.824C75.6629 123.789 75.1946 123.765 74.6326 123.754L66.4844 123.666L66.3263 123.648C66.2912 123.637 66.2502 123.631 66.2034 123.631C66.1214 123.631 66.0278 123.637 65.9224 123.648L65.1497 123.666C64.5058 123.666 64.0902 123.707 63.9029 123.789C63.8444 125.006 63.8151 126.072 63.8151 126.985L63.8678 136.029V141.104C63.8678 141.748 63.8853 142.181 63.9204 142.403C63.9907 142.485 64.1956 142.544 64.5351 142.579L65.3429 142.702C65.6824 142.749 66.0102 142.801 66.3263 142.86L66.9761 143C67.1283 143.024 67.257 143.077 67.3624 143.159C67.3975 143.428 67.4151 143.609 67.4151 143.703C67.4151 143.855 67.3917 144.066 67.3448 144.335L66.2561 144.353C65.8112 144.353 65.1848 144.318 64.377 144.247L63.06 144.23L62.1644 144.142L60.3205 144.124C59.8522 144.124 59.3136 144.165 58.7048 144.247L57.5634 144.335H55.6844ZM86.539 122.841L86.5214 121.506L90.7185 121.769L92.5975 121.752H93.2824C93.9965 121.752 95.1146 121.711 96.6365 121.629C97.5029 121.57 98.0473 121.541 98.2697 121.541C99.7448 121.541 100.857 121.623 101.606 121.787C102.754 122.021 103.661 122.396 104.328 122.911C105.007 123.426 105.587 124.163 106.067 125.123C106.558 126.072 106.804 126.956 106.804 127.775C106.804 129.812 106.16 131.469 104.873 132.745C103.597 134.009 101.981 134.641 100.026 134.641C99.3468 134.641 98.697 134.56 98.0765 134.396C97.4677 134.232 96.8941 133.986 96.3555 133.658C96.297 133.319 96.2677 132.85 96.2677 132.253C96.5487 132.277 96.8004 132.294 97.0229 132.306C97.257 132.318 97.4619 132.323 97.6375 132.323C98.6326 132.323 99.4697 132.048 100.149 131.498C101.05 130.784 101.501 129.625 101.501 128.021C101.501 126.874 101.302 125.937 100.904 125.211C100.517 124.474 100.055 123.976 99.5165 123.719C98.7673 123.367 97.9243 123.192 96.9877 123.192C96.1097 123.192 95.4834 123.321 95.1087 123.578C95.0151 123.73 94.9448 123.877 94.898 124.017L95.0209 132.288L94.9858 132.991L95.0385 133.728C95.0502 133.892 95.056 134.132 95.056 134.448V135.888L95.0736 138.189L95.0385 140.928C95.0385 141.315 95.0736 141.836 95.1438 142.491L98.6385 142.93C98.6853 143.211 98.7087 143.434 98.7087 143.598C98.7087 143.773 98.6794 144.019 98.6209 144.335C98.3282 144.382 98.1058 144.405 97.9536 144.405C97.5907 144.405 96.9058 144.364 95.899 144.282C94.8921 144.189 93.7448 144.142 92.457 144.142C91.0053 144.142 89.6238 144.236 88.3126 144.423C88.0902 144.458 87.739 144.487 87.259 144.511C87.2121 144.171 87.1887 143.92 87.1887 143.756C87.1887 143.65 87.2004 143.486 87.2238 143.264L88.2951 142.913C89.0326 142.69 89.6707 142.421 90.2092 142.105C90.3146 141.765 90.3673 141.455 90.3673 141.174C90.3673 141.057 90.3614 140.922 90.3497 140.77C90.338 140.407 90.3321 139.898 90.3321 139.242L90.2795 134.308L90.0863 128.741C90.0043 126.095 89.9399 124.667 89.8931 124.456C89.8112 124.117 89.6707 123.853 89.4717 123.666C89.2726 123.467 88.939 123.326 88.4707 123.244C87.499 123.081 86.8551 122.946 86.539 122.841ZM108.525 121.664C109.193 121.699 109.772 121.752 110.264 121.822C111.189 121.951 112.26 122.015 113.477 122.015C113.899 122.015 114.982 121.98 116.726 121.91C119.337 121.804 121.696 121.752 123.803 121.752L126.982 121.717C127.696 121.717 128.75 121.804 130.143 121.98C130.354 122.214 130.459 122.53 130.459 122.928V126.546L130.494 127.266C130.494 127.336 130.488 127.441 130.477 127.582L129.757 127.617C129.663 127.617 129.464 127.605 129.159 127.582C129.054 127.348 128.914 127.002 128.738 126.546L128.036 125.299C127.766 124.772 127.392 124.234 126.912 123.683C126.619 123.601 126.244 123.555 125.788 123.543C125.671 123.531 125.314 123.502 124.717 123.455C123.628 123.361 122.457 123.315 121.204 123.315C119.776 123.315 118.5 123.338 117.376 123.385C117.341 123.678 117.323 124.831 117.323 126.844L117.358 129.795V132.007C117.651 132.042 117.903 132.06 118.114 132.06C120.209 132.06 121.702 132.019 122.592 131.937C123.481 131.855 124.032 131.744 124.242 131.603C124.453 131.451 124.64 131.194 124.804 130.831C124.91 130.573 125.115 129.713 125.419 128.249L125.647 128.232L126.666 128.249C126.713 129.291 126.736 130.081 126.736 130.62C126.736 131.849 126.724 132.64 126.701 132.991C126.689 133.342 126.683 133.617 126.683 133.816C126.683 134.132 126.701 134.641 126.736 135.344C126.771 136.035 126.789 136.55 126.789 136.889V137.276H125.542C125.495 137.088 125.407 136.702 125.278 136.117C125.044 135.028 124.834 134.349 124.646 134.08C124.506 133.869 124.272 133.711 123.944 133.605C123.71 133.523 122.843 133.482 121.345 133.482C119.577 133.482 118.248 133.529 117.358 133.623C117.347 133.927 117.341 134.126 117.341 134.22C117.341 135.613 117.364 136.772 117.411 137.697L117.376 141.49C117.376 141.935 117.534 142.24 117.85 142.403C118.33 142.649 119.799 142.772 122.258 142.772C123.885 142.772 125.267 142.649 126.402 142.403C127.187 142.228 127.877 141.836 128.475 141.227C129.271 140.442 129.932 139.342 130.459 137.925C130.822 137.89 131.12 137.873 131.355 137.873C131.483 137.873 131.677 137.879 131.934 137.89C131.899 138.183 131.87 138.429 131.846 138.628L131.741 139.155L131.091 142.474L130.775 144.476C130.014 144.511 129.411 144.528 128.966 144.528C128.311 144.528 126.56 144.47 123.716 144.353C121.714 144.271 119.302 144.23 116.48 144.23C115.076 144.23 113.349 144.288 111.3 144.405H110.562L108.437 144.476V143.264C108.66 143.205 109.105 143.141 109.772 143.071C110.99 142.93 111.833 142.743 112.301 142.509C112.43 142.169 112.494 141.742 112.494 141.227C112.494 141.028 112.488 140.688 112.477 140.208L112.494 139.664L112.441 133.043L112.459 131.059L112.371 128.249L112.389 126.265L112.231 124.087C112.231 124.029 112.219 123.912 112.196 123.736C112.078 123.607 111.903 123.525 111.669 123.49C111.54 123.467 111.364 123.432 111.142 123.385C110.475 123.244 109.831 123.162 109.21 123.139C108.988 123.127 108.73 123.104 108.437 123.069L108.525 121.664ZM143.647 127.74L139.959 137.557C139.011 140.109 138.537 141.502 138.537 141.736C138.537 142.087 138.677 142.345 138.958 142.509C139.239 142.673 139.696 142.796 140.328 142.878C140.422 142.901 140.837 142.965 141.575 143.071L141.593 143.949C141.593 144.089 141.581 144.224 141.557 144.353C140.832 144.353 139.772 144.3 138.379 144.195L136.359 144.054L135.639 144.177C134.796 144.318 133.866 144.388 132.847 144.388L132.882 143.194C132.999 143.147 133.392 143.059 134.059 142.93C134.972 142.755 135.552 142.573 135.797 142.386C136.055 142.187 136.371 141.631 136.746 140.718C137.12 139.793 138.11 137.141 139.714 132.762L142.049 126.757L144.121 121.225L146.018 121.242C146.381 121.957 147.376 124.31 149.003 128.302L149.477 129.338C150.004 130.509 150.742 132.341 151.69 134.835L152.252 136.187C152.65 137.123 153.06 138.154 153.481 139.278C153.926 140.483 154.295 141.344 154.588 141.859C154.88 142.362 155.284 142.643 155.799 142.702C156.432 142.784 157.011 142.93 157.538 143.141C157.596 143.527 157.626 143.82 157.626 144.019L157.608 144.388C156.742 144.388 155.758 144.347 154.658 144.265C153.675 144.183 152.914 144.142 152.375 144.142C150.912 144.142 149.483 144.195 148.09 144.3L146.088 144.37C146.088 143.949 146.106 143.557 146.141 143.194C146.199 143.17 146.627 143.088 147.423 142.948C148.383 142.69 148.933 142.526 149.074 142.456C149.214 142.386 149.284 142.24 149.284 142.017C149.284 141.806 148.851 140.665 147.985 138.593L147.195 136.608C145.368 131.761 144.186 128.805 143.647 127.74ZM180.578 143.317C180.601 143.551 180.613 143.726 180.613 143.843C180.613 143.949 180.601 144.142 180.578 144.423C179.442 144.423 178.348 144.364 177.294 144.247L176.574 144.23L175.995 144.177C175.479 144.142 175.064 144.124 174.748 144.124C174.268 144.124 172.775 144.236 170.27 144.458L169.585 144.423C169.479 144.423 169.327 144.429 169.128 144.44C169.07 144.183 169.04 143.75 169.04 143.141C169.169 143.071 169.596 142.96 170.322 142.807C171.388 142.585 172.178 142.321 172.693 142.017L172.605 138.716L172.64 135.256L172.588 134.08L172.605 133.605L171.341 133.57C170.603 133.57 170.082 133.652 169.778 133.816C169.485 133.968 169.222 134.22 168.988 134.571C168.765 134.922 168.209 135.947 167.319 137.644C166.441 139.33 165.716 140.823 165.142 142.122L164.088 144.44L162.209 144.265L157.485 144.458H157.239L156.502 144.44C156.49 144.277 156.484 144.142 156.484 144.037C156.484 143.873 156.525 143.697 156.607 143.51C156.876 143.404 157.269 143.27 157.784 143.106C158.404 142.907 158.896 142.585 159.259 142.14C159.634 141.695 160.529 140.284 161.946 137.908C163.69 134.969 164.884 133.307 165.528 132.921C162.121 132.019 160.418 130.193 160.418 127.441C160.418 125.732 161.074 124.31 162.385 123.174C163.708 122.039 166.008 121.471 169.286 121.471C170.246 121.471 171.136 121.518 171.956 121.611C173.044 121.717 174.332 121.769 175.819 121.769L176.504 121.752L177.136 121.734C178.588 121.734 179.659 121.787 180.35 121.892C180.385 121.998 180.402 122.062 180.402 122.085V122.542C180.402 122.893 180.391 123.092 180.367 123.139C180.145 123.186 179.794 123.227 179.314 123.262C178.576 123.321 177.95 123.408 177.435 123.525C177.376 124.193 177.347 125.721 177.347 128.109L177.435 132.727L177.417 134.361L177.487 136.872L177.47 138.382C177.47 140.817 177.511 142.216 177.593 142.579C178.014 142.743 178.582 142.872 179.296 142.965C179.893 143.047 180.32 143.164 180.578 143.317ZM172.676 131.955L172.64 130.181L172.623 129.373L172.64 127.459L172.605 126.019V123.315C172.277 123.256 171.792 123.227 171.148 123.227C169.345 123.227 168.028 123.566 167.196 124.245C166.365 124.913 165.95 126.042 165.95 127.635C165.95 129.086 166.383 130.175 167.249 130.901C168.127 131.627 169.52 131.99 171.429 131.99L172.676 131.955Z" fill="white"/>
<defs>
<filter id="filter0_d_178_509" x="0.099571" y="0.645469" width="218.358" height="218.358" filterUnits="userSpaceOnUse" color-interpolation-filters="sRGB">
<feFlood flood-opacity="0" result="BackgroundImageFix"/>
<feColorMatrix in="SourceAlpha" type="matrix" values="0 0 0 0 0 0 0 0 0 0 0 0 0 0 0 0 0 0 127 0" result="hardAlpha"/>
<feOffset dx="2.56892" dy="2.56892"/>
<feGaussianBlur stdDeviation="6.4223"/>
<feComposite in2="hardAlpha" operator="out"/>
<feColorMatrix type="matrix" values="0 0 0 0 0 0 0 0 0 0 0 0 0 0 0 0 0 0 0.17 0"/>
<feBlend mode="normal" in2="BackgroundImageFix" result="effect1_dropShadow_178_509"/>
<feBlend mode="normal" in="SourceGraphic" in2="effect1_dropShadow_178_509" result="shape"/>
</filter>
</defs>
</svg>
