<svg width="184" height="193" viewBox="0 0 184 193" fill="none" xmlns="http://www.w3.org/2000/svg">
<path d="M103.775 17.5473C105.008 17.6593 106.353 17.7713 107.697 17.9953C96.6042 15.419 85.2871 16.3152 77.6677 19.5635C74.5303 20.9077 71.9532 22.8119 70.3845 24.9402C68.8158 27.0684 68.1435 29.5327 68.8158 32.221C69.7122 36.5895 73.746 41.7421 82.0377 47.1187C84.7269 48.9109 84.2787 51.8233 83.7184 55.1837C84.8389 54.0635 85.7353 52.8314 86.0715 51.5993C86.5197 50.0311 86.0715 48.3509 84.5028 46.4467C83.2702 45.1025 81.7015 43.9824 80.1328 42.7502C75.7629 39.2778 71.2809 35.8054 71.7291 29.4207C71.7291 29.1967 71.7291 28.9726 71.8411 28.6366C72.5134 25.0522 75.6508 21.8038 81.0292 19.6755C86.4076 17.7713 94.027 16.7632 103.775 17.5473ZM112.963 19.4515C109.714 18.8915 106.689 18.4434 103.775 18.2194C94.027 17.3233 86.5197 18.3314 81.2533 20.3476C76.099 22.3639 73.0737 25.5002 72.5134 28.8606C72.5134 29.0846 72.4014 29.3087 72.4014 29.5327C71.8411 35.4694 76.3231 38.9418 80.469 42.3022C82.0377 43.5343 83.6064 44.7665 84.951 46.1106C86.7438 48.1269 87.0799 50.1431 86.6317 51.8233C86.1835 53.5035 84.951 55.0717 83.2702 56.4158L82.5979 56.9759L82.71 56.0798C82.822 55.7437 82.822 55.4077 82.822 55.1837C83.3823 52.0473 83.8305 49.247 81.4774 47.6788C73.0737 42.0782 68.9278 36.9256 68.0314 32.333C67.4712 29.4207 68.1435 26.7324 69.7122 24.4921C71.3929 22.2518 73.9701 20.3476 77.2195 18.8915C86.1835 14.971 100.078 14.4109 112.963 18.6674L117.221 20.1236L112.963 19.4515Z" fill="#975C28"/>
<path d="M82.3746 53.1684C82.4867 51.4883 82.1505 49.8081 78.9011 47.6798C76.6601 46.4477 73.9709 45.6636 71.2817 44.8795C69.0407 44.2074 66.7997 43.5353 65.0069 42.6392C64.6708 42.5272 64.3346 42.3032 64.1105 42.0792C63.6623 41.6311 63.2141 41.1831 62.99 40.735C62.7659 40.1749 62.6538 39.6149 62.8779 39.1668C62.8779 39.0548 62.99 38.9428 63.102 38.8308C63.3261 38.6068 63.5503 38.3827 63.7744 38.3827C64.1105 38.2707 64.4466 38.2707 64.7828 38.3827C65.1189 38.4947 65.4551 38.6068 65.6792 38.8308C65.9033 38.9428 66.1274 39.1668 66.2394 39.3909C66.2394 39.2788 66.2394 39.0548 66.1274 38.9428C66.0153 38.6068 65.7912 38.1587 65.343 37.9347C65.1189 37.7107 64.6708 37.5986 64.3346 37.5986C63.8864 37.5986 63.4382 37.7107 63.102 37.8227C62.7659 37.9347 62.5418 38.2707 62.3177 38.4947C62.0936 38.8308 61.9815 39.1668 61.8695 39.3909C60.861 44.2074 66.0153 45.5516 71.3937 47.0077C76.0998 48.3519 80.918 49.584 82.3746 53.1684ZM82.8228 54.2886C82.8228 54.5126 82.7108 54.7366 82.7108 54.9607L82.3746 57.985L82.0385 54.9607C81.5903 50.4801 76.3239 49.024 71.1696 47.7918C65.4551 46.3357 60.0767 44.8795 61.1972 39.5029C61.3092 39.0548 61.5333 38.6068 61.7574 38.2707C61.9815 37.9347 62.3177 37.5986 62.7659 37.3746C63.2141 37.1506 63.7744 37.0386 64.3346 37.0386C64.8949 37.0386 65.4551 37.1506 65.7912 37.4866C66.3515 37.9347 66.5756 38.3827 66.7997 38.8308C67.0238 39.5029 66.9117 40.1749 66.7997 40.623L66.4635 41.7431L66.1274 40.623C65.9033 40.0629 65.6792 39.6149 65.231 39.2788C65.0069 39.0548 64.7828 38.9428 64.5587 38.9428C64.3346 38.8308 64.1105 38.8308 63.9984 38.9428C63.8864 38.9428 63.7743 39.0548 63.5502 39.2788C63.5502 39.2788 63.4382 39.3908 63.4382 39.5029C63.3261 39.8389 63.3261 40.1749 63.5502 40.511C63.7743 40.959 63.9985 41.2951 64.4467 41.6311C64.6708 41.8551 64.8948 41.9672 65.231 42.0792C67.0238 42.8633 69.1527 43.5353 71.3937 44.2074C74.0829 44.9915 76.8842 45.8876 79.1252 47.1198C83.4951 49.8081 83.159 52.1603 82.8228 54.2886Z" fill="#975C28"/>
<path d="M50.8885 35.8059C49.6559 35.8059 48.3113 36.1419 47.0788 36.702C52.121 37.038 55.2584 42.0786 58.3958 46.8952C61.1971 51.2637 63.8863 55.4081 67.4719 55.8562C69.3767 56.1922 71.3936 56.0802 73.2985 55.8562C75.8756 55.6322 78.4528 55.4081 80.5817 56.3043C78.6769 53.5039 75.8756 52.8319 72.6262 52.1598C70.7213 51.7117 68.8165 51.3757 66.7996 50.4796C64.1104 49.2474 62.5417 46.8952 60.6368 44.0948C59.4043 42.1906 57.9476 40.1744 56.0428 38.1581C54.4741 36.4779 52.6813 35.8059 50.8885 35.8059ZM45.398 36.814C47.1908 35.8059 48.9836 35.1338 50.8885 35.1338C52.7933 35.1338 54.6982 35.9179 56.7151 37.7101C58.732 39.7263 60.0766 41.8546 61.4212 43.7588C63.214 46.4471 64.7827 48.6874 67.2478 49.9195C69.1526 50.8156 71.0575 51.1517 72.9623 51.5997C76.66 52.3838 79.9094 53.1679 81.8143 56.9763L82.3745 57.9844L81.3661 57.4244C79.1251 56.0802 76.3238 56.3043 73.4105 56.5283C71.3936 56.7523 69.2647 56.8643 67.3598 56.5283C63.4381 56.0802 60.6368 51.7117 57.8356 47.2312C54.4741 41.9666 51.0005 36.59 45.5101 37.374L43.8293 37.7101L45.398 36.814Z" fill="#975C28"/>
<path d="M33.0723 52.7189C34.641 50.9267 37.3302 49.9186 41.0278 51.0387H41.1399C43.3809 52.7189 45.7339 55.9673 48.087 59.1036C51.3364 63.5842 54.6979 67.9527 57.6112 68.1767L58.7317 68.2887L57.8353 68.7367C56.0425 69.6329 54.2497 69.6329 52.569 69.1848C50.5521 68.6247 48.8713 67.2806 47.8629 65.8244C47.3026 64.9283 46.7424 63.8082 46.1821 62.688C45.846 61.904 45.5098 61.2319 45.0616 60.4478C43.605 57.6475 41.7001 55.2952 38.4507 56.1913C40.9158 56.4153 41.5881 57.3114 42.4845 58.6556C42.7086 58.9916 42.9327 59.3277 43.2688 59.7757L43.4929 60.1118L43.1568 60.3358C39.0109 62.688 36.0976 62.6881 34.1928 61.6799C32.7361 60.7838 31.8397 59.2156 31.7277 57.5354C31.3915 55.8553 31.8397 54.0631 33.0723 52.7189ZM40.6917 51.7108C37.3302 50.7027 34.8651 51.5988 33.5205 53.279C32.512 54.5111 32.0638 56.0793 32.1759 57.5354C32.2879 58.9916 32.9602 60.3358 34.3048 61.1199C35.9856 62.016 38.5627 62.016 42.2604 59.9997C42.0363 59.7757 41.9242 59.4397 41.7001 59.2156C40.8037 57.7595 40.1314 56.7514 36.6579 56.9754L35.2012 57.0874L36.5458 56.4153C41.2519 53.951 43.717 56.8634 45.5098 60.3358C45.958 61.1199 46.2942 61.7919 46.6303 62.576C47.1906 63.6962 47.7508 64.8163 48.3111 65.6004C49.2075 66.9445 50.8882 68.1767 52.681 68.7367C53.9136 69.0728 55.2582 69.1848 56.6028 68.7367C53.6895 67.7286 50.6641 63.6962 47.6388 59.5517C45.1737 56.4153 42.9327 53.391 40.6917 51.7108Z" fill="#975C28"/>
<path d="M47.5267 67.8419C50.6641 69.6341 52.3449 70.5302 57.8353 68.738L58.2835 68.6259V69.074C58.2835 69.298 58.2835 69.6341 58.2835 69.9701C58.2835 70.7542 58.3956 71.6503 58.2835 73.3305V73.5545L58.0594 73.6665C55.4823 74.7867 52.7931 75.1227 50.1039 74.5626C47.3026 74.0026 44.5014 72.6584 41.8122 70.5302C41.2519 70.0821 40.6917 69.7461 40.1314 69.41C39.123 68.85 38.1145 68.5139 37.2181 68.5139C36.3217 68.5139 35.6494 68.85 35.0892 69.6341C34.9771 69.7461 34.8651 69.8581 34.8651 70.0821C34.753 70.4182 34.753 70.6422 34.753 70.9782C34.753 71.4263 34.8651 71.7623 35.0892 72.0983C35.3133 72.4344 35.8735 72.7704 36.5458 72.9945C37.3302 73.2185 38.3386 73.4425 39.7953 73.4425H41.2519L39.9073 74.1146C38.2266 74.8987 36.4338 75.2347 34.9771 75.0107C33.8566 74.8987 32.9602 74.4506 32.1759 73.8906C31.3915 73.2185 30.9433 72.4344 30.7192 71.4263C30.6072 70.4182 30.7192 69.41 31.1674 68.1779C32.1759 66.4977 33.6325 65.3776 35.2012 64.8175C36.882 64.2574 38.6748 64.1454 40.4676 64.8175C43.8291 65.7136 45.958 66.9457 47.5267 67.8419ZM57.6112 69.522C52.1208 71.2022 50.44 70.3061 47.1906 68.4019C45.6219 67.5058 43.605 66.3857 40.4676 65.1535C38.8989 64.5935 37.1061 64.5935 35.6494 65.1535C34.1928 65.7136 32.8482 66.7217 31.9518 68.2899C31.5036 69.41 31.3915 70.3061 31.5036 71.2022C31.6156 72.0983 32.0638 72.7704 32.7361 73.2185C33.4084 73.7785 34.1928 74.1146 35.2012 74.2266C36.0976 74.3386 37.2181 74.2266 38.3386 74.0026C37.5543 73.8906 36.994 73.7785 36.4338 73.5545C35.6494 73.2185 35.0892 72.8824 34.753 72.4344C34.4169 71.9863 34.1928 71.4263 34.1928 70.8662C34.1928 70.5302 34.3048 70.0821 34.4169 69.7461C34.5289 69.522 34.641 69.41 34.753 69.186C35.4253 68.1779 36.4338 67.8419 37.4422 67.8419C38.4507 67.8419 39.5712 68.1779 40.6917 68.85C41.2519 69.186 41.8122 69.522 42.4845 69.9701C45.0616 71.9863 47.7508 73.3305 50.44 73.8906C52.9051 74.3386 55.4823 74.2266 57.7233 73.1065C57.8353 71.6503 57.7233 70.7542 57.7233 69.9701C57.6112 69.8581 57.6112 69.7461 57.6112 69.522Z" fill="#975C28"/>
<path fill-rule="evenodd" clip-rule="evenodd" d="M97.3894 116.455C102.432 118.247 112.292 121.608 118.007 134.041C114.645 122.28 103.776 117.799 97.8376 115.559C97.6135 115.895 97.5014 116.231 97.3894 116.455ZM57.9478 69.0737C57.9478 78.1468 56.9393 81.3952 53.2417 85.4276C44.838 94.7247 50.5525 105.478 56.4911 116.231C59.6285 121.944 63.6623 130.009 62.99 135.833C62.3177 141.882 52.1212 140.65 57.1634 132.921C63.8864 123.176 71.842 117.463 80.2457 115.447L79.5734 114.551C72.0661 116.455 63.8864 121.496 55.4827 131.241C51.0007 136.17 52.7935 142.89 59.9647 141.882C62.878 141.21 64.3346 139.642 65.4551 137.29C66.3515 134.937 66.3515 132.921 65.6792 131.353C65.9033 132.697 65.119 134.825 64.3346 135.497C63.6623 133.369 64.4467 131.465 64.8949 130.569C63.8864 126.984 61.8695 122.392 58.6201 116.455C56.8273 113.095 54.026 108.838 51.673 104.022C49.544 99.5413 49.5441 95.2848 50.8887 90.8043C52.6814 84.8676 59.6285 83.5234 57.9478 69.0737Z" fill="#975C28"/>
<path fill-rule="evenodd" clip-rule="evenodd" d="M65.9036 79.939C64.3349 81.3951 64.3349 82.9633 64.7831 84.6435C64.7831 83.5234 64.7831 82.0672 65.9036 79.939Z" fill="#975C28"/>
<path fill-rule="evenodd" clip-rule="evenodd" d="M82.1501 58.8797L82.9345 58.4316C85.5116 62.6881 83.3827 66.1605 81.3658 68.7368C81.3658 69.4089 81.1417 69.6329 80.3573 69.5209C80.1332 69.745 79.7971 70.193 79.4609 70.6411C79.4609 70.7531 80.2453 70.9771 80.6935 70.9771C80.2453 71.2011 79.573 71.0891 79.3489 70.9771C78.2284 72.0972 78.0043 73.2174 78.4525 75.3456C78.5645 76.0177 78.5645 76.5777 77.6681 76.6898C77.2199 76.8018 76.9958 76.6898 76.7717 76.6898C77.1079 76.6898 77.2199 76.5777 77.5561 76.5777C78.2284 76.3537 78.2284 75.9057 78.0043 75.3456C76.9958 71.8732 78.6766 70.9771 80.1332 69.1849C80.3573 68.2888 80.9176 68.7368 81.1417 68.5128C82.3742 66.9446 85.0634 63.1362 82.1501 58.8797Z" fill="#975C28"/>
<path fill-rule="evenodd" clip-rule="evenodd" d="M75.5394 77.3623C75.2033 77.9224 75.0912 78.1464 75.0912 78.5945C75.0912 79.0425 74.643 79.1546 74.0828 79.0425C74.0828 79.8266 73.6346 79.9386 72.7382 79.8266C72.0659 79.8266 71.9538 80.4987 71.8418 80.9468C71.6177 82.4029 70.2731 83.299 68.5923 82.739C65.567 81.3948 62.7657 77.3623 62.8778 74.002C63.5501 77.3623 64.6706 79.8266 68.4803 81.8429C69.2646 82.2909 70.9454 82.1789 71.3936 80.6107C71.6177 79.8266 72.1779 79.4906 72.5141 79.4906C73.5225 79.6026 73.5225 79.3786 73.7466 78.8185C74.1948 78.7065 74.8671 79.0425 74.7551 78.4825C74.9792 78.0344 75.2033 77.6984 75.5394 77.3623Z" fill="#975C28"/>
<path fill-rule="evenodd" clip-rule="evenodd" d="M76.3236 76.691C76.0995 76.2428 75.3152 76.2428 75.0911 76.579C75.5393 76.4669 75.9875 76.4669 76.3236 76.691Z" fill="#975C28"/>
<path fill-rule="evenodd" clip-rule="evenodd" d="M75.4267 75.0099C74.4182 74.6739 74.0821 75.794 74.6423 76.3541C74.6423 75.57 74.7544 75.122 75.4267 75.0099Z" fill="#975C28"/>
<path d="M53.1298 91.4766C51.6731 97.1892 52.7936 100.438 55.4828 105.478C58.8443 111.639 61.3094 116.455 63.7745 123.4L63.5504 123.512C61.1974 116.567 58.06 111.975 54.6985 105.814C52.1213 101.11 51.1129 96.8532 52.9057 91.4766H53.1298Z" fill="#975C28"/>
<path fill-rule="evenodd" clip-rule="evenodd" d="M78.9008 67.1692C78.1164 67.3932 77.3321 66.6091 76.0995 66.4971C75.3152 66.3851 74.5308 66.4971 74.0826 66.6091C76.0995 66.8331 77.3321 67.1692 78.2285 68.1773C78.5646 68.1773 78.9008 67.9533 79.0128 67.8412C79.6851 67.6172 79.7972 67.0571 78.9008 67.1692Z" fill="#975C28"/>
<path fill-rule="evenodd" clip-rule="evenodd" d="M78.5657 69.298C77.2211 70.0821 76.6608 69.6341 75.4283 68.738C74.9801 68.5139 74.1957 68.5139 73.5234 68.738C73.9716 68.4019 74.868 67.9539 75.6524 68.2899C76.3247 68.626 76.5488 68.962 77.109 69.186C77.5572 69.298 78.0054 69.41 78.5657 69.298Z" fill="#975C28"/>
<path d="M75.8755 68.8507C75.7634 68.7387 75.5393 68.6267 75.4273 68.6267C75.2032 68.6267 75.0911 68.7387 74.9791 68.8507C74.867 68.9627 74.755 69.1867 74.755 69.2987C74.755 69.5228 74.867 69.6348 74.9791 69.7468C75.0911 69.8588 75.3152 69.9708 75.4273 69.9708C75.6514 69.9708 75.7634 69.8588 75.8755 69.7468C75.9875 69.6348 76.0996 69.4107 76.0996 69.2987C76.0996 69.1867 75.9875 68.9627 75.8755 68.8507ZM75.4273 68.5146C75.6514 68.5146 75.8755 68.6267 76.0996 68.7387C76.2116 68.8507 76.3237 69.0747 76.3237 69.4107C76.3237 69.6348 76.2116 69.8588 76.0996 70.0828C75.9875 70.1948 75.7634 70.3069 75.4273 70.3069C75.2032 70.3069 74.9791 70.1948 74.755 70.0828C74.6429 69.9708 74.5309 69.7468 74.5309 69.4107C74.5309 69.1867 74.6429 68.9627 74.755 68.7387C74.9791 68.5146 75.2032 68.5146 75.4273 68.5146Z" fill="#975C28"/>
<path fill-rule="evenodd" clip-rule="evenodd" d="M75.5393 68.7388C75.7634 68.7388 75.9875 68.9629 75.9875 69.1869C75.9875 69.411 75.7634 69.6351 75.5393 69.6351C75.3152 69.6351 75.0911 69.411 75.0911 69.1869C75.0911 68.9629 75.3152 68.7388 75.5393 68.7388Z" fill="#975C28"/>
<path d="M72.9629 67.9538C73.075 65.2655 74.0834 64.3694 75.0919 63.3613L74.8678 63.5853C73.8593 64.2574 72.7388 64.9294 71.3942 65.3775C70.6099 65.8255 70.4978 67.1697 70.2737 68.6259C69.8255 71.7622 69.2653 75.5707 63.7748 75.0106C63.9989 75.4587 64.4471 75.7947 64.8953 75.9067C65.4556 76.1307 66.2399 76.1307 67.0243 75.9067C67.8086 75.6827 68.705 75.3466 69.4894 74.7866C71.2822 73.4424 72.8509 71.2022 72.9629 67.9538ZM76.4365 62.4652C76.1003 62.9132 75.7642 63.2492 75.316 63.5853C74.4196 64.4814 73.4111 65.3775 73.2991 67.8418C73.187 71.2022 71.5063 73.6664 69.4894 75.0106C68.593 75.5707 67.6966 76.0187 66.9122 76.1307C66.0158 76.3548 65.2315 76.3548 64.5592 76.1307C63.7748 75.9067 63.2146 75.3467 62.9905 74.5626L62.8784 74.2265H63.2146C68.705 74.8986 69.1532 71.2022 69.6014 68.2898C69.8255 66.6096 70.0496 65.1535 70.946 64.7054C72.2906 64.2574 73.2991 63.5853 74.4196 62.9132C74.9798 62.5772 75.428 62.2411 75.9883 61.9051L76.8847 61.457L76.4365 62.4652Z" fill="#975C28"/>
<path fill-rule="evenodd" clip-rule="evenodd" d="M76.3235 68.7379C76.9958 68.85 77.444 68.738 77.5561 68.4018C76.9958 68.5139 76.2115 68.5139 75.5392 68.1777L76.3235 68.7379Z" fill="#975C28"/>
<path fill-rule="evenodd" clip-rule="evenodd" d="M75.3152 68.4025C75.9875 68.4025 76.4357 68.1784 76.5478 67.8423C76.0996 68.1784 75.5393 68.1784 74.9791 68.1784C74.755 68.1784 74.755 68.1784 74.4188 68.2904L75.3152 68.4025Z" fill="#975C28"/>
<path fill-rule="evenodd" clip-rule="evenodd" d="M71.8418 76.6899C72.5141 77.586 73.7466 78.0341 74.8671 78.3701C73.5225 78.2581 72.402 77.586 71.8418 76.6899Z" fill="#975C28"/>
<path fill-rule="evenodd" clip-rule="evenodd" d="M71.507 76.3545C71.3949 77.4746 71.8431 78.8188 73.0757 79.7149C71.3949 79.2668 71.2829 77.3626 71.507 76.3545Z" fill="#975C28"/>
<path fill-rule="evenodd" clip-rule="evenodd" d="M100.975 85.6516C100.751 85.6516 101.199 82.0672 100.863 81.7312C100.527 81.3951 99.4065 81.5072 99.0704 81.5072C98.9583 81.5072 98.8463 81.5072 98.7342 81.5072C98.3981 81.5072 97.9499 81.5072 97.6137 81.2831C97.5017 81.1711 97.5017 80.8351 97.6137 80.8351C97.7258 80.7231 100.415 80.8351 100.863 80.7231V80.499C100.639 80.499 98.3981 80.499 97.9499 80.499C97.8378 80.499 97.6137 80.499 97.6137 80.275C97.6137 79.939 98.0619 79.939 98.286 79.939C98.7342 79.939 100.639 79.939 100.863 79.827V79.6029C100.527 79.4909 97.8378 79.715 97.7258 79.6029L97.6137 79.4909C97.5017 79.3789 97.6137 79.1549 97.7258 79.1549C97.8378 79.1549 98.0619 79.1549 98.174 79.1549C98.5101 79.1549 98.7342 79.1549 99.0704 79.1549C99.4065 79.1549 100.527 79.1549 100.863 79.1549V78.9309C100.527 78.8188 97.8378 79.0429 97.7258 78.9309C97.5017 78.7068 97.6137 78.4828 98.0619 78.4828C98.5101 78.4828 100.639 78.4828 100.863 78.3708V78.1468C100.527 78.0348 97.8378 78.2588 97.7258 78.1468C97.6137 78.0348 97.5017 77.9227 97.6137 77.8107C97.7258 77.6987 98.174 77.6987 98.3981 77.6987C98.8463 77.6987 100.527 77.6987 100.751 77.6987V77.4747C100.527 77.4747 98.3981 77.4747 97.9499 77.4747C97.8378 77.4747 97.6137 77.4747 97.5016 77.3627C97.3896 77.2507 97.3896 77.1387 97.5016 77.0266C97.6137 76.9146 98.0619 76.9146 98.286 76.9146H99.8547C100.079 76.9146 100.527 76.9146 100.639 76.9146V76.6906C100.527 76.6906 100.079 76.6906 99.8547 76.6906H97.8378C97.7258 76.6906 97.5017 76.6906 97.3896 76.5786C97.2776 76.4666 97.2776 76.3546 97.3896 76.2426C97.5017 76.1305 97.9499 76.1305 98.174 76.1305C98.6222 76.1305 100.303 76.1305 100.527 76.1305V75.9065C100.303 75.9065 99.2945 75.9065 98.9583 75.9065H97.7258C97.6137 75.9065 97.3896 75.9065 97.2776 75.7945C97.1655 75.6825 97.1655 75.5705 97.2776 75.4585C97.3896 75.3464 97.8378 75.3464 98.0619 75.3464C98.5101 75.3464 100.191 75.3464 100.415 75.3464V75.1224C100.191 75.1224 98.0619 75.1224 97.6137 75.1224C97.5017 75.1224 97.2776 75.1224 97.1655 75.0104C96.9414 74.7864 97.1655 74.5624 97.5016 74.5624H99.5186C99.7427 74.5624 100.191 74.5624 100.303 74.5624V74.3383H98.5101C98.286 74.3383 97.2776 74.4503 97.1655 74.3383C97.0535 74.2263 97.0535 74.1143 97.1655 74.0023C97.2776 73.8903 98.5101 73.8903 98.7342 73.8903C99.0704 73.8903 100.079 73.8903 100.303 73.8903V73.6662C100.079 73.6662 99.7427 73.6662 99.5186 73.6662C99.1824 73.6662 97.2776 73.7783 97.1655 73.6662C97.0535 73.5542 97.0535 73.4422 97.1655 73.3302C97.2776 73.2182 97.7258 73.2182 97.9499 73.2182H99.5186C99.7427 73.2182 100.191 73.2182 100.303 73.2182V72.9942C99.8547 72.8822 97.2776 73.1062 97.1655 72.9942C97.0535 72.8822 97.0535 72.7701 97.1655 72.6581C97.2776 72.5461 97.7258 72.5461 97.9499 72.5461H99.5186C99.7427 72.5461 100.191 72.5461 100.303 72.5461V72.3221C99.8547 72.2101 97.2776 72.4341 97.1655 72.3221C97.0535 72.2101 97.0535 72.0981 97.1655 71.9861C97.2776 71.874 97.7258 71.874 97.9499 71.874H99.5186C99.7427 71.874 100.191 71.874 100.303 71.874V71.65C99.9667 71.65 99.0704 71.65 98.7342 71.65C98.5101 71.65 97.2776 71.762 97.1655 71.65C97.0535 71.538 97.0535 71.426 97.1655 71.314C97.2776 71.202 97.3896 71.202 97.6137 71.202H99.6306C99.8547 71.202 100.303 71.202 100.415 71.202V70.9779C99.9668 70.8659 97.6137 71.0899 97.3896 70.9779C97.1655 70.8659 97.1655 70.6419 97.2776 70.5299C97.3896 70.4179 99.4065 70.4179 99.6306 70.4179C99.8547 70.4179 100.303 70.4179 100.415 70.4179C100.415 70.3059 100.415 70.3059 100.415 70.1938C99.9668 70.0818 97.6137 70.3059 97.2776 70.1938C97.0535 70.0818 97.0535 69.8578 97.1655 69.7458C97.2776 69.6338 98.6222 69.6338 98.7342 69.6338C99.0704 69.6338 100.079 69.6338 100.303 69.6338V69.4097C100.079 69.4097 98.0619 69.4097 97.6137 69.4097C97.5017 69.4097 97.2776 69.4097 97.1655 69.4097C96.9414 69.2977 96.9414 69.0737 97.0535 68.9617C97.1655 68.8497 99.8547 68.9617 100.191 68.8497V68.6257C99.8547 68.6257 99.1824 68.6257 98.8463 68.6257C98.8463 68.6257 98.8463 68.6257 98.7342 68.6257C98.3981 68.6257 97.1655 68.7377 97.0535 68.6257C96.9414 68.5136 97.0535 68.2896 97.1655 68.0656C97.5017 67.7296 99.4065 67.6175 100.079 67.6175C100.639 67.6175 101.423 67.5055 101.872 68.0656C102.096 68.2896 102.096 68.6257 102.096 68.8497C102.096 68.9617 102.096 68.9617 102.096 69.0737C102.096 69.4098 102.096 69.7458 102.096 70.0818C102.096 70.4179 102.096 71.202 102.208 71.65L102.32 74.2263C102.32 74.4503 102.32 74.5624 102.32 74.6744V80.163L101.872 81.8432C101.872 83.0753 101.423 85.2036 100.975 85.6516Z" fill="#975C28"/>
<path d="M66.352 67.9537C66.5761 67.1696 67.0243 66.3855 68.0328 65.9374L70.834 65.0413L72.4027 64.5933L70.9461 65.4894C69.4894 66.3855 69.2653 67.9536 68.9292 69.4098C68.593 71.202 68.1448 72.9942 66.1279 74.0024C64.8954 74.4504 63.8869 74.5624 63.1026 74.3384C62.4303 74.2264 61.87 73.8903 61.4218 73.4423C61.0857 72.9942 60.8616 72.5462 60.7495 71.8741C60.6375 71.314 60.8616 70.642 61.0857 70.0819C61.4218 69.4098 61.9821 68.9618 62.7664 68.5137C63.5508 68.0657 64.5592 67.8416 65.3436 67.8416L66.352 67.9537ZM66.1279 69.6338C66.1279 69.0738 66.24 68.6257 66.352 68.0657L65.4556 68.4017C64.3351 68.8498 63.7749 69.7459 63.6628 70.5299C63.6628 70.866 63.6628 71.202 63.7749 71.4261C63.8869 71.6501 63.999 71.8741 64.2231 71.9861C64.5592 72.0981 64.8954 72.0981 65.3436 71.7621C65.9038 71.4261 66.0159 70.53 66.1279 69.6338ZM68.2569 66.3855C66.9123 67.0575 66.6882 68.5137 66.5761 69.7459C66.4641 70.754 66.352 71.6501 65.6797 72.2101C65.0074 72.6582 64.4472 72.7702 63.999 72.5462C63.6628 72.4342 63.4387 72.0981 63.3267 71.7621C63.2146 71.4261 63.1026 70.978 63.2146 70.642C63.3267 69.9699 63.5508 69.2978 64.2231 68.7377C63.7749 68.8498 63.4387 68.9618 62.9905 69.1858C62.3182 69.5218 61.758 69.9699 61.5339 70.5299C61.3098 70.978 61.1977 71.5381 61.1977 72.0981C61.1977 72.5462 61.4218 72.9942 61.758 73.3303C62.0941 73.6663 62.5423 73.8903 63.1026 74.0024C63.7749 74.1144 64.7833 74.0024 65.9038 73.6663C67.8087 72.7702 68.1448 71.09 68.481 69.4098C68.7051 68.1777 69.0412 66.8335 69.8256 65.9374L68.2569 66.3855Z" fill="#975C28"/>
<path fill-rule="evenodd" clip-rule="evenodd" d="M72.515 77.9233C72.9632 78.3714 73.6355 78.7074 74.4199 78.9315L74.0837 79.0435V79.1555C73.4114 78.8194 72.8512 78.3714 72.515 77.9233Z" fill="#975C28"/>
<path d="M70.9464 76.4668C71.0585 76.2427 71.2826 76.1306 71.3946 76.0186C71.6187 75.9065 71.8428 76.0186 72.0669 76.1306C71.5067 76.0186 71.3946 76.1306 70.9464 76.4668Z" fill="#975C28"/>
<path d="M50.1051 75.1237C52.7943 75.3477 54.5871 75.5717 57.8366 73.4435L58.3968 73.1074C58.2848 74.3396 58.2848 75.0116 58.0607 76.1318L57.9486 77.1399C57.1643 77.812 55.7076 78.372 54.0269 78.4841C52.5702 78.5961 50.8895 78.484 49.2087 78.036C48.8726 77.924 48.5364 77.812 48.2003 77.812C47.64 77.7 47.0798 77.7 46.6316 77.812C46.2954 77.924 45.9593 78.148 45.8472 78.5961C45.8472 78.7081 45.8472 78.7081 45.7352 78.8201C45.7352 78.9321 45.7352 79.1561 45.8472 79.2681C45.8472 79.4922 45.9593 79.6042 46.1834 79.7162C46.4075 79.8282 46.6316 79.9402 46.9677 79.9402C47.4159 79.9402 47.9762 79.8282 48.6485 79.6042L50.5533 79.0441L48.9846 80.2763C46.9677 81.7324 45.399 81.9565 44.2785 81.5084C43.4942 81.1724 42.9339 80.5003 42.7098 79.6042C42.4857 78.8201 42.5978 77.812 43.046 77.0279C43.7183 75.7957 45.287 74.7876 47.64 75.0116C48.5364 75.0116 49.3208 75.1237 50.1051 75.1237ZM57.6125 74.3396C54.4751 76.2438 52.6823 76.0198 49.9931 75.7957C49.2087 75.6837 48.4244 75.6837 47.528 75.5717C45.399 75.4597 44.1665 76.2438 43.4942 77.2519C43.158 77.924 43.046 78.7081 43.158 79.3801C43.2701 80.0522 43.7183 80.6123 44.3906 80.8363C45.0629 81.0603 45.8472 81.0603 46.9677 80.6123H46.8557C46.4075 80.6123 45.9593 80.5003 45.7352 80.2763C45.399 80.0522 45.287 79.8282 45.1749 79.4922C45.0629 79.2681 45.0629 79.0441 45.0629 78.8201C45.0629 78.7081 45.0629 78.5961 45.1749 78.4841C45.399 77.812 45.8472 77.4759 46.4075 77.2519C46.9677 77.0279 47.64 77.0279 48.3123 77.2519C48.6485 77.3639 48.9846 77.4759 49.4328 77.5879C51.0015 78.036 52.5702 78.148 53.9148 78.036C55.3715 77.924 56.7161 77.4759 57.3884 76.9159C57.3884 76.4678 57.5004 76.0198 57.5004 75.5717C57.6125 75.0116 57.6125 74.6756 57.6125 74.3396Z" fill="#975C28"/>
<path d="M76.4361 142.666C79.2373 142.218 80.806 143.787 81.2542 146.363C82.0386 151.515 78.3409 157.34 73.4107 158.012L74.4192 143.338C75.0915 142.89 75.7638 142.666 76.4361 142.666ZM79.9096 129.785C80.4698 133.593 78.2289 138.858 74.5312 140.65L75.4276 127.321C74.7553 126.985 73.8589 126.873 73.0746 126.985C71.2818 127.209 69.601 128.329 69.3769 130.681L67.6962 157.116C66.9118 156.78 66.1275 156.444 65.2311 155.884C63.9985 156.556 63.5503 157.564 63.6624 158.684C63.9985 160.925 68.5926 161.709 73.8589 160.925C82.935 159.58 88.0893 150.843 87.3049 145.131C86.8567 141.77 84.2795 139.418 79.2373 140.09C83.6073 136.842 85.7362 132.137 85.176 128.553C84.3916 123.064 79.7976 122.28 73.8589 123.176C66.4636 124.296 58.6201 129.673 59.4045 134.938C59.7406 137.29 61.1973 138.634 63.5503 138.298C64.2226 138.186 64.8949 137.962 65.5672 137.514C64.8949 136.954 64.3347 136.17 64.2226 134.938C63.5503 130.121 68.7046 126.312 73.4107 125.64C77.3325 124.856 79.3493 126.2 79.9096 129.785Z" fill="#975C28"/>
<path d="M106.914 148.379C107.362 148.267 107.81 148.715 107.922 149.275C108.258 151.067 106.689 153.196 104.448 155.324C104.112 153.42 104.224 148.827 106.914 148.379ZM106.241 160.701C108.37 160.365 109.715 159.02 110.947 157.34C111.62 156.444 110.051 154.204 108.93 156.332C108.706 156.78 107.81 157.788 107.026 157.9C105.905 158.124 105.233 157.676 104.785 156.444C109.491 152.636 110.387 150.619 110.051 148.379C109.827 147.147 109.042 145.915 106.577 146.251C102.095 147.035 100.751 152.972 101.311 156.556C101.311 156.78 101.423 157.116 101.423 157.34C100.863 157.676 100.415 157.9 99.7423 157.9C99.7423 159.02 100.863 159.58 101.871 159.132C101.983 159.132 101.983 159.132 102.095 159.02C102.88 160.589 104.448 161.037 106.241 160.701Z" fill="#975C28"/>
<path d="M110.724 154.204C110.836 153.756 111.284 153.42 111.844 153.084C112.18 152.972 112.628 152.86 112.965 152.86C112.965 153.756 113.301 154.54 113.525 154.988C114.421 153.532 114.982 151.628 113.301 144.235C112.18 145.019 111.396 145.803 111.172 146.923C110.612 146.699 110.275 146.363 110.051 145.915C109.267 144.459 110.275 143.115 111.732 142.443C112.965 141.771 114.645 141.21 115.542 140.986L120.136 149.163L120.36 140.314C120.36 138.746 120.696 138.074 121.592 137.626C122.041 137.402 122.489 137.29 122.937 137.29L125.962 145.915C126.411 147.259 126.971 147.707 127.419 147.371C127.755 147.259 127.979 146.923 128.091 146.475C128.54 146.475 129.324 147.259 129.212 148.155C128.876 149.163 128.091 149.948 127.307 150.396C126.074 151.068 124.17 151.18 123.049 147.707L121.48 143.227V153.196C120.472 154.092 119.464 154.204 118.791 153.084L115.094 146.363C115.654 149.163 115.766 151.18 115.654 152.636C115.542 155.1 114.757 156.668 113.861 157.116C113.077 157.564 112.292 157.34 111.508 156.444C110.948 155.548 110.836 154.876 110.724 154.204Z" fill="#975C28"/>
<path d="M94.7009 149.388C95.7094 149.276 96.4937 150.172 96.6058 152.188C96.8299 154.989 95.2612 159.021 92.3479 159.245C91.8997 159.245 91.4515 159.245 90.8912 159.021L92.0117 151.404C92.7961 150.172 93.8045 149.5 94.7009 149.388ZM85.7369 172.239C86.0731 172.463 86.6333 172.575 87.0815 172.575C88.09 172.463 89.0984 171.903 89.3225 170.558L90.6671 160.925C91.2274 161.373 92.0117 161.597 92.684 161.485C97.6142 161.149 100.303 155.213 100.079 150.956C99.8552 148.38 98.6227 146.252 96.1576 146.476C94.7009 146.588 93.4684 147.596 92.3479 149.052L92.4599 148.38C92.684 147.26 92.0117 146.812 91.0033 146.924C89.7707 147.036 88.7623 147.708 87.8659 148.492C87.3056 148.94 87.5297 149.836 87.9779 150.06C88.202 149.836 88.4261 149.724 88.5382 149.724C88.7623 149.724 88.9864 149.948 88.8743 150.396L85.7369 172.239Z" fill="#975C28"/>
<path d="M128.874 136.169C127.754 135.048 126.97 133.032 128.09 131.912C128.65 131.352 129.547 131.352 130.443 132.808L132.46 135.833L131.564 136.729C130.891 137.513 129.771 137.065 128.874 136.169ZM128.202 145.914C128.874 145.242 130.107 146.474 130.107 147.258C131.115 147.706 132.124 147.93 133.132 146.922C134.701 145.13 133.469 140.761 132.46 138.297L133.469 137.289L134.477 138.745C136.718 142.105 138.847 141.097 139.855 140.089C141.088 138.857 141.76 136.057 140.192 134.6C139.855 134.264 139.407 134.264 138.959 134.712C139.407 135.833 139.183 136.617 138.847 136.953C138.399 137.401 137.614 137.177 136.83 135.833L133.693 131.128C131.676 128.104 129.099 128.552 127.082 130.568C125.065 132.584 123.832 136.169 126.409 138.857C127.642 140.089 129.435 140.425 131.115 139.417C132.236 142.217 132.012 143.561 131.788 144.794C131.34 144.346 130.779 143.673 130.443 142.777C129.995 142.889 129.547 143.113 129.211 143.337C128.314 144.234 128.202 144.906 128.202 145.914Z" fill="#975C28"/>
<path fill-rule="evenodd" clip-rule="evenodd" d="M51.448 136.954C45.8455 138.299 39.6827 135.162 37.4417 129.337C33.0718 118.472 37.7779 106.375 46.5178 97.3018C38.114 104.359 29.9344 116.792 33.632 129.786C37.2176 139.419 44.1647 141.995 52.5685 140.651C51.6721 139.755 51.448 138.971 51.448 136.954Z" fill="#975C28"/>
<path d="M154.31 132.922C154.086 133.258 153.414 133.818 152.517 133.258C150.837 132.25 150.164 128.889 150.612 125.417C154.086 129.113 155.207 131.13 154.31 132.922ZM145.57 120.936C146.13 122.168 146.243 123.625 145.794 124.409C145.346 125.193 144.45 125.529 143.217 124.745C140.416 123.177 136.942 119.816 138.623 116.68C138.847 116.344 139.071 115.896 139.52 115.56L145.57 120.936ZM150.725 115.672C150.612 115 149.94 114.776 149.38 115C149.604 116.344 149.716 118.136 149.604 119.928C149.268 119.704 149.044 119.368 148.708 119.144L139.632 111.303C139.295 111.527 138.847 111.863 138.623 112.311C138.287 112.983 138.063 113.768 138.399 114.552C137.503 114.888 136.718 115.56 136.046 116.68C134.029 120.264 136.942 125.641 141.424 128.105C143.105 129.001 146.018 129.897 147.587 127.321C148.371 125.977 148.147 124.073 147.251 122.28C147.811 122.841 148.371 123.401 148.932 123.961C148.259 128.105 148.484 133.482 151.733 135.274C153.862 136.506 155.767 135.498 156.551 133.93C159.016 129.449 154.87 124.857 150.725 121.048C151.061 118.808 150.837 116.344 150.725 115.672Z" fill="#975C28"/>
<path d="M152.519 111.638C151.174 109.958 148.821 107.83 144.899 105.254C145.011 104.694 145.235 104.022 145.459 103.462L152.519 107.942C155.88 110.07 157.225 108.95 157.897 107.046C158.457 105.478 158.009 102.789 156.104 102.005C154.199 101.333 156.104 103.686 155.768 104.582C155.544 105.142 154.872 105.254 153.527 104.47L145.796 99.5411C144.787 98.869 142.322 104.806 141.65 106.486C141.09 108.054 141.202 109.846 142.882 110.406C143.33 110.63 143.891 110.518 144.451 110.406C144.003 109.622 144.115 108.278 144.451 106.71C150.95 111.414 151.846 113.207 152.182 114.999C151.622 114.775 150.838 114.327 150.166 113.767C149.829 113.991 149.493 114.439 149.381 114.775C149.045 115.783 149.045 116.903 150.39 117.351C152.407 118.135 153.863 117.687 154.199 116.567C154.648 115.447 154.199 113.767 152.519 111.638Z" fill="#975C28"/>
<path d="M150.725 95.3968C149.156 95.0608 147.587 93.9406 147.812 92.3724C147.924 91.7004 148.708 91.1403 150.165 91.8124L153.414 93.1565L153.19 94.3887C152.966 95.3968 151.845 95.6208 150.725 95.3968ZM151.733 88.788C148.372 87.4439 146.579 89.2361 146.131 91.8124C145.571 94.5007 146.467 98.0851 150.053 98.7572C151.733 99.0932 153.302 98.4211 154.198 96.6289C156.551 98.3091 157.224 99.4293 157.56 100.661C157 100.549 156.103 100.325 155.319 99.7653C154.983 100.101 154.759 100.549 154.647 100.885C154.423 102.006 154.647 103.014 156.103 103.238C158.232 103.686 159.577 103.014 159.689 101.782C160.025 99.5413 156.664 96.7409 154.535 95.1728L154.759 93.8286L156.327 94.5007C159.913 95.9569 161.146 94.0526 161.37 92.7085C161.706 91.1403 160.809 88.452 158.68 88.1159C158.232 88.0039 157.784 88.34 157.784 88.788C158.792 89.4601 159.017 90.1322 158.905 90.6922C158.792 91.2523 158.12 91.4763 156.664 90.9163L151.733 88.788Z" fill="#975C28"/>
<path d="M152.181 67.3931C151.621 67.2811 151.173 67.7292 151.509 68.4012C153.526 68.9613 155.767 70.9775 156.551 72.8818C157.112 74.3379 156.776 75.7941 154.647 76.5782C150.837 78.0344 147.251 77.3623 146.691 75.9061C146.467 75.234 146.579 74.786 147.139 74.674C147.475 74.562 148.26 74.3379 149.044 74.4499C149.156 74.0019 149.156 73.5538 149.044 73.2178C148.708 72.2097 147.587 71.6496 146.131 72.2097C144.338 72.8818 143.89 74.2259 144.786 76.4662C146.355 80.4987 152.294 81.3948 156.439 79.9386C159.689 78.7064 160.473 76.1301 159.577 73.5538C158.456 70.7535 155.655 68.2892 152.181 67.3931Z" fill="#975C28"/>
<path d="M143.89 64.1457C143.666 63.6976 144.002 63.2496 144.451 63.0256C146.019 62.3535 148.372 63.1376 150.837 64.8178C149.157 65.4898 145.011 66.498 143.89 64.1457ZM143.218 61.4574C142.21 61.9054 141.201 63.0256 142.21 65.1538C144.787 70.8665 158.457 68.6262 155.319 61.5694C154.311 59.3291 151.622 57.2009 148.484 56.6408C147.924 56.5288 147.588 56.9768 147.924 57.5369C149.717 57.985 151.958 59.5532 152.63 61.2333C153.078 62.3535 153.078 63.3616 151.846 64.2577C147.252 60.8973 145.235 60.5613 143.218 61.4574Z" fill="#975C28"/>
<path d="M139.072 51.488C141.537 50.2558 146.355 49.4718 147.475 51.712C148.036 52.7201 147.139 53.7283 145.907 54.4003C143.442 55.6325 139.296 55.8565 138.175 53.6162C138.063 53.2802 137.839 52.9442 137.727 52.3841C138.175 52.0481 138.624 51.712 139.072 51.488ZM131.564 57.9847C132.685 60.337 134.366 59.6649 135.71 58.9929C135.934 57.6487 135.934 55.6325 136.719 53.9523C136.831 54.2883 136.943 54.5123 137.055 54.8484C140.08 61.1211 154.086 57.9847 150.837 51.376C148.932 47.5675 142.545 47.9036 138.736 49.6958C135.486 51.264 134.702 54.7364 134.254 57.5367C133.469 55.7445 133.357 53.8403 132.461 52.0481C131.901 50.8159 130.556 50.5919 129.547 50.8159C129.099 50.9279 128.539 51.264 128.315 51.6C129.66 53.0562 130.332 55.5205 131.564 57.9847Z" fill="#975C28"/>
<path d="M131.229 46.224C129.997 47.2321 128.204 47.6801 127.195 46.56C126.747 45.9999 126.859 45.2158 128.204 44.4318L131.229 42.8636L132.014 43.7597C132.574 44.5438 132.126 45.5519 131.229 46.224ZM135.711 36.3668C134.703 35.1347 132.35 34.4626 130.333 34.3506C130.109 34.3506 129.885 34.4626 129.661 34.5746C129.436 34.7986 129.324 35.0227 129.436 35.3587C130.445 35.4707 131.789 35.9188 132.462 36.7029C132.91 37.2629 132.798 37.935 131.341 38.7191L126.635 41.1834C123.61 42.8636 123.834 45.3279 125.515 47.2321C127.307 49.2483 130.557 50.8165 133.134 48.5762C134.367 47.5681 134.927 45.8879 134.143 44.2077C136.832 43.4236 138.064 43.7597 139.297 44.0957C138.849 44.4318 138.176 44.8798 137.28 45.2158C137.28 45.6639 137.504 46.1119 137.728 46.336C138.4 47.1201 139.297 47.5681 140.417 46.672C141.986 45.3279 142.322 43.8717 141.538 43.0876C140.081 41.4074 135.823 42.3035 133.358 42.8636L132.462 41.8555L133.918 41.0714C137.392 39.5032 136.72 37.4869 135.711 36.3668Z" fill="#975C28"/>
<path d="M124.953 22.7002C187.141 57.7603 183.555 119.031 149.044 152.075C123.048 177.054 79.3486 185.455 38.8986 154.54L41.8119 151.515C131.564 217.939 226.47 84.3074 124.729 23.0362L124.953 22.7002Z" fill="#975C28"/>
<path d="M100.19 10.7144V12.8426H92.7952C92.9072 12.0585 93.1313 11.2744 93.4675 10.4904C93.9157 9.70626 94.7 8.81016 95.8205 7.57801C96.829 6.5699 97.3892 5.89782 97.6133 5.56178C97.9495 5.11373 98.0615 4.55366 98.0615 4.10561C98.0615 3.54554 97.9495 3.2095 97.7254 2.87347C97.5013 2.53743 97.1651 2.42541 96.7169 2.42541C96.2687 2.42541 95.9326 2.53743 95.7085 2.87347C95.4844 3.2095 95.2603 3.65756 95.2603 4.32964L93.1313 4.10561C93.2434 2.76145 93.6916 1.86535 94.3639 1.30528C95.0362 0.745218 95.8205 0.40918 96.829 0.40918C97.9495 0.40918 98.7338 0.745218 99.4061 1.4173C100.078 2.08937 100.303 2.87347 100.303 3.88158C100.303 4.44165 100.19 5.00171 100.078 5.44977C99.8543 5.89782 99.6302 6.45788 99.182 7.01795C98.9579 7.35399 98.5097 7.91405 97.8374 8.58613C97.1651 9.25821 96.7169 9.70626 96.6049 9.93029C96.3808 10.1543 96.2687 10.3783 96.1567 10.6024H100.19V10.7144ZM89.8819 12.8426H87.7529V3.9936C86.9686 4.77769 86.0722 5.44977 85.0637 5.7858V3.65756C85.624 3.43353 86.1842 3.09749 86.8565 2.53743C87.5288 1.97736 87.977 1.30528 88.2011 0.521193H89.8819V12.8426Z" fill="#975C28"/>
<path d="M91.2253 188.145C91.2253 188.929 91.3373 189.489 91.6734 189.825C92.0096 190.273 92.3457 190.385 92.6819 190.385C93.018 190.385 93.3542 190.273 93.6903 189.937C93.9144 189.601 94.0265 189.041 94.0265 188.257C94.0265 187.472 93.9144 186.912 93.5783 186.576C93.3542 186.24 92.906 186.016 92.5698 186.016C92.1216 186.016 91.7855 186.24 91.5614 186.576C91.3373 186.912 91.2253 187.472 91.2253 188.145ZM95.9313 183.104L93.9144 183.328C93.9144 182.88 93.6903 182.544 93.5783 182.32C93.3542 182.096 93.1301 181.984 92.7939 181.984C92.3457 181.984 92.0096 182.208 91.6734 182.656C91.3373 183.104 91.2252 184 91.1132 185.344C91.6734 184.672 92.2337 184.336 93.018 184.336C93.9144 184.336 94.5867 184.672 95.259 185.456C95.8193 186.24 96.1554 187.136 96.1554 188.257C96.1554 189.489 95.8193 190.497 95.147 191.169C94.4747 191.953 93.6903 192.289 92.6819 192.289C91.5614 192.289 90.665 191.841 89.9927 190.833C89.3204 189.937 88.9843 188.369 88.9843 186.24C88.9843 184 89.3204 182.432 90.1048 181.536C90.8891 180.528 91.7855 180.08 92.906 180.08C93.6903 180.08 94.3626 180.304 94.9229 180.864C95.3711 181.424 95.7072 182.096 95.9313 183.104Z" fill="#975C28"/>
<path d="M176.384 98.3088L178.401 98.0848C178.513 98.6448 178.625 99.0929 178.961 99.4289C179.185 99.765 179.521 99.877 179.97 99.877C180.418 99.877 180.754 99.653 181.09 99.3169C181.426 98.9809 181.538 98.4208 181.538 97.8607C181.538 97.3007 181.426 96.8526 181.09 96.5166C180.866 96.1806 180.418 95.9565 180.082 95.9565C179.858 95.9565 179.521 96.0685 179.185 96.1805L179.409 94.2763C179.97 94.2763 180.418 94.1643 180.642 93.8283C180.978 93.4922 181.09 93.1562 181.09 92.7081C181.09 92.2601 180.978 92.0361 180.754 91.7C180.53 91.476 180.306 91.364 179.858 91.364C179.521 91.364 179.185 91.476 178.961 91.812C178.737 92.0361 178.513 92.4841 178.513 93.0442L176.608 92.7081C176.72 91.9241 176.944 91.364 177.168 90.9159C177.392 90.4679 177.841 90.1318 178.289 89.9078C178.737 89.6838 179.297 89.5718 179.858 89.5718C180.866 89.5718 181.65 89.9078 182.323 90.6919C182.883 91.252 183.107 91.9241 183.107 92.7081C183.107 93.7163 182.547 94.6124 181.538 95.2844C182.211 95.3965 182.659 95.7325 182.995 96.2926C183.331 96.8526 183.555 97.4127 183.555 98.1968C183.555 99.2049 183.219 100.101 182.547 100.885C181.874 101.669 180.978 102.005 179.97 102.005C178.961 102.005 178.177 101.669 177.505 101.109C176.832 100.101 176.496 99.3169 176.384 98.3088Z" fill="#975C28"/>
<path d="M5.50832 93.269C5.50832 92.4849 5.39627 91.9248 5.06012 91.5888C4.72397 91.1407 4.38782 91.0287 4.05167 91.0287C3.71552 91.0287 3.37937 91.1407 3.15527 91.4768C2.93117 91.8128 2.81912 92.3729 2.81912 93.157C2.81912 93.9411 2.93117 94.5011 3.26732 94.8372C3.49142 95.1732 3.82757 95.3972 4.27577 95.3972C4.72397 95.3972 5.06012 95.1732 5.28422 94.8372C5.28422 94.5011 5.50832 93.9411 5.50832 93.269ZM0.802221 98.3096L2.81912 98.0856C2.81912 98.5336 3.04322 98.8696 3.15527 99.0937C3.37937 99.3177 3.60347 99.4297 3.93962 99.4297C4.38782 99.4297 4.72397 99.2057 5.06012 98.7576C5.39627 98.3096 5.50832 97.4135 5.62037 96.0693C5.06012 96.7414 4.49987 97.0774 3.71552 97.0774C2.81912 97.0774 2.14682 96.7414 1.47452 95.9573C0.914274 95.2852 0.578125 94.2771 0.578125 93.157C0.578125 91.9248 0.914272 90.9167 1.58657 90.2446C2.25887 89.4606 3.04322 89.1245 4.05167 89.1245C5.17217 89.1245 6.06857 89.5726 6.74087 90.5807C7.41317 91.4768 7.74932 93.045 7.74932 95.1732C7.74932 97.4135 7.41317 98.9817 6.62882 99.8778C5.95652 100.886 4.94807 101.334 3.82757 101.334C2.93117 101.334 2.25887 101.11 1.81067 100.55C1.25042 100.102 0.914271 99.3177 0.802221 98.3096Z" fill="#975C28"/>
<path d="M92.123 62.0174C90.3302 60.6733 88.0892 59.7772 85.2879 59.3291C90.7784 63.4736 93.4676 67.282 93.9158 71.3145C94.364 75.459 92.5712 79.6035 89.3217 84.308C88.2012 85.5402 87.9771 86.9963 88.4253 88.1165C88.6494 88.6765 88.9856 89.1246 89.5458 89.4606C89.994 89.7967 90.6663 90.0207 91.3386 89.9087C92.6832 89.9087 94.476 89.0126 96.1568 86.7723C95.0363 87.6684 94.0278 88.0045 93.2435 88.0045C92.7953 88.0045 92.4591 87.8924 92.235 87.6684C91.8989 87.4444 91.7868 87.2204 91.6748 86.8843C91.4507 86.2122 91.5627 85.3161 92.235 84.532C94.9242 80.8356 96.4929 77.0272 96.8291 73.4428C97.0532 71.0905 96.8291 68.8502 96.0447 66.946C95.1483 64.9298 93.9158 63.2496 92.123 62.0174ZM84.5036 58.769C87.753 59.1051 90.3302 60.1132 92.3471 61.5694C94.1399 62.9135 95.4845 64.7057 96.2688 66.722C97.0532 68.7382 97.3893 70.9785 97.1652 73.4428C96.8291 77.0272 95.2604 80.9476 92.4591 84.7561C91.8989 85.4282 91.7868 86.2122 92.0109 86.7723C92.123 86.9963 92.235 87.2204 92.4591 87.3324C92.6832 87.4444 92.9073 87.5564 93.2435 87.5564C94.2519 87.5564 95.5965 86.9963 97.2773 85.0921L98.846 83.2999L97.6134 85.4282C95.3724 89.0126 93.1314 90.4687 91.3386 90.4687C90.5543 90.4687 89.882 90.2447 89.3217 89.9087C88.7615 89.5726 88.3133 89.0126 88.0892 88.3405C87.641 87.1083 87.8651 85.4282 89.0976 84.084C92.235 79.6035 94.0278 75.459 93.5796 71.4265C93.1314 67.3941 90.3302 63.4736 84.3915 59.2171L83.7192 58.769H84.5036Z" fill="#975C28"/>
<path d="M84.8397 62.5773C84.9518 61.3452 84.6156 60.001 84.0554 58.6568L83.6072 57.7607L84.3915 58.4328C88.3133 61.6812 92.0109 64.9296 93.4676 69.0741C94.9242 73.2185 94.2519 78.1471 89.4338 84.3078C88.8735 84.9799 88.5374 85.652 88.3133 86.212C88.2012 86.8841 88.2012 87.4442 88.4253 88.1163L88.5374 88.4523H88.2012C86.8566 88.3403 85.7361 88.0043 85.0638 87.1082C84.1674 85.988 84.3915 84.1958 84.7277 82.9637C86.5205 79.4913 87.3048 76.3549 87.1928 73.5546C87.0807 70.7543 85.8482 68.402 83.7192 66.3857L83.6072 66.2737L83.7192 66.1617C84.2795 65.1536 84.7277 63.9215 84.8397 62.5773ZM84.7277 59.2169C85.1759 60.337 85.2879 61.4572 85.2879 62.5773C85.1759 63.9215 84.8397 65.1536 84.1674 66.1617C86.4084 68.29 87.5289 70.6422 87.641 73.4426C87.753 76.2429 86.9687 79.4913 85.1759 82.9637C84.7277 84.7559 84.9518 85.988 85.512 86.7721C86.0723 87.4442 86.8566 87.7802 87.9771 87.8922C87.753 87.2202 87.753 86.6601 87.8651 85.988C87.9771 85.3159 88.4253 84.6439 88.9856 83.8598C93.6917 77.6991 94.364 72.9945 92.9073 68.962C91.5627 65.3776 88.3133 62.2413 84.7277 59.2169Z" fill="#975C28"/>
<path d="M82.7109 67.2809L83.6073 66.0487L83.7194 65.8247L83.9435 66.0487C86.7447 68.737 87.6411 71.5374 87.6411 74.3377C87.6411 77.138 86.5206 79.9384 85.4001 82.4026L84.5037 84.1948L84.9519 82.2906C85.7363 78.9302 86.2965 76.0179 86.0724 73.5536C85.8483 71.2013 84.9519 69.1851 82.823 67.6169L82.5989 67.5049L82.7109 67.2809ZM83.8314 66.4968L83.2712 67.2809C85.4001 68.9611 86.2965 70.9773 86.5206 73.4416C86.7447 75.3458 86.4086 77.5861 85.8483 80.1624C86.6327 78.2582 87.1929 76.2419 87.1929 74.2257C87.1929 71.6494 86.4086 68.9611 83.8314 66.4968Z" fill="#975C28"/>
<path d="M111.059 94.8369C109.826 93.9408 108.258 93.1568 106.465 92.4847L105.008 94.1649C108.93 95.285 111.619 97.7493 112.628 99.8775C112.964 100.55 113.076 101.11 113.076 101.67C113.076 102.23 112.852 102.678 112.516 103.014C112.067 103.462 111.283 103.574 110.275 103.462C111.059 103.91 111.843 104.134 112.404 104.022C112.964 104.022 113.412 103.798 113.748 103.462C114.084 103.126 114.308 102.678 114.532 102.118C114.869 100.998 114.645 99.5415 113.972 98.1973C113.3 96.9652 112.291 95.8451 111.059 94.8369ZM106.465 92.0366C108.258 92.7087 109.938 93.4928 111.283 94.5009C112.628 95.509 113.636 96.6292 114.308 98.0853C115.093 99.5415 115.205 101.11 114.869 102.342C114.757 103.014 114.42 103.574 113.972 103.91C113.524 104.358 112.964 104.582 112.404 104.582C111.507 104.694 110.387 104.246 109.042 103.238L108.146 102.566L109.266 102.902C110.723 103.35 111.731 103.238 112.291 102.79C112.628 102.566 112.74 102.118 112.74 101.782C112.74 101.334 112.628 100.774 112.291 100.102C111.283 97.9733 108.594 95.621 104.672 94.6129L104.336 94.5009L104.56 94.2769L106.353 92.1486L106.465 92.0366Z" fill="#975C28"/>
<path d="M111.508 93.2685C110.388 92.2604 109.043 91.5883 107.586 90.9162L106.802 92.1484C108.371 92.7084 109.939 93.4925 111.172 94.3886C112.18 95.0607 112.965 95.9568 113.525 96.6289C113.189 95.1727 112.404 94.0526 111.508 93.2685ZM107.586 90.3562C109.155 91.0282 110.612 91.8123 111.844 92.8204C113.077 93.9406 113.973 95.3967 114.085 97.525L114.197 98.7571L113.637 97.637C113.189 96.6289 112.18 95.5087 110.836 94.6126C109.603 93.7165 108.034 92.9324 106.354 92.3724L106.13 92.2604L106.242 92.0363L107.25 90.3562L107.362 90.2441L107.586 90.3562Z" fill="#975C28"/>
<path d="M92.6839 93.4932C91.2273 92.9331 89.9947 91.813 88.8742 89.5727L88.314 88.4526L89.3224 89.3487C89.5465 89.4607 89.6586 89.6848 89.8827 89.7968C90.555 90.2448 91.3393 90.3568 92.2357 90.1328C93.1321 89.9088 94.2526 89.1247 95.3731 88.0046C96.2695 87.1085 97.1659 85.8763 98.1744 84.3081L99.1828 82.6279L98.6226 84.4201L96.9418 89.2367C96.7177 89.6848 97.0539 90.8049 97.278 91.925C97.39 92.4851 97.6141 93.1572 97.6141 93.6052V93.8292H97.39C95.5972 93.9412 94.0285 94.0533 92.6839 93.4932ZM89.6586 90.1328C90.667 91.701 91.6755 92.5971 92.796 93.0451C94.0285 93.4932 95.4852 93.4932 97.0539 93.3812C96.9418 92.9331 96.8298 92.4851 96.7177 91.925C96.3816 90.6929 96.1575 89.5727 96.3816 89.0127L97.5021 85.7643C96.8298 86.6604 96.2695 87.4445 95.5972 88.1166C94.3647 89.3487 93.2442 90.1328 92.2357 90.4688C91.2273 90.6929 90.4429 90.5809 89.6586 90.1328Z" fill="#975C28"/>
<path d="M85.8483 99.9898C88.0893 97.9736 89.8821 96.4054 91.6749 92.933L91.7869 92.709C92.7954 93.3811 94.4761 93.7171 97.0533 93.4931L97.3894 93.3811V93.6051L97.5014 94.6132L97.3894 94.7252C94.5882 97.5255 92.6833 101.558 90.7785 105.59C89.77 107.719 88.7616 109.735 87.529 111.863C86.6326 110.519 85.8483 109.287 85.176 107.831C84.5037 106.375 83.8314 104.806 83.1591 102.678V102.566L83.2711 102.454C84.2796 101.446 85.0639 100.774 85.8483 99.9898ZM92.1231 93.269C90.6664 96.7415 86.2965 100.886 83.9434 103.238C84.7278 105.59 85.7362 108.503 87.0808 110.519C88.4254 108.503 89.3218 106.935 90.2182 104.918C92.1231 100.886 94.4761 97.3015 97.2773 94.3892L97.1653 93.8291C96.1569 93.9411 95.0364 94.0531 94.252 93.9411C93.4677 93.7171 92.6833 93.4931 92.1231 93.269Z" fill="#975C28"/>
<path fill-rule="evenodd" clip-rule="evenodd" d="M62.5424 124.296C61.9822 124.632 61.534 125.08 60.9738 125.641L61.6461 127.321L63.2148 125.641L62.5424 124.296Z" fill="#975C28"/>
<path d="M141.922 164.582L137.373 167.45L140.242 171.997L144.791 169.129L141.922 164.582Z" fill="#975C28"/>
<path d="M42.6801 164.633L39.8113 169.181L44.3603 172.049L47.2291 167.501L42.6801 164.633Z" fill="#975C28"/>
<path d="M169.382 129.519L166.691 134.174L171.349 136.864L174.039 132.208L169.382 129.519Z" fill="#975C28"/>
<path d="M14.898 129.441L10.2408 132.13L12.9311 136.786L17.5883 134.097L14.898 129.441Z" fill="#975C28"/>
<path d="M164.127 44.339L159.469 47.0278L162.159 51.684L166.817 48.9951L164.127 44.339Z" fill="#975C28"/>
<path d="M12.8838 46.2306L10.1935 50.8862L14.8506 53.5756L17.5409 48.92L12.8838 46.2306Z" fill="#975C28"/>
<path d="M135.04 13.8709L132.171 18.4185L136.72 21.2869L139.589 16.7393L135.04 13.8709Z" fill="#975C28"/>
<path d="M50.245 13.6194L45.6954 16.4873L48.5643 21.0354L53.1139 18.1675L50.245 13.6194Z" fill="#975C28"/>
<path d="M40.6921 34.1253C39.2354 35.2455 37.8908 36.4776 36.5462 37.8218C36.4342 37.0377 36.4342 36.1416 36.8824 35.3575C37.5547 34.1253 39.2354 33.4533 40.6921 34.1253ZM38.7872 32.3331C43.2692 28.4127 48.1994 25.0523 53.3537 22.252L55.4827 24.6042C50.5525 26.9565 45.9584 29.8688 41.8126 33.1172C41.2523 32.7812 40.2439 32.2211 38.7872 32.3331ZM27.6943 43.8705C29.9353 41.0701 32.2883 38.4938 34.8655 35.9175C34.7534 37.0377 34.8655 38.0458 35.3137 38.9419C33.9691 40.2861 32.6245 41.7422 31.2799 43.1984C29.9353 43.3104 28.8148 43.5344 27.6943 43.8705ZM35.8739 148.155C4.05173 112.982 6.18068 75.9062 23.6605 49.5831C25.1171 48.351 26.6858 47.4549 28.3666 46.8948C8.53372 73.1059 5.62043 112.646 36.2101 147.819L35.8739 148.155Z" fill="#975C28"/>
<path d="M80.3578 56.752C80.918 56.864 81.3662 57.2 81.7024 57.5361L82.0385 57.8721L81.5903 58.0961C79.0132 59.1043 75.7637 60.2244 72.6263 61.0085C70.0492 61.6806 67.472 62.0166 65.231 62.1286C61.6455 61.7926 60.637 60.1124 58.8442 57.5361C58.7322 57.4241 58.6201 57.2 58.5081 57.088C57.2755 55.2958 56.155 53.1676 55.0345 51.0393C53.1297 47.4549 51.2248 44.0945 49.32 42.6383C48.9838 42.4143 48.3115 41.8543 47.191 41.4062C46.0705 40.9581 44.6139 40.7341 42.597 40.8461L40.468 40.9581L42.3729 40.1741H42.4849C44.5018 39.2779 49.2079 37.2617 52.3453 41.7422L61.0852 54.2877C64.1106 58.7682 69.0407 57.9841 74.083 57.2C75.6517 56.976 77.2204 56.752 78.7891 56.64C79.2373 56.64 79.7975 56.64 80.3578 56.752ZM80.806 57.6481C80.5819 57.5361 80.3578 57.4241 80.1337 57.312C79.6855 57.2 79.2373 57.2 78.677 57.2C77.2204 57.3121 75.6517 57.5361 74.083 57.7601C68.9287 58.5442 63.7744 59.3283 60.4129 54.5117L51.673 41.9663C49.432 38.8299 46.2946 39.278 44.1657 39.95C45.3982 40.062 46.4067 40.2861 47.191 40.5101C48.4236 40.9581 49.0959 41.5182 49.5441 41.7422C51.561 43.3104 53.4658 46.7828 55.4827 50.3672C56.6032 52.3835 57.7237 54.5117 58.9563 56.3039C59.0683 56.4159 59.1804 56.64 59.2924 56.752C60.9732 59.2163 61.9816 60.6724 65.119 61.1205C67.2479 61.1205 69.8251 60.6724 72.4022 60.1124C75.4276 59.6643 78.3409 58.6562 80.806 57.6481Z" fill="#975C28"/>
<path d="M51.224 55.8559C53.465 60.8965 55.2578 63.2487 58.3952 64.9289C60.6362 66.1611 63.2134 66.3851 66.1267 66.2731H67.3592L66.3508 66.9452C64.3339 68.1773 61.8688 69.1854 59.4037 69.1854C57.3868 69.1854 55.2578 68.5133 53.465 66.9452C51.224 64.9289 49.2071 62.1286 46.9661 59.1042C41.5877 51.8234 35.9852 43.9825 26.9092 48.351C25.1164 49.1351 22.8754 50.8153 20.9705 53.3916C19.4018 55.5198 17.9452 58.0961 17.0488 61.2325L16.6006 62.9127L16.4886 61.1205C16.2645 57.8721 16.4886 54.5117 17.8332 51.4874C19.1777 48.463 21.5308 45.8867 25.4525 44.0945C37.666 39.1659 45.0613 48.127 51.224 55.8559ZM52.2325 58.6562C51.6722 57.9841 51.3361 56.976 50.7758 56.3039C45.7336 50.1432 40.019 43.0864 31.6153 43.3104C29.9345 43.3104 28.702 43.6465 27.3574 43.9825C26.7971 44.0945 26.2369 44.3185 25.6766 44.5426C21.867 46.3348 19.6259 48.7991 18.3934 51.5994C17.385 53.9517 17.0488 56.528 17.0488 59.1042C17.9452 56.64 19.1778 54.5117 20.5224 52.8315C21.1946 51.9354 21.8669 51.1513 22.5392 50.4793L22.6513 50.3672C23.9959 49.0231 25.4525 48.127 26.6851 47.5669C36.0973 42.9744 42.0359 51.0393 47.5264 58.5442C49.6553 61.4565 51.6722 64.2569 53.9132 66.2731C55.706 67.8413 57.6109 68.4013 59.5157 68.4013C61.4206 68.4013 63.3254 67.8413 65.0062 66.9452C62.5411 66.9452 60.3001 66.6091 58.2832 65.489C55.8181 64.2568 53.5771 62.3526 52.2325 58.6562Z" fill="#975C28"/>
<path d="M40.5803 41.0709C41.1406 41.1829 41.7008 41.2949 42.2611 41.5189C42.5972 41.6309 42.9334 41.6309 43.2695 41.7429C45.2864 42.191 46.7431 42.415 48.9841 44.2072C51.6733 46.5595 53.5781 50.0319 55.7071 54.0644C56.6035 55.6325 57.3878 57.3127 58.3963 58.8809C60.1891 62.3533 63.3265 63.4735 67.0241 63.1374C70.8338 62.9134 75.4279 61.2332 79.9099 59.217L82.5991 58.0968L80.246 59.889L79.4617 60.4491C72.7387 65.4897 69.3772 67.954 61.5337 66.6098C54.4745 65.2657 52.3456 59.889 50.3287 54.5124C49.4323 52.0481 48.4238 49.5838 46.9672 47.5676C45.3985 45.6634 43.0454 44.7673 41.0285 43.9832C39.6839 43.4231 38.3393 42.9751 37.3309 42.191C36.0983 41.4069 35.314 40.3988 34.8658 39.3907C34.1935 38.0465 34.1935 36.5903 34.4176 35.6942C34.5296 35.0221 34.8658 34.3501 35.202 33.79C35.7622 33.1179 36.4345 32.4459 37.3309 32.1098C38.2273 31.7738 39.1237 31.5497 40.1321 31.7738C40.9165 31.8858 41.7008 32.2218 42.3731 32.7819C42.5972 33.0059 42.8213 33.2299 43.0454 33.454C43.6057 34.2381 43.9418 35.1342 43.8298 36.2543C43.8298 37.2624 43.4936 38.3825 42.7093 39.2786C42.3731 39.7267 42.037 40.0627 41.5888 40.3988L40.5803 41.0709ZM41.8129 35.0222C42.3731 35.8062 42.7093 37.0384 42.2611 38.7186C42.8213 37.9345 43.1575 36.9264 43.1575 36.1423C43.1575 35.2462 42.9334 34.4621 42.4852 33.79C42.3731 33.566 42.149 33.454 41.9249 33.2299C41.2526 32.7819 40.5803 32.4458 39.908 32.3338C39.0116 32.2218 38.2273 32.3338 37.443 32.6699C36.6586 33.0059 35.9863 33.454 35.5381 34.126C35.2019 34.5741 34.9778 35.1342 34.8658 35.6942C34.7537 36.5903 34.7538 37.8225 35.314 39.0546C35.7622 39.9507 36.4345 40.8468 37.555 41.5189C38.4514 42.191 39.796 42.7511 41.1406 43.1991C43.2695 43.9832 45.6226 44.8793 47.4154 46.8955C48.872 49.0238 49.8805 51.4881 50.7769 53.9524C52.7938 59.217 54.8107 64.3696 61.5337 65.7137C68.5928 66.9459 71.8423 64.9296 77.5568 60.6731C73.8592 62.1293 70.2736 63.3614 67.0241 63.5855C62.9903 63.9215 59.6288 62.6894 57.724 58.9929C56.7155 57.3127 55.8191 55.7446 55.0348 54.1764C52.9058 50.2559 51.001 46.7835 48.4238 44.5433C46.2949 42.8631 44.9503 42.639 43.0454 42.191C42.7093 42.079 42.3731 42.079 42.037 41.967C40.4683 41.6309 39.2357 41.2949 38.3393 40.7348C37.4429 40.1747 36.7706 39.2786 36.5465 37.8225C36.2104 36.1423 36.7706 34.9101 37.555 34.2381C38.2273 33.79 39.0116 33.566 39.6839 33.678C40.5803 34.014 41.2526 34.3501 41.8129 35.0222ZM41.0285 39.9507C42.037 37.8225 41.8129 36.3663 41.2526 35.4702C40.9165 34.9101 40.3562 34.6861 39.6839 34.5741C39.1237 34.4621 38.4514 34.6861 38.0032 35.0222C37.3309 35.5822 36.8827 36.4783 37.2188 37.9345C37.4429 39.1666 38.0032 39.9507 38.7875 40.3988C39.2357 40.7348 39.796 40.9588 40.5803 41.1829L41.0285 39.9507Z" fill="#975C28"/>
<path d="M102.208 61.3452C98.5108 58.4328 92.236 56.5286 84.5045 56.3046C84.2804 56.5286 84.0563 56.8647 84.0563 57.0887C84.0563 57.4247 84.1684 57.7608 84.2804 58.2088C88.2022 58.3208 93.0203 58.8809 96.9421 60.5611C99.1831 61.4572 101.088 62.6893 102.433 64.3695C103.777 66.0497 104.561 68.178 104.561 70.8663C104.561 72.2104 104.337 73.5546 103.777 75.1228C105.234 72.8825 105.906 70.7543 106.018 68.8501C106.018 67.3939 105.794 66.0497 105.122 64.7056C104.561 63.4734 103.553 62.3533 102.208 61.3452ZM84.5045 55.6325C92.4601 55.8565 98.8469 57.7608 102.769 60.8971C104.113 62.0173 105.122 63.1374 105.906 64.4816C106.578 65.8257 106.915 67.2819 106.915 68.8501C106.802 71.5384 105.682 74.4507 103.217 77.4751L101.76 79.3793L102.657 77.139C103.665 74.7867 104.113 72.6585 104.225 70.8663C104.337 68.402 103.553 66.3858 102.208 64.8176C100.976 63.2494 99.071 62.0173 96.9421 61.1212C93.0203 59.441 88.2022 58.8809 84.2804 58.7689H84.0563L83.9443 58.5449C83.6081 57.9848 83.4961 57.4247 83.4961 56.9767C83.4961 56.4166 83.7202 55.9686 84.2804 55.6325L84.3925 55.5205L84.5045 55.6325Z" fill="#975C28"/>
<path fill-rule="evenodd" clip-rule="evenodd" d="M74.4198 68.5135C75.0921 68.1775 75.3162 67.9534 75.3162 67.5054C74.9801 67.9534 74.4198 68.1775 73.9716 68.4015C73.7475 68.5135 73.7475 68.5135 73.5234 68.7375L74.4198 68.5135Z" fill="#975C28"/>
<path d="M39.7952 57.2001C38.7868 56.64 35.0891 56.7521 34.1927 57.6482L34.0807 57.3121C35.6494 56.192 38.2265 55.856 40.1314 56.7521L39.7952 57.2001Z" fill="#975C28"/>
<path d="M101.871 103.126L100.19 109.287C99.4057 112.423 98.5093 115.671 97.2768 118.024C96.2683 120.152 93.1309 125.865 88.9851 125.417C85.3995 125.977 77.8921 113.095 75.7632 110.295L70.6089 102.678L71.6174 102.118L76.4355 109.735C78.3403 112.423 85.7356 124.968 89.0971 125.081C93.1309 124.968 95.7081 119.592 96.7165 117.464C98.3973 114.103 100.078 108.167 101.423 103.238C101.535 103.238 101.647 103.238 101.759 103.238C101.759 103.126 101.871 103.126 101.871 103.126ZM96.6045 98.0854C96.9406 97.3013 97.2768 96.4052 97.5009 95.5091L96.3804 90.2445C96.2683 89.9084 96.2683 89.3484 96.3804 88.7883C96.4924 88.2282 96.7165 87.5561 97.0527 86.7721L99.2937 82.2915V82.1795H99.4057C99.7419 82.0675 100.078 82.1795 100.302 82.4035C100.526 82.6276 100.638 82.9636 100.638 83.4117C100.638 84.7558 100.19 85.6519 99.6298 86.436C99.4057 86.8841 99.1816 87.3321 98.9575 87.7802C98.8455 88.1162 98.7334 88.4523 98.8455 88.6763C98.8455 88.7883 98.9575 88.7883 98.9575 88.7883C99.2937 87.6682 99.6298 87.1081 100.078 86.548C100.19 86.324 100.302 86.212 100.414 85.988C101.086 85.0919 101.423 83.5237 101.647 82.0675C101.759 81.3954 101.871 80.7234 102.095 80.1633V80.0513H102.207C102.319 80.0513 102.431 80.0513 102.543 80.0513C102.879 80.1633 103.215 80.2753 103.44 80.6113C103.664 80.9474 103.776 81.2834 103.776 81.7315C103.776 81.9555 103.776 82.1795 103.664 82.4035L103.552 82.8516C103.664 82.7396 103.776 82.6276 103.888 82.5156C104.112 82.4035 104.224 82.2915 104.448 82.2915C104.672 82.2915 104.784 82.4035 105.008 82.5156C105.568 83.0756 105.456 83.7477 105.456 84.4198C105.568 84.4198 105.568 84.3078 105.681 84.3078C105.793 84.3078 106.017 84.3078 106.129 84.3078C106.241 84.4198 106.353 84.5318 106.465 84.6438C106.689 84.9798 106.801 85.5399 106.689 86.212H106.801C107.025 86.212 107.137 86.324 107.361 86.436C107.473 86.548 107.585 86.7721 107.697 86.8841C107.809 87.3321 107.809 87.8922 107.697 88.3402C107.473 89.0123 107.361 89.5724 107.137 90.1324C106.913 90.6925 106.577 91.2526 106.241 91.8126C105.905 92.2607 105.568 92.5967 105.344 92.9328C104.784 93.6048 104.224 94.2769 103.44 95.5091L102.655 98.4214L102.543 98.6454C102.431 98.5334 102.319 98.5334 102.095 98.4214V98.3094L102.879 95.3971C103.664 94.0529 104.224 93.3808 104.784 92.7087C105.12 92.3727 105.344 92.0367 105.681 91.7006C106.017 91.2526 106.353 90.6925 106.577 90.1324C106.801 89.5724 107.025 89.0123 107.137 88.3402C107.249 87.8922 107.249 87.4441 107.137 87.1081C107.137 86.9961 107.025 86.8841 106.913 86.7721C106.913 86.7721 106.801 86.66 106.689 86.66C106.129 86.548 105.905 87.2201 105.905 87.3321L106.017 86.66C106.241 85.8759 106.129 85.2039 106.017 84.9798C106.017 84.8678 105.905 84.8678 105.793 84.7558H105.681C105.568 84.7558 105.456 84.9798 105.344 85.2039L104.896 86.212C105.12 85.0919 105.12 84.3078 105.008 83.4117C104.896 83.1876 104.784 82.6276 104.448 82.6276C104.112 82.6276 103.664 83.0756 103.552 83.5237C103.552 84.8678 103.215 85.6519 102.767 86.324C103.215 84.9798 103.215 82.9636 103.215 81.5074C103.215 81.0594 103.103 80.8354 102.991 80.6113C102.879 80.3873 102.655 80.2753 102.319 80.2753H102.207C102.095 80.8354 101.983 81.3954 101.871 81.9555C101.535 83.5237 101.199 85.0919 100.526 86.1C100.414 86.324 100.302 86.548 100.078 86.66C99.7419 87.2201 99.4057 87.6682 98.9575 88.9003V89.0123H98.8455C98.3973 89.0123 98.1732 88.7883 98.1732 88.4522C98.0611 88.2282 98.1732 87.7802 98.2852 87.3321C98.5093 86.8841 98.7334 86.436 98.9575 85.988C99.4057 85.2039 99.8539 84.3078 99.8539 83.1876C99.8539 82.7396 99.7419 82.5156 99.6298 82.4035C99.5178 82.2915 99.4057 82.2915 99.2937 82.2915L97.0527 86.66C96.7165 87.4441 96.4924 88.0042 96.3804 88.5643C96.2683 89.1243 96.2683 89.4604 96.3804 89.7964L97.5009 95.061C97.2768 95.9571 96.9406 96.7412 96.6045 97.6373C96.9406 98.0854 96.8286 98.0854 96.6045 98.0854ZM63.2136 82.2915C64.11 84.0837 65.6787 85.3159 67.4715 86.1C69.9366 87.2201 75.6511 86.7721 77.7801 88.3402C81.3657 90.9165 82.5982 105.03 88.4248 112.647C89.6574 108.391 90.6658 108.167 92.4586 105.254C93.4671 103.686 94.5876 102.006 95.484 100.214C95.7081 100.214 95.8201 100.214 96.0442 100.214C95.1478 102.118 94.0273 103.798 93.0189 105.478C91.114 108.503 89.4333 111.191 89.0971 114.215L88.9851 114.663L88.6489 114.327C83.8308 109.175 81.3657 101.222 79.4608 94.2769C78.9006 92.3727 77.7801 89.6844 76.5475 89.2363C74.0824 87.8922 70.3848 88.1162 67.0233 86.66C65.1184 85.8759 63.7739 84.7558 62.9895 82.2915H63.2136Z" fill="#975C28"/>
<path d="M98.2864 98.1968C97.6141 98.0848 97.0539 97.9728 96.3816 98.0848C96.1575 98.1968 95.8213 98.6448 95.5972 99.0929C95.4852 99.4289 95.3731 99.877 95.3731 100.213C96.0454 100.213 96.7177 100.325 97.39 100.437C97.9503 100.549 98.5105 100.773 99.0708 100.997C99.0708 100.549 99.1828 100.213 99.2949 99.765C99.4069 99.3169 99.631 98.9809 99.9672 98.6448C99.4069 98.5328 98.8467 98.3088 98.2864 98.1968ZM96.2695 97.6367C96.9418 97.5247 97.7262 97.6367 98.3985 97.7487C99.0708 97.8608 99.7431 98.0848 100.415 98.4208L100.639 98.5328C99.519 99.0929 98.9587 100.549 99.519 101.669L99.1828 101.557C98.5105 101.221 97.9503 100.997 97.278 100.885C96.6057 100.773 95.9334 100.661 95.149 100.661H94.9249V100.549C94.8129 100.101 94.9249 99.5409 95.149 98.9809C95.4852 98.3088 95.9334 97.7487 96.2695 97.6367Z" fill="#975C28"/>
<path d="M103.888 101.781V101.669C104 101.445 104 101.109 104 100.773C104 100.437 103.888 100.101 103.776 99.7651C103.664 99.541 103.552 99.317 103.328 99.205C102.88 98.7569 102.32 98.5329 101.647 98.5329C100.975 98.5329 100.415 98.7569 99.9665 99.205C99.5183 99.6531 99.2942 100.213 99.2942 100.885C99.2942 101.557 99.5183 102.117 99.9665 102.565C100.415 103.013 100.975 103.237 101.647 103.237C102.32 103.237 102.88 103.013 103.328 102.565C103.552 102.229 103.776 102.005 103.888 101.781ZM101.759 97.8608C102.544 97.8608 103.216 98.1969 103.776 98.6449C104.336 99.205 104.561 99.8771 104.561 100.661C104.561 101.445 104.224 102.117 103.776 102.677C103.216 103.237 102.544 103.461 101.759 103.461C100.975 103.461 100.303 103.125 99.7424 102.677C99.1821 102.117 98.958 101.445 98.958 100.661C98.958 99.8771 99.2942 99.205 99.7424 98.6449C100.303 98.1969 100.975 97.8608 101.759 97.8608Z" fill="#975C28"/>
<path d="M102.88 99.5413C102.544 99.2053 102.207 99.0933 101.647 99.0933C101.087 99.0933 100.751 99.3173 100.415 99.5413C100.078 99.8774 99.9664 100.213 99.9664 100.773C99.9664 101.222 100.19 101.67 100.415 102.006C100.751 102.342 101.087 102.454 101.647 102.454C102.207 102.454 102.544 102.23 102.88 102.006C103.216 101.67 103.328 101.334 103.328 100.773C103.44 100.213 103.216 99.7653 102.88 99.5413ZM101.759 98.5332C102.319 98.5332 102.88 98.7572 103.216 99.2053C103.552 99.5413 103.888 100.101 103.888 100.661C103.888 101.222 103.664 101.782 103.216 102.118C102.88 102.454 102.319 102.79 101.759 102.79C101.199 102.79 100.639 102.566 100.303 102.118C99.9664 101.782 99.6302 101.222 99.6302 100.661C99.6302 100.101 99.8543 99.5413 100.303 99.2053C100.639 98.7572 101.087 98.5332 101.759 98.5332Z" fill="#975C28"/>
<path fill-rule="evenodd" clip-rule="evenodd" d="M101.759 100.325C101.983 100.325 102.095 100.437 102.095 100.661C102.095 100.885 101.983 100.997 101.759 100.997C101.535 100.997 101.423 100.885 101.423 100.661C101.423 100.437 101.535 100.325 101.759 100.325Z" fill="#975C28"/>
<path d="M116.326 135.273C114.197 136.617 112.068 137.513 110.163 137.737C108.818 137.962 107.586 137.85 106.689 137.401C105.681 137.065 104.897 136.281 104.561 135.385C104.336 134.825 104.224 134.153 104.336 133.369C104.673 130.345 107.25 129.113 111.059 127.208C116.326 124.52 124.281 120.712 132.237 109.062C137.503 100.661 138.736 89.5719 136.159 79.0427C133.694 69.0735 127.755 59.6644 118.343 53.6157L118.679 53.0557C128.203 59.3284 134.254 68.8495 136.719 78.9307C139.408 89.5719 138.063 100.885 132.685 109.398C124.617 121.16 116.662 125.08 111.284 127.768C107.586 129.561 105.233 130.793 104.897 133.369C104.785 134.041 104.897 134.601 105.121 135.049C105.457 135.833 106.017 136.393 106.802 136.729C107.698 137.065 108.818 137.177 109.939 136.953C111.732 136.729 113.749 135.945 115.878 134.601L116.326 135.273Z" fill="#975C28"/>
</svg>
