<svg width="354" height="66" viewBox="0 0 354 66" fill="none" xmlns="http://www.w3.org/2000/svg">
<path d="M332.399 1.57986C332.555 1.57986 332.711 1.7359 332.711 1.89195V3.29639C332.711 3.45244 332.555 3.60849 332.399 3.60849L328.341 3.92059C328.185 3.92059 328.028 4.07663 328.028 4.23268V10.7867C328.028 10.9428 328.185 11.0988 328.341 11.0988H330.37C331.775 11.0988 333.024 11.2549 334.116 11.4109C335.365 11.567 336.302 12.0351 337.238 12.5033C338.175 13.1275 338.955 13.7517 339.424 14.688C340.048 15.6242 340.204 16.8726 340.204 18.2771C340.204 19.5255 339.892 20.6178 339.268 21.7102C338.643 22.8025 337.863 23.7388 336.614 24.363C336.146 24.519 335.677 24.8311 335.053 24.9872C334.429 25.1432 333.96 25.2993 333.336 25.4553C332.711 25.6114 332.087 25.6114 331.307 25.6114C330.682 25.6114 329.902 25.6114 329.277 25.6114H319.599C319.443 25.6114 319.287 25.4553 319.287 25.2993V23.8948C319.287 23.7388 319.443 23.5827 319.599 23.5827L323.345 23.2706C323.502 23.2706 323.658 23.1146 323.658 22.9585V4.23268C323.658 4.07663 323.502 3.92059 323.345 3.92059L319.599 3.60849C319.443 3.60849 319.287 3.45244 319.287 3.29639V1.89195C319.287 1.7359 319.443 1.57986 319.599 1.57986H332.399ZM328.185 22.9585C328.185 23.1146 328.341 23.2706 328.497 23.2706H330.37C331.15 23.2706 331.931 23.2706 332.555 23.1146C333.18 22.9585 333.804 22.8025 334.272 22.3343C334.741 22.0223 335.209 21.5541 335.521 20.9299C335.833 20.3057 335.99 19.6815 335.99 18.7452C335.99 17.6529 335.833 16.8726 335.521 16.0924C335.209 15.4682 334.741 14.844 334.116 14.3759C333.492 13.9077 332.868 13.5956 332.087 13.4396C331.307 13.2835 330.526 13.1275 329.589 13.1275H328.497C328.341 13.1275 328.185 13.2835 328.185 13.4396V22.9585ZM345.356 4.07664C345.356 3.92059 345.2 3.76453 345.043 3.76453L341.765 3.45244C341.609 3.45244 341.453 3.2964 341.453 3.14035V1.7359C341.453 1.57986 341.609 1.4238 341.765 1.4238H353.473C353.629 1.4238 353.785 1.57986 353.785 1.7359V3.14035C353.785 3.2964 353.629 3.45244 353.473 3.45244L349.726 3.76453C349.57 3.76453 349.414 3.92059 349.414 4.07664V22.8025C349.414 22.9586 349.57 23.1146 349.726 23.1146L353.473 23.4267C353.629 23.4267 353.785 23.5827 353.785 23.7388V25.1432C353.785 25.2993 353.629 25.4553 353.473 25.4553H341.765C341.609 25.4553 341.453 25.2993 341.453 25.1432V23.7388C341.453 23.5827 341.609 23.4267 341.765 23.4267L345.043 23.1146C345.2 23.1146 345.356 22.9586 345.356 22.8025V4.07664ZM317.414 1.57986C317.57 1.57986 317.726 1.57986 317.726 1.7359V8.91415C317.726 9.0702 317.57 9.0702 317.414 9.0702H315.697H315.54L315.384 8.91415L314.448 4.07664C314.448 3.92059 314.448 3.92059 314.292 3.92059H309.452C309.452 3.92059 309.453 3.92059 309.296 3.92059V4.07664V22.8025C309.296 22.9586 309.453 23.1146 309.609 23.1146L313.355 23.4267C313.511 23.4267 313.667 23.5827 313.667 23.7388V25.1432C313.667 25.2993 313.511 25.4553 313.355 25.4553H301.023C300.867 25.4553 300.711 25.2993 300.711 25.1432V23.7388C300.711 23.5827 300.867 23.4267 301.023 23.4267L304.769 23.1146C304.926 23.1146 305.082 22.9586 305.082 22.8025V4.07664C305.082 3.92059 305.082 3.92059 304.926 3.92059H304.769H299.93C299.774 3.92059 299.774 3.92059 299.774 4.07664L298.838 8.91415C298.838 8.91415 298.838 9.0702 298.682 9.0702H298.525H296.808C296.652 9.0702 296.496 9.0702 296.496 8.91415V1.7359C296.496 1.57986 296.652 1.57986 296.808 1.57986H317.414ZM282.603 0.643555C286.35 0.643555 289.316 1.7359 291.345 4.07664C293.374 6.26132 294.311 9.3823 294.311 13.2835C294.311 17.0287 293.218 20.1497 291.033 22.4904C288.847 24.9872 285.881 26.2356 282.291 26.2356C278.545 26.2356 275.735 25.1432 273.549 22.8025C271.52 20.6178 270.427 17.4968 270.427 13.5956C270.427 9.85044 271.52 6.72946 273.706 4.38873C276.047 1.89195 279.013 0.643555 282.603 0.643555ZM281.979 3.14035C279.637 3.14035 277.92 4.07663 276.828 6.10527C275.891 7.66575 275.423 9.85044 275.423 12.3472C275.423 17.4968 276.828 20.9299 279.481 22.8025C280.418 23.4267 281.667 23.7388 282.915 23.7388C287.13 23.7388 289.316 20.6178 289.316 14.3759C289.316 11.2549 288.847 8.7581 287.755 6.72946C286.662 4.38873 284.633 3.14035 281.979 3.14035ZM259.813 0.643555C262.31 0.643555 264.652 1.11171 266.837 1.89195C266.993 1.89195 267.149 2.04799 267.149 2.20404V8.60206C267.149 8.75811 266.993 8.91415 266.837 8.91415H265.12C264.964 8.91415 264.808 8.75811 264.808 8.60206L263.871 4.38873C263.871 4.23268 263.871 4.23269 263.715 4.07664C262.154 3.29639 260.905 2.98429 259.5 2.98429C257.159 2.98429 255.442 3.92058 254.037 5.94922C252.788 7.66576 252.164 9.85044 252.164 12.1912C252.164 15.3122 252.788 17.8089 254.037 19.6815C255.598 21.8662 257.627 22.9585 260.593 22.9585C262.779 22.9585 264.652 22.3343 266.681 20.9299C266.837 20.9299 266.837 20.7739 266.837 20.9299C266.837 20.9299 266.837 21.086 266.993 21.086L267.774 22.4904C267.774 22.6464 267.774 22.8025 267.618 22.8025C264.652 24.9872 261.686 26.0795 258.72 26.0795C255.286 26.0795 252.476 24.9872 250.447 22.8025C248.417 20.6178 247.481 17.8089 247.481 14.0638C247.481 10.3186 248.573 7.04156 250.759 4.54478C253.256 2.04799 256.222 0.643555 259.813 0.643555ZM237.803 23.1146C235.617 25.2993 233.119 26.3916 230.466 26.3916C227.812 26.3916 225.939 25.2993 225.002 22.9585C224.69 22.1783 224.534 21.3981 224.534 20.4618C224.534 17.4968 226.095 15.1561 229.061 13.7517C229.997 13.2835 230.934 12.9714 231.871 12.8154C233.9 12.3472 235.773 12.0351 237.49 11.8791V7.66575C237.49 4.85687 236.085 3.45244 233.432 3.45244C231.871 3.45244 230.622 3.76453 229.373 4.38873C229.217 4.54478 229.217 4.70083 229.061 4.85688L228.28 8.91415C228.28 9.0702 228.124 9.22624 227.968 9.22624H226.251C226.095 9.22624 225.939 9.0702 225.939 8.91415V2.82824C225.939 2.67219 226.095 2.6722 226.251 2.51615C229.061 1.42381 231.715 0.95566 234.212 0.95566C237.802 0.95566 240.144 2.048 241.081 4.23268C241.549 5.01293 241.705 6.10527 241.705 7.35366V22.3343C241.705 22.4904 241.705 22.6465 241.861 22.6465L245.295 23.5827C245.451 23.7388 245.608 23.7388 245.608 23.8948V24.8311C245.608 24.9872 245.451 25.1432 245.451 25.1432L238.427 26.0795C238.271 26.0795 238.115 25.9235 238.115 25.7674L237.803 23.1146ZM237.49 14.0638C235.617 14.2198 234.368 14.3759 233.432 14.688C233.119 14.688 232.807 14.844 232.183 15.1561C230.31 15.7803 229.373 17.1847 229.373 19.3694C229.373 21.7102 230.466 22.9585 232.807 22.9585C233.432 22.9585 234.212 22.8025 235.149 22.4904C235.617 22.3343 236.241 22.0223 237.178 21.5541C237.334 21.3981 237.49 21.242 237.49 21.242V14.0638ZM202.992 0.95566C202.992 0.95566 203.148 0.95566 203.304 0.95566H204.709C204.865 0.95566 205.021 1.1117 205.021 1.26775V3.92059C207.519 1.89196 210.017 0.799613 212.67 0.799613C215.48 0.799613 217.822 2.048 219.539 4.38873C221.1 6.57341 221.88 9.0702 221.88 12.1912C221.88 16.2484 220.788 19.6815 218.446 22.3343C216.105 24.9872 212.826 26.3916 208.924 26.3916C207.831 26.3916 206.582 26.2356 205.021 25.9235V36.5348C205.021 36.6908 205.178 36.8469 205.334 36.8469L209.392 37.159C209.548 37.159 209.704 37.315 209.704 37.4711V38.8755C209.704 39.0316 209.548 39.1876 209.392 39.1876H196.904C196.748 39.1876 196.592 39.0316 196.592 38.8755V37.4711C196.592 37.315 196.748 37.159 196.904 37.159L200.651 36.8469C200.807 36.8469 200.963 36.6908 200.963 36.5348V4.70083C200.963 4.54479 200.807 4.38873 200.651 4.38873L196.904 3.92059C196.748 3.92059 196.592 3.76453 196.592 3.60849V2.3601C196.592 2.20405 196.748 2.048 196.748 2.048L202.992 0.95566ZM205.178 22.4904C205.958 23.2706 207.363 23.7388 209.548 23.7388C213.295 23.7388 215.636 21.7102 216.729 17.6529C217.041 16.4045 217.197 15.1561 217.197 13.5956C217.197 10.9428 216.729 8.91415 215.792 7.35366C214.7 5.32503 212.983 4.38873 210.485 4.38873C208.612 4.38873 206.895 4.85688 205.334 5.79317C205.178 5.79317 205.021 5.94922 205.021 6.10527V22.4904H205.178ZM182.387 1.57986C182.543 1.57986 182.699 1.7359 182.699 1.89195V3.29639C182.699 3.45244 182.543 3.60849 182.387 3.60849L179.265 3.92059C179.109 3.92059 178.953 4.07663 178.953 4.23268V12.0351C178.953 12.1912 178.953 12.1912 179.109 12.1912H179.733C180.202 12.1912 180.826 12.1912 181.294 12.0351C181.763 11.8791 182.387 11.723 182.855 11.4109C183.324 11.0988 183.792 10.6307 184.26 10.0065C184.728 9.38229 185.197 8.75811 185.509 7.82181L186.445 5.63713C186.914 4.70083 187.226 3.92059 187.694 3.45244C188.163 2.82824 188.475 2.36009 188.943 2.048C189.411 1.7359 189.724 1.4238 190.192 1.26775C190.66 1.1117 191.129 0.95566 191.753 0.95566C191.909 0.95566 192.221 0.955657 192.533 1.11171C192.846 1.11171 193.158 1.26775 193.314 1.26775C193.626 1.4238 193.782 1.42381 194.094 1.57986C194.407 1.73591 194.563 1.89195 194.719 2.048C194.719 2.048 194.875 2.20405 194.875 2.3601C194.875 2.51615 194.875 2.51615 194.875 2.51615L192.69 5.79317C192.533 5.94922 192.377 5.94922 192.221 5.79317C191.753 5.16898 191.129 4.85688 190.504 4.85688C190.348 4.85688 190.192 4.85688 189.88 5.01293C189.724 5.01293 189.411 5.16897 189.255 5.32502C189.099 5.48107 188.787 5.79317 188.631 6.10527C188.475 6.41736 188.163 6.88551 188.007 7.35366L187.382 8.60206C186.914 9.6944 186.446 10.4746 185.977 11.0988C185.509 11.723 184.885 12.1912 184.416 12.6593C185.509 13.1275 186.602 13.7517 187.382 14.5319C188.163 15.4682 188.943 16.4045 189.568 17.8089L192.221 23.2706L192.377 23.4267L195.499 23.7388C195.655 23.7388 195.812 23.8948 195.812 24.0509V25.4553C195.812 25.6114 195.655 25.7674 195.499 25.7674H188.475C188.475 25.7674 188.319 25.7674 188.319 25.6114L185.509 18.9013C185.041 17.8089 184.572 16.8726 184.104 16.2484C183.636 15.6242 183.167 15.1561 182.699 14.844C182.231 14.5319 181.763 14.3759 181.294 14.2198C180.826 14.2198 180.358 14.0638 179.733 14.0638H179.265C179.109 14.0638 179.109 14.0638 179.109 14.2198V22.9585C179.109 23.1146 179.265 23.2706 179.421 23.2706L182.543 23.5827C182.699 23.5827 182.855 23.7388 182.855 23.8948V25.2993C182.855 25.4553 182.699 25.6114 182.543 25.6114H170.992C170.835 25.6114 170.679 25.4553 170.679 25.2993V23.8948C170.679 23.7388 170.835 23.5827 170.992 23.5827L174.738 23.2706C174.894 23.2706 175.05 23.1146 175.05 22.9585V4.23268C175.05 4.07663 174.894 3.92059 174.738 3.92059L170.992 3.60849C170.835 3.60849 170.679 3.45244 170.679 3.29639V1.89195C170.679 1.7359 170.835 1.57986 170.992 1.57986H182.387ZM154.445 1.57986C154.601 1.57986 154.757 1.7359 154.757 1.89195V3.29639C154.757 3.45244 154.601 3.60849 154.445 3.60849L150.699 3.92059C150.542 3.92059 150.386 4.07663 150.386 4.23268V22.9585C150.386 23.1146 150.542 23.2706 150.699 23.2706L154.445 23.5827C154.601 23.5827 154.757 23.7388 154.757 23.8948V25.2993C154.757 25.4553 154.601 25.6114 154.445 25.6114H142.425C142.269 25.6114 142.113 25.4553 142.113 25.2993V23.8948C142.113 23.7388 142.269 23.5827 142.425 23.5827L145.859 23.2706C146.016 23.2706 146.172 23.1146 146.172 22.9585V15.0001C146.172 15.0001 146.172 15.0001 146.016 14.844H145.859H145.079C144.455 14.844 143.83 15.0001 143.362 15.1561C142.894 15.3122 142.425 15.6242 141.957 16.0924C141.489 16.4045 141.176 17.0287 140.864 17.4968C140.552 18.121 140.24 18.7452 139.928 19.6815L137.274 25.4553C137.274 25.6114 137.118 25.6114 137.118 25.6114H130.406C130.249 25.6114 130.093 25.4553 130.093 25.2993V23.8948C130.093 23.7388 130.249 23.5827 130.406 23.5827L133.528 23.2706C133.528 23.2706 133.684 23.2706 133.684 23.1146L136.181 18.4331C136.65 17.4968 137.274 16.7166 137.898 15.9363C138.523 15.1561 139.303 14.688 140.24 14.3759C139.303 14.2198 138.367 13.9077 137.742 13.5956C136.962 13.2835 136.337 12.8154 135.713 12.1912C135.089 11.567 134.776 10.9428 134.464 10.3186C134.152 9.53835 133.996 8.75811 133.996 7.82181C133.996 6.57342 134.308 5.48107 134.932 4.54478C135.557 3.76453 136.337 2.98429 137.43 2.51615C138.211 2.048 139.303 1.89195 140.396 1.7359C141.489 1.57986 142.737 1.57986 143.986 1.57986H154.445ZM144.142 3.76453C143.362 3.76453 142.737 3.76454 142.113 3.92059C141.489 4.07664 140.864 4.23268 140.396 4.54478C139.928 4.85687 139.459 5.32503 139.147 5.79317C138.835 6.26132 138.679 7.04157 138.679 7.82181C138.679 9.53835 139.147 10.7867 140.24 11.4109C141.176 12.1912 142.737 12.5033 144.611 12.5033H146.016C146.172 12.5033 146.328 12.3472 146.328 12.1912V3.76453C146.328 3.60848 146.172 3.45244 146.016 3.45244H144.142V3.76453ZM112.766 1.57986C112.922 1.57986 113.078 1.7359 113.078 1.89195V3.29639C113.078 3.45244 112.922 3.60849 112.766 3.60849L109.8 3.92059C109.644 3.92059 109.488 4.07663 109.488 4.23268V17.8089L120.571 5.94922C120.727 5.79317 120.727 5.79317 120.727 5.63713V4.54478C120.727 4.38873 120.571 4.23268 120.415 4.23268L117.449 3.92059C117.293 3.92059 117.137 3.76453 117.137 3.60849V2.048C117.137 1.89195 117.293 1.7359 117.449 1.7359H128.845C129.001 1.7359 129.157 1.89195 129.157 2.048V3.45244C129.157 3.60849 129.001 3.76453 128.845 3.76453L125.254 4.07664C125.098 4.07664 124.942 4.23268 124.942 4.38873V23.1146C124.942 23.2706 125.098 23.4267 125.254 23.4267L128.845 23.7388C129.001 23.7388 129.157 23.8948 129.157 24.0509V25.4553C129.157 25.6114 129.001 25.7674 128.845 25.7674H117.449C117.293 25.7674 117.137 25.6114 117.137 25.4553V24.0509C117.137 23.8948 117.293 23.7388 117.449 23.7388L120.415 23.4267C120.571 23.4267 120.727 23.2706 120.727 23.1146V8.91415L109.8 20.7739C109.644 20.9299 109.644 21.086 109.644 21.242V23.1146C109.644 23.2706 109.8 23.4267 109.956 23.4267L112.922 23.7388C113.078 23.7388 113.234 23.8948 113.234 24.0509V25.4553C113.234 25.6114 113.078 25.7674 112.922 25.7674H101.527C101.371 25.7674 101.215 25.6114 101.215 25.4553V24.0509C101.215 23.8948 101.371 23.7388 101.527 23.7388L105.117 23.4267C105.273 23.4267 105.429 23.2706 105.429 23.1146V4.38873C105.429 4.23268 105.273 4.07664 105.117 4.07664L101.527 3.76453C101.371 3.76453 101.215 3.60849 101.215 3.45244V2.048C101.215 1.89195 101.371 1.7359 101.527 1.7359H112.766V1.57986ZM94.1903 22.9585C94.1903 23.1146 94.3464 23.2706 94.5025 23.2706H98.7172C98.8733 23.2706 98.8733 23.2707 98.8733 23.4267L99.0294 23.5827V34.038C99.0294 34.1941 98.8733 34.3501 98.7172 34.3501H97.0001C96.844 34.3501 96.844 34.3501 96.844 34.1941L95.4391 26.0795C95.4391 25.9235 95.283 25.9235 95.1269 25.9235H76.707C76.5509 25.9235 76.3948 25.9235 76.3948 26.0795L74.9899 34.1941C74.9899 34.3501 74.9899 34.3501 74.8338 34.3501H73.1168C72.9607 34.3501 72.8045 34.1941 72.8045 34.038V23.5827V23.4267L72.9606 23.2706H75.9265C76.0826 23.2706 76.2387 23.2706 76.3948 23.1146C77.3314 21.8662 78.1119 20.6178 78.7363 19.0573C79.3607 17.6529 79.829 16.0924 80.2973 14.5319C80.7656 12.9714 81.0778 11.2549 81.2339 9.53835C81.39 7.82181 81.7023 5.94922 81.7023 4.23268C81.7023 4.07663 81.5462 3.92059 81.3901 3.92059L76.8631 3.60849C76.707 3.60849 76.5509 3.45244 76.5509 3.29639V1.89195C76.5509 1.7359 76.707 1.57986 76.8631 1.57986H98.0928C98.2489 1.57986 98.405 1.7359 98.405 1.89195V3.29639C98.405 3.45244 98.2489 3.60849 98.0928 3.60849L94.3463 3.92059C94.1902 3.92059 94.0342 4.07663 94.0342 4.23268V22.9585H94.1903ZM89.8195 4.07664C89.8195 3.92059 89.6634 3.76453 89.5073 3.76453H84.1998C84.0437 3.76453 83.8877 3.92059 83.8877 4.07664C83.7316 5.94922 83.5754 7.66576 83.4193 9.3823C83.2632 11.0988 82.9511 12.6593 82.4828 14.2198C82.1706 15.7803 81.7022 17.3408 81.0778 18.7452C80.4534 20.1497 79.829 21.5541 79.0485 22.9585V23.1146H79.2047H89.3512C89.5073 23.1146 89.6633 22.9586 89.6633 22.8025V4.07664H89.8195ZM56.1018 1.57986C56.2579 1.57986 56.414 1.7359 56.414 1.89195V3.29639C56.414 3.45244 56.2579 3.45244 56.2579 3.45244L53.4481 3.76453C53.1359 3.76453 53.1359 3.92059 53.292 4.07664L59.536 19.8376L65.9361 4.07664C66.0922 3.76454 65.9361 3.76453 65.78 3.76453L62.9702 3.45244C62.8141 3.45244 62.8141 3.45244 62.8141 3.29639V1.89195C62.8141 1.7359 62.9702 1.57986 63.1263 1.57986H71.7118C71.8679 1.57986 72.024 1.7359 72.024 1.89195V3.29639C72.024 3.45244 71.8679 3.60849 71.7118 3.60849L68.7459 3.92059C68.5898 3.92059 68.5898 3.92059 68.5898 4.07664L59.0677 27.3279C55.6335 35.7546 52.6676 39.8118 50.17 39.8118C50.0139 39.8118 50.0139 39.8118 49.8578 39.6558L47.3602 37.0029C47.2041 36.8469 47.2041 36.6909 47.3602 36.6909L47.9846 35.5985C47.9846 35.5985 48.1407 35.4425 48.2968 35.4425C50.0139 35.4425 51.4188 34.9743 52.3554 34.1941C53.1359 33.5699 54.0725 32.3215 55.0091 30.761C55.6335 29.6686 56.414 28.1082 57.1945 26.0795C57.1945 25.9235 57.1945 25.6114 57.1945 25.4553L48.4529 4.07664C48.4529 3.92059 48.2968 3.92059 48.2968 3.92059L45.1748 3.60849C45.0187 3.60849 45.0187 3.60849 45.0187 3.45244V2.048C45.0187 1.89195 45.1748 1.7359 45.3309 1.7359H56.1018V1.57986ZM43.926 1.57986C44.0821 1.57986 44.2382 1.57986 44.2382 1.7359V8.91415C44.2382 9.0702 44.0821 9.0702 43.926 9.0702H42.2089H42.0528L41.8967 8.91415L40.9601 4.07664C40.9601 3.92059 40.9601 3.92059 40.804 3.92059H35.9649C35.9649 3.92059 35.9649 3.92059 35.8088 3.92059V4.07664V22.8025C35.8088 22.9586 35.9649 23.1146 36.121 23.1146L39.8674 23.4267C40.0235 23.4267 40.1796 23.5827 40.1796 23.7388V25.1432C40.1796 25.2993 40.0235 25.4553 39.8674 25.4553H27.5355C27.3794 25.4553 27.2232 25.2993 27.2232 25.1432V23.7388C27.2232 23.5827 27.3794 23.4267 27.5355 23.4267L31.2819 23.1146C31.438 23.1146 31.5941 22.9586 31.5941 22.8025V4.07664C31.5941 3.92059 31.5941 3.92059 31.438 3.92059H31.2819H26.4427C26.2866 3.92059 26.2867 3.92059 26.2867 4.07664L25.3501 8.91415C25.3501 8.91415 25.3501 9.0702 25.194 9.0702H25.0378H23.3207C23.1646 9.0702 23.0086 9.0702 23.0086 8.91415V1.7359C23.0086 1.57986 23.1646 1.57986 23.3207 1.57986H43.926ZM12.7059 0.643555C15.2035 0.643555 17.545 1.11171 19.7304 1.89195C19.8865 1.89195 20.0427 2.04799 20.0427 2.20404V8.60206C20.0427 8.75811 19.8865 8.91415 19.7304 8.91415H18.0133C17.8572 8.91415 17.7012 8.75811 17.7012 8.60206L16.7646 4.38873C16.7646 4.23268 16.7645 4.23269 16.6084 4.07664C15.0474 3.29639 13.7986 2.98429 12.3937 2.98429C10.0522 2.98429 8.33511 3.92058 6.93021 5.94922C5.6814 7.66576 5.05703 9.85044 5.05703 12.1912C5.05703 15.3122 5.6814 17.8089 6.93021 19.6815C8.49121 21.8662 10.5205 22.9585 13.4864 22.9585C15.6718 22.9585 17.545 22.3343 19.5743 20.9299C19.7304 20.9299 19.7304 20.7739 19.7304 20.9299C19.7304 20.9299 19.7305 21.086 19.8866 21.086L20.6671 22.4904C20.6671 22.6464 20.667 22.8025 20.5109 22.8025C17.545 24.9872 14.5791 26.0795 11.6132 26.0795C8.17901 26.0795 5.36922 24.9872 3.33992 22.8025C1.31062 20.6178 0.374023 17.8089 0.374023 14.0638C0.374023 10.3186 1.46673 7.04156 3.65214 4.54478C6.14974 2.04799 9.11563 0.643555 12.7059 0.643555Z" fill="#975C28"/>
<path d="M347.854 57.6013C346.293 59.1618 344.576 59.9421 342.702 59.9421C340.829 59.9421 339.424 59.1618 338.8 57.4453C338.644 56.9772 338.488 56.353 338.488 55.7288C338.488 53.5441 339.58 51.9836 341.61 51.0473C342.234 50.7352 342.858 50.5792 343.639 50.4231C345.044 50.111 346.449 49.955 347.698 49.7989V46.834C347.698 44.8053 346.761 43.713 344.888 43.713C343.795 43.713 342.858 43.869 342.078 44.3372C342.078 44.3372 341.922 44.4932 341.922 44.6493L341.453 47.6142C341.453 47.7703 341.454 47.7703 341.297 47.7703H340.049C339.893 47.7703 339.892 47.7703 339.892 47.6142V43.2449C339.892 43.0888 339.893 43.0888 340.049 43.0888C342.078 42.3086 343.951 41.9965 345.668 41.9965C348.166 41.9965 349.883 42.7767 350.507 44.3372C350.82 44.9614 350.976 45.7416 350.976 46.5219V57.1332C350.976 57.2892 350.976 57.2893 351.132 57.2893L353.473 58.0695C353.629 58.2255 353.629 58.2256 353.629 58.2256V58.8497C353.629 59.0058 353.473 59.0058 353.473 59.0058L348.322 59.63C348.166 59.63 348.166 59.63 348.166 59.4739L347.854 57.6013ZM347.541 51.2034C346.293 51.3594 345.2 51.3594 344.576 51.6715C344.419 51.6715 344.107 51.8276 343.639 51.9836C342.39 52.4517 341.61 53.388 341.61 54.9485C341.61 56.6651 342.39 57.4453 344.107 57.4453C344.576 57.4453 345.2 57.2892 345.824 57.1332C346.137 56.9771 346.605 56.8211 347.229 56.353C347.385 56.1969 347.385 56.1969 347.385 56.1969V51.2034H347.541ZM329.902 44.1811C329.902 44.0251 329.902 44.0251 329.746 44.0251H326H325.843V44.1811C325.843 45.5856 325.687 46.834 325.531 48.0824C325.375 49.1747 325.375 50.2671 325.219 51.2034C325.063 52.1397 324.907 53.0759 324.751 53.8562C324.595 54.6364 324.283 55.4167 323.97 56.1969C323.502 57.4453 322.878 58.3816 322.097 59.1618C321.317 59.786 320.536 60.0981 319.756 60.0981C319.443 60.0981 319.131 60.0981 318.663 59.9421C318.195 59.786 317.882 59.63 317.414 59.1618L317.258 59.0058C317.258 59.0058 317.258 58.8497 317.414 58.8497L318.819 56.6651C318.819 56.509 318.975 56.509 318.975 56.509C318.975 56.509 319.131 56.509 319.131 56.6651C319.287 56.8211 319.443 56.9771 319.756 57.1332C319.912 57.2892 320.224 57.2893 320.38 57.2893C320.536 57.2893 320.848 57.2893 321.004 57.2893C321.16 57.2893 321.317 57.1332 321.473 56.9772C321.629 56.8211 321.785 56.665 322.097 56.353C322.253 56.0409 322.409 55.7288 322.565 55.2606C322.878 54.6364 323.034 53.8562 323.19 53.0759C323.346 52.1396 323.502 51.3594 323.658 50.2671C323.814 49.3308 323.814 48.2384 323.97 47.3021C323.97 46.3658 324.126 45.2735 324.126 44.3372C324.126 44.1811 324.126 44.1811 324.126 44.1811C324.126 44.1811 324.126 44.1811 323.97 44.1811L321.317 43.8691C321.161 43.8691 321.16 43.8691 321.16 43.713V42.4646C321.16 42.3086 321.161 42.3086 321.317 42.3086H335.99C336.146 42.3086 336.146 42.3086 336.146 42.4646V43.4009C336.146 43.557 336.146 43.5569 335.99 43.5569L333.336 43.8691C333.18 43.8691 333.18 43.8691 333.18 44.0251V57.2893C333.18 57.4453 333.18 57.4453 333.336 57.4453L335.99 57.7574C336.146 57.7574 336.146 57.7574 336.146 57.9134V58.8497C336.146 59.0058 336.146 59.0058 335.99 59.0058H327.717C327.561 59.0058 327.561 59.0058 327.561 58.8497V57.9134C327.561 57.7574 327.561 57.7574 327.717 57.7574L329.902 57.4453C330.058 57.4453 330.058 57.4453 330.058 57.2893V44.1811H329.902ZM304.146 50.4231C304.146 52.6078 304.614 54.3243 305.55 55.5727C306.643 56.9771 308.048 57.7574 310.077 57.7574C311.638 57.7574 313.199 57.2892 314.448 56.353H314.604C314.604 56.353 314.604 56.509 314.76 56.509L315.229 57.4453C315.229 57.6014 315.229 57.6014 315.073 57.7574C312.887 59.3179 310.702 59.9421 308.516 59.9421C306.019 59.9421 304.146 59.1618 302.741 57.6013C301.336 56.0409 300.711 54.0122 300.711 51.5155C300.711 48.8626 301.336 46.6779 302.741 44.8053C304.146 42.7767 306.175 41.8404 308.672 41.8404C310.858 41.8404 312.575 42.4646 313.668 43.713C314.76 44.9614 315.385 46.6779 315.385 49.0187C315.385 49.4868 315.385 49.7989 315.385 50.2671C315.385 50.4231 315.385 50.4231 315.229 50.4231H304.146ZM308.36 43.5569C306.331 43.5569 305.082 44.6493 304.614 46.99C304.458 47.6142 304.302 48.3945 304.302 49.0187H311.951C311.951 45.2735 310.858 43.5569 308.36 43.5569ZM298.37 42.3086C298.526 42.3086 298.526 42.3086 298.526 42.4646V47.6142C298.526 47.7703 298.526 47.7703 298.37 47.7703H297.121H296.965C296.965 47.7703 296.965 47.7703 296.965 47.6142L296.341 44.1811C296.341 44.0251 296.341 44.0251 296.184 44.0251H292.75C292.75 44.0251 292.75 44.0251 292.594 44.0251V44.1811V57.4453C292.594 57.6014 292.594 57.6013 292.75 57.6013L295.404 57.9134C295.56 57.9134 295.56 57.9135 295.56 58.0695V59.0058C295.56 59.1618 295.56 59.1618 295.404 59.1618H286.662C286.506 59.1618 286.506 59.1618 286.506 59.0058V58.0695C286.506 57.9135 286.506 57.9134 286.662 57.9134L289.316 57.6013C289.472 57.6013 289.472 57.6014 289.472 57.4453V44.1811C289.472 44.0251 289.472 44.0251 289.472 44.0251C289.472 44.0251 289.472 44.0251 289.316 44.0251H285.882C285.726 44.0251 285.726 44.0251 285.726 44.1811L285.101 47.6142V47.7703H284.945H283.696C283.54 47.7703 283.54 47.7703 283.54 47.6142V42.4646C283.54 42.3086 283.54 42.3086 283.696 42.3086H298.37ZM260.438 42.3086C260.594 42.3086 260.594 42.3086 260.594 42.4646V43.4009C260.594 43.557 260.594 43.5569 260.438 43.5569L258.252 43.8691C258.096 43.8691 258.096 43.8691 258.096 44.0251V53.7001L265.901 45.2735C265.901 45.2735 266.057 45.1174 266.057 44.9614V44.1811C266.057 44.0251 266.057 44.0251 265.901 44.0251L263.716 43.713C263.56 43.713 263.56 43.713 263.56 43.5569V42.4646C263.56 42.3086 263.56 42.3086 263.716 42.3086H271.833C271.989 42.3086 271.989 42.3086 271.989 42.4646V43.4009C271.989 43.557 271.989 43.5569 271.833 43.5569L269.335 43.8691C269.179 43.8691 269.179 43.8691 269.179 44.0251V57.2893C269.179 57.4453 269.179 57.4453 269.335 57.4453L271.833 57.7574C271.989 57.7574 271.989 57.7574 271.989 57.9134V58.8497C271.989 59.0058 271.989 59.0058 271.833 59.0058H263.716C263.56 59.0058 263.56 59.0058 263.56 58.8497V57.9134C263.56 57.7574 263.56 57.7574 263.716 57.7574L265.901 57.4453C266.057 57.4453 266.057 57.4453 266.057 57.2893V47.1461L258.252 55.5727C258.096 55.7288 258.096 55.7288 258.096 55.8848V57.1332C258.096 57.2892 258.096 57.2893 258.252 57.2893L260.438 57.6013C260.594 57.6013 260.594 57.6014 260.594 57.7574V58.6937C260.594 58.8497 260.594 58.8497 260.438 58.8497H252.32C252.164 58.8497 252.164 58.8497 252.164 58.6937V57.7574C252.164 57.6014 252.164 57.6013 252.32 57.6013L254.818 57.2893C254.974 57.2893 254.974 57.2892 254.974 57.1332V43.8691C254.974 43.713 254.974 43.713 254.818 43.713L252.32 43.4009C252.164 43.4009 252.164 43.4009 252.164 43.2449V42.4646C252.164 42.3086 252.164 42.3086 252.32 42.3086H260.438ZM235.305 57.6013C233.744 59.1618 232.027 59.9421 230.154 59.9421C228.281 59.9421 226.876 59.1618 226.252 57.4453C226.095 56.9772 225.939 56.353 225.939 55.7288C225.939 53.5441 227.032 51.9836 229.061 51.0473C229.686 50.7352 230.31 50.5792 231.091 50.4231C232.496 50.111 233.9 49.955 235.149 49.7989V46.834C235.149 44.8053 234.213 43.713 232.339 43.713C231.247 43.713 230.31 43.869 229.53 44.3372C229.53 44.3372 229.374 44.4932 229.374 44.6493L228.905 47.6142C228.905 47.7703 228.905 47.7703 228.749 47.7703H227.5C227.344 47.7703 227.344 47.7703 227.344 47.6142V43.2449C227.344 43.0888 227.344 43.0888 227.5 43.0888C229.53 42.3086 231.403 41.9965 233.12 41.9965C235.618 41.9965 237.335 42.7767 237.959 44.3372C238.271 44.9614 238.427 45.7416 238.427 46.5219V57.1332C238.427 57.2892 238.427 57.2893 238.583 57.2893L240.925 58.0695C241.081 58.2255 241.081 58.2256 241.081 58.2256V58.8497C241.081 59.0058 240.925 59.0058 240.925 59.0058L235.93 59.63C235.774 59.63 235.774 59.63 235.774 59.4739L235.305 57.6013ZM234.993 51.2034C233.744 51.3594 232.652 51.3594 232.027 51.6715C231.871 51.6715 231.559 51.8276 231.091 51.9836C229.842 52.4517 229.061 53.388 229.061 54.9485C229.061 56.6651 229.842 57.4453 231.559 57.4453C232.027 57.4453 232.652 57.2892 233.276 57.1332C233.588 56.9771 234.057 56.8211 234.681 56.353C234.837 56.1969 234.837 56.1969 234.837 56.1969V51.2034H234.993ZM212.203 42.3086C212.359 42.3086 212.359 42.3086 212.359 42.4646V43.4009C212.359 43.557 212.359 43.5569 212.203 43.5569L210.329 43.8691C210.173 43.8691 210.173 43.8691 210.173 44.0251V57.4453C210.173 57.6014 210.173 57.6013 210.329 57.6013H216.886C217.042 57.6013 217.042 57.6014 217.042 57.4453V44.1811C217.042 44.0251 217.042 44.0251 216.886 44.0251L215.012 43.713C214.856 43.713 214.856 43.713 214.856 43.5569V42.4646C214.856 42.3086 214.856 42.3086 215.012 42.3086H222.973C223.13 42.3086 223.13 42.3086 223.13 42.4646V43.4009C223.13 43.557 223.13 43.5569 222.973 43.5569L220.32 44.0251C220.164 44.0251 220.164 44.0251 220.164 44.1811V57.4453C220.164 57.6014 220.164 57.6013 220.32 57.6013H223.442H223.598V57.7574V65.0917C223.598 65.2477 223.598 65.2478 223.442 65.2478H222.193C222.037 65.2478 222.037 65.2477 222.037 65.0917L221.1 59.3179C221.1 59.1618 221.1 59.1618 220.944 59.1618H204.241C204.085 59.1618 204.085 59.1618 204.085 59.0058V58.0695C204.085 57.9135 204.085 57.9134 204.241 57.9134L206.895 57.6013C207.051 57.6013 207.051 57.6014 207.051 57.4453V44.1811C207.051 44.0251 207.051 44.0251 206.895 44.0251L204.241 43.713C204.085 43.713 204.085 43.713 204.085 43.5569V42.4646C204.085 42.3086 204.085 42.3086 204.241 42.3086H212.203ZM190.036 42.3086C190.192 42.3086 190.192 42.3086 190.192 42.4646V43.4009C190.192 43.557 190.192 43.5569 190.036 43.5569L187.851 43.8691C187.695 43.8691 187.695 43.8691 187.695 44.0251V53.7001L195.5 45.2735C195.5 45.2735 195.656 45.1174 195.656 44.9614V44.1811C195.656 44.0251 195.656 44.0251 195.5 44.0251L193.314 43.713C193.158 43.713 193.158 43.713 193.158 43.5569V42.4646C193.158 42.3086 193.158 42.3086 193.314 42.3086H201.432C201.588 42.3086 201.588 42.3086 201.588 42.4646V43.4009C201.588 43.557 201.588 43.5569 201.432 43.5569L198.934 43.8691C198.778 43.8691 198.778 43.8691 198.778 44.0251V57.2893C198.778 57.4453 198.778 57.4453 198.934 57.4453L201.432 57.7574C201.588 57.7574 201.588 57.7574 201.588 57.9134V58.8497C201.588 59.0058 201.588 59.0058 201.432 59.0058H193.314C193.158 59.0058 193.158 59.0058 193.158 58.8497V57.9134C193.158 57.7574 193.158 57.7574 193.314 57.7574L195.5 57.4453C195.656 57.4453 195.656 57.4453 195.656 57.2893V47.1461L187.851 55.5727C187.695 55.7288 187.695 55.7288 187.695 55.8848V57.1332C187.695 57.2892 187.695 57.2893 187.851 57.2893L190.036 57.6013C190.192 57.6013 190.192 57.6014 190.192 57.7574V58.6937C190.192 58.8497 190.192 58.8497 190.036 58.8497H181.919C181.763 58.8497 181.763 58.8497 181.763 58.6937V57.7574C181.763 57.6014 181.763 57.6013 181.919 57.6013L184.417 57.2893C184.573 57.2893 184.573 57.2892 184.573 57.1332V43.8691C184.573 43.713 184.573 43.713 184.417 43.713L181.919 43.4009C181.763 43.4009 181.763 43.4009 181.763 43.2449V42.4646C181.763 42.3086 181.763 42.3086 181.919 42.3086H190.036ZM173.334 44.1811C173.334 44.0251 173.334 44.0251 173.177 44.0251H169.431H169.275V44.1811C169.275 45.5856 169.119 46.834 168.963 48.0824C168.807 49.1747 168.807 50.2671 168.651 51.2034C168.494 52.1397 168.338 53.0759 168.182 53.8562C168.026 54.6364 167.714 55.4167 167.402 56.1969C166.933 57.4453 166.309 58.3816 165.529 59.1618C164.748 59.786 163.968 60.0981 163.187 60.0981C162.875 60.0981 162.563 60.0981 162.094 59.9421C161.626 59.786 161.314 59.63 160.846 59.1618L160.689 59.0058C160.689 59.0058 160.689 58.8497 160.846 58.8497L162.25 56.6651C162.25 56.509 162.407 56.509 162.407 56.509C162.407 56.509 162.563 56.509 162.563 56.6651C162.719 56.8211 162.875 56.9771 163.187 57.1332C163.343 57.2892 163.655 57.2893 163.811 57.2893C163.968 57.2893 164.28 57.2893 164.436 57.2893C164.592 57.2893 164.748 57.1332 164.904 56.9772C165.06 56.8211 165.216 56.665 165.529 56.353C165.685 56.0409 165.841 55.7288 165.997 55.2606C166.309 54.6364 166.465 53.8562 166.621 53.0759C166.777 52.1396 166.933 51.3594 167.09 50.2671C167.246 49.3308 167.246 48.2384 167.402 47.3021C167.402 46.3658 167.558 45.2735 167.558 44.3372C167.558 44.1811 167.558 44.1811 167.558 44.1811C167.558 44.1811 167.558 44.1811 167.402 44.1811L164.748 43.8691C164.592 43.8691 164.592 43.8691 164.592 43.713V42.4646C164.592 42.3086 164.592 42.3086 164.748 42.3086H179.421C179.578 42.3086 179.578 42.3086 179.578 42.4646V43.4009C179.578 43.557 179.578 43.5569 179.421 43.5569L176.612 44.0251C176.456 44.0251 176.456 44.0251 176.456 44.1811V57.4453C176.456 57.6014 176.456 57.6013 176.612 57.6013L179.265 57.9134C179.422 57.9134 179.421 57.9135 179.421 58.0695V59.0058C179.421 59.1618 179.422 59.1618 179.265 59.1618H170.992C170.836 59.1618 170.836 59.1618 170.836 59.0058V58.0695C170.836 57.9135 170.836 57.9134 170.992 57.9134L173.177 57.6013C173.334 57.6013 173.334 57.6014 173.334 57.4453V44.1811ZM138.055 42.3086C138.211 42.3086 138.211 42.3086 138.211 42.4646V43.4009C138.211 43.557 138.211 43.5569 138.055 43.5569L136.026 44.0251C135.87 44.0251 135.87 44.0251 135.87 44.1811V53.8562L143.675 45.4295C143.675 45.4295 143.831 45.2735 143.831 45.1174V44.3372C143.831 44.1811 143.831 44.1811 143.675 44.1811L141.489 43.8691C141.333 43.8691 141.333 43.8691 141.333 43.713V42.4646C141.333 42.3086 141.333 42.3086 141.489 42.3086H149.606C149.762 42.3086 149.762 42.3086 149.762 42.4646V43.4009C149.762 43.557 149.762 43.5569 149.606 43.5569L146.953 44.0251C146.797 44.0251 146.797 44.0251 146.797 44.1811V57.4453C146.797 57.6014 146.797 57.6013 146.953 57.6013L149.45 57.9134C149.606 57.9134 149.606 57.9135 149.606 58.0695V59.0058C149.606 59.1618 149.606 59.1618 149.45 59.1618H141.333C141.177 59.1618 141.177 59.1618 141.177 59.0058V58.0695C141.177 57.9135 141.177 57.9134 141.333 57.9134L143.518 57.6013C143.675 57.6013 143.675 57.6014 143.675 57.4453V47.3021L135.87 55.7288C135.713 55.8848 135.713 55.8848 135.713 56.0409V57.2893C135.713 57.4453 135.713 57.4453 135.87 57.4453L138.055 57.7574C138.211 57.7574 138.211 57.7574 138.211 57.9134V58.8497C138.211 59.0058 138.211 59.0058 138.055 59.0058H129.938C129.782 59.0058 129.782 59.0058 129.782 58.8497V57.9134C129.782 57.7574 129.782 57.7574 129.938 57.7574L132.435 57.4453C132.591 57.4453 132.591 57.4453 132.591 57.2893V44.0251C132.591 43.8691 132.591 43.8691 132.435 43.8691L129.938 43.5569C129.782 43.5569 129.782 43.557 129.782 43.4009V42.4646C129.782 42.3086 129.782 42.3086 129.938 42.3086H138.055ZM118.542 42.3086C118.698 42.3086 118.698 42.3086 118.698 42.4646V43.4009C118.698 43.557 118.698 43.5569 118.542 43.5569L116.357 43.8691C116.201 43.8691 116.201 43.8691 116.201 44.0251V49.4868C116.201 49.6429 116.201 49.6429 116.357 49.6429H116.825C117.138 49.6429 117.606 49.6429 117.918 49.4868C118.23 49.3308 118.699 49.1747 119.011 49.0187C119.323 48.7066 119.635 48.3945 119.947 48.0824C120.26 47.6142 120.572 47.1461 120.884 46.5219L121.508 44.9614C121.821 44.3372 122.133 43.869 122.289 43.4009C122.601 42.9328 122.913 42.6207 123.225 42.3086C123.538 41.9965 123.85 41.8404 124.162 41.6844C124.474 41.5283 124.786 41.5283 125.255 41.5283C125.411 41.5283 125.567 41.5283 125.723 41.5283C125.879 41.5283 126.191 41.6844 126.347 41.6844C126.503 41.6844 126.66 41.8404 126.816 41.8404C126.972 41.9965 127.128 41.9965 127.284 42.1525C127.284 42.1525 127.284 42.3086 127.44 42.3086C127.44 42.4646 127.44 42.4646 127.44 42.4646L125.879 44.8053C125.723 44.9614 125.723 44.9614 125.567 44.8053C125.255 44.3372 124.786 44.1811 124.318 44.1811C124.162 44.1811 124.006 44.1811 123.85 44.1811C123.694 44.1811 123.538 44.3372 123.381 44.4933C123.225 44.6493 123.069 44.8053 122.913 44.9614C122.757 45.1174 122.601 45.4295 122.445 45.8977L121.977 46.834C121.664 47.6142 121.352 48.0824 120.884 48.5505C120.572 49.0187 120.103 49.3308 119.791 49.6429C120.572 49.955 121.352 50.4231 121.977 51.0473C122.601 51.6715 123.069 52.4517 123.538 53.388L125.411 57.2893L125.567 57.4453L127.752 57.7574C127.908 57.7574 127.908 57.7574 127.908 57.9134V58.8497C127.908 59.0058 127.908 59.0058 127.752 59.0058H122.757C122.757 59.0058 122.601 59.0058 122.601 58.8497L120.572 54.1683C120.26 53.388 119.947 52.7638 119.635 52.2957C119.323 51.8275 119.011 51.5155 118.698 51.2034C118.386 51.0473 118.074 50.8913 117.606 50.7352C117.294 50.7352 116.825 50.5791 116.513 50.5791H116.201C116.045 50.5791 116.045 50.5792 116.045 50.7352V56.9772C116.045 57.1332 116.045 57.1332 116.201 57.1332L118.386 57.4453C118.542 57.4453 118.542 57.4453 118.542 57.6013V58.5376C118.542 58.6937 118.542 58.6937 118.386 58.6937H110.113C109.957 58.6937 109.957 58.6937 109.957 58.5376V57.6013C109.957 57.4453 109.957 57.4453 110.113 57.4453L112.767 57.1332C112.923 57.1332 112.923 57.1332 112.923 56.9772V43.713C112.923 43.557 112.923 43.5569 112.767 43.5569L110.113 43.2449C109.957 43.2449 109.957 43.2449 109.957 43.0888V42.4646C109.957 42.3086 109.957 42.3086 110.113 42.3086H118.542ZM96.2201 42.3086C96.3762 42.3086 96.3762 42.3086 96.3762 42.4646V43.4009C96.3762 43.557 96.3762 43.5569 96.2201 43.5569L94.0347 43.8691C93.8786 43.8691 93.8786 43.8691 93.8786 44.0251V53.7001L101.684 45.2735C101.684 45.2735 101.84 45.1174 101.84 44.9614V44.1811C101.84 44.0251 101.84 44.0251 101.684 44.0251L99.4982 43.713C99.3421 43.713 99.3421 43.713 99.3421 43.5569V42.4646C99.3421 42.3086 99.3421 42.3086 99.4982 42.3086H107.615C107.771 42.3086 107.771 42.3086 107.771 42.4646V43.4009C107.771 43.557 107.771 43.5569 107.615 43.5569L105.118 43.8691C104.962 43.8691 104.962 43.8691 104.962 44.0251V57.2893C104.962 57.4453 104.962 57.4453 105.118 57.4453L107.615 57.7574C107.771 57.7574 107.771 57.7574 107.771 57.9134V58.8497C107.771 59.0058 107.771 59.0058 107.615 59.0058H99.4982C99.3421 59.0058 99.3421 59.0058 99.3421 58.8497V57.9134C99.3421 57.7574 99.3421 57.7574 99.4982 57.7574L101.684 57.4453C101.84 57.4453 101.84 57.4453 101.84 57.2893V47.1461L94.0347 55.5727C93.8786 55.7288 93.8786 55.7288 93.8786 55.8848V57.1332C93.8786 57.2892 93.8786 57.2893 94.0347 57.2893L96.2201 57.6013C96.3762 57.6013 96.3762 57.6014 96.3762 57.7574V58.6937C96.3762 58.8497 96.3762 58.8497 96.2201 58.8497H88.1028C87.9467 58.8497 87.9468 58.8497 87.9468 58.6937V57.7574C87.9468 57.6014 87.9467 57.6013 88.1028 57.6013L90.6004 57.2893C90.7565 57.2893 90.7566 57.2892 90.7566 57.1332V43.8691C90.7566 43.713 90.7565 43.713 90.6004 43.713L88.1028 43.4009C87.9467 43.4009 87.9468 43.4009 87.9468 43.2449V42.4646C87.9468 42.3086 87.9467 42.3086 88.1028 42.3086H96.2201ZM85.7613 42.3086C85.9174 42.3086 85.9174 42.3086 85.9174 42.4646V47.6142C85.9174 47.7703 85.9174 47.7703 85.7613 47.7703H84.5125H84.3564C84.3564 47.7703 84.3564 47.7703 84.3564 47.6142L83.732 44.1811C83.732 44.0251 83.732 44.0251 83.5759 44.0251H80.1418C80.1418 44.0251 80.1417 44.0251 79.9856 44.0251V44.1811V57.4453C79.9856 57.6014 79.9857 57.6013 80.1418 57.6013L82.7954 57.9134C82.9515 57.9134 82.9515 57.9135 82.9515 58.0695V59.0058C82.9515 59.1618 82.9515 59.1618 82.7954 59.1618H74.0538C73.8977 59.1618 73.8977 59.1618 73.8977 59.0058V58.0695C73.8977 57.9135 73.8977 57.9134 74.0538 57.9134L76.7075 57.6013C76.8636 57.6013 76.8636 57.6014 76.8636 57.4453V44.1811C76.8636 44.0251 76.8636 44.0251 76.8636 44.0251C76.8636 44.0251 76.8636 44.0251 76.7075 44.0251H73.2733C73.1172 44.0251 73.1172 44.0251 73.1172 44.1811L72.4928 47.6142V47.7703H72.3367H71.0879C70.9318 47.7703 70.9318 47.7703 70.9318 47.6142V42.4646C70.9318 42.3086 70.9318 42.3086 71.0879 42.3086H85.7613ZM57.195 50.4231C57.195 52.6078 57.6633 54.3243 58.5999 55.5727C59.6926 56.9771 61.0975 57.7574 63.1268 57.7574C64.6878 57.7574 66.2488 57.2892 67.4976 56.353H67.6537C67.6537 56.353 67.6537 56.509 67.8098 56.509L68.2781 57.4453C68.2781 57.6014 68.2781 57.6014 68.122 57.7574C65.9366 59.3179 63.7512 59.9421 61.5658 59.9421C59.0682 59.9421 57.195 59.1618 55.7901 57.6013C54.3852 56.0409 53.7608 54.0122 53.7608 51.5155C53.7608 48.8626 54.3852 46.6779 55.7901 44.8053C57.195 42.7767 59.2243 41.8404 61.7219 41.8404C63.9073 41.8404 65.6244 42.4646 66.7171 43.713C67.8098 44.9614 68.4342 46.6779 68.4342 49.0187C68.4342 49.4868 68.4342 49.7989 68.4342 50.2671C68.4342 50.4231 68.4342 50.4231 68.2781 50.4231H57.195ZM61.4097 43.5569C59.3804 43.5569 58.1316 44.6493 57.6633 46.99C57.5072 47.6142 57.3511 48.3945 57.3511 49.0187H65C65 45.2735 63.9073 43.5569 61.4097 43.5569ZM51.4193 42.3086C51.5754 42.3086 51.5754 42.3086 51.5754 42.4646V47.6142C51.5754 47.7703 51.5754 47.7703 51.4193 47.7703H50.1705H50.0144C50.0144 47.7703 50.0144 47.7703 50.0144 47.6142L49.39 44.1811C49.39 44.0251 49.39 44.0251 49.2339 44.0251H45.7997C45.7997 44.0251 45.7997 44.0251 45.6436 44.0251V44.1811V57.4453C45.6436 57.6014 45.6436 57.6013 45.7997 57.6013L48.4534 57.9134C48.6095 57.9134 48.6095 57.9135 48.6095 58.0695V59.0058C48.6095 59.1618 48.6095 59.1618 48.4534 59.1618H39.7118C39.5557 59.1618 39.5557 59.1618 39.5557 59.0058V58.0695C39.5557 57.9135 39.5557 57.9134 39.7118 57.9134L42.3655 57.6013C42.5216 57.6013 42.5216 57.6014 42.5216 57.4453V44.1811C42.5216 44.0251 42.5216 44.0251 42.5216 44.0251C42.5216 44.0251 42.5216 44.0251 42.3655 44.0251H38.9313C38.7752 44.0251 38.7752 44.0251 38.7752 44.1811L38.1508 47.6142V47.7703H37.9947H36.7459C36.5898 47.7703 36.5897 47.7703 36.5897 47.6142V42.4646C36.5897 42.3086 36.5898 42.3086 36.7459 42.3086H51.4193ZM28.6287 41.6844C30.3458 41.6844 32.0629 41.9965 33.6239 42.6207C33.78 42.6207 33.78 42.7767 33.78 42.7767V47.3021C33.78 47.4582 33.78 47.4582 33.6239 47.4582H32.3751C32.219 47.4582 32.219 47.4582 32.219 47.3021L31.5946 44.3372C31.5946 44.1811 31.5946 44.1811 31.4385 44.0251C30.3458 43.557 29.4092 43.2449 28.4726 43.2449C26.9116 43.2449 25.5067 43.8691 24.5701 45.2735C23.6335 46.5219 23.3212 47.9263 23.3212 49.7989C23.3212 51.9836 23.7896 53.7001 24.7262 55.1046C25.8189 56.6651 27.3799 57.4453 29.4092 57.4453C30.9702 57.4453 32.3751 56.9772 33.6239 56.0409H33.78C33.78 56.0409 33.78 56.0409 33.78 56.1969L34.2482 57.1332C34.2482 57.2892 34.2483 57.2893 34.0922 57.4453C31.9068 59.0058 29.8775 59.786 27.8482 59.786C25.3506 59.786 23.4773 59.0058 22.0724 57.4453C20.6675 55.8848 19.8871 53.8562 19.8871 51.3594C19.8871 48.7066 20.6676 46.3658 22.2286 44.6493C23.9457 42.6207 26.1311 41.6844 28.6287 41.6844ZM3.49653 47.4582C3.34043 47.4582 3.49653 47.4582 3.49653 47.4582C3.34043 47.3021 3.34042 47.3021 3.34042 47.3021V42.7767C3.34042 42.7767 3.34042 42.7767 3.34042 42.6207C3.34042 42.6207 3.34043 42.4646 3.49653 42.4646C3.80873 42.3086 4.277 42.1525 4.5892 42.1525C5.0575 41.9965 5.52584 41.9965 5.99414 41.8404C6.46244 41.6844 6.93073 41.6844 7.39903 41.6844C7.86733 41.6844 8.33563 41.6844 8.96004 41.6844C10.3649 41.6844 11.6137 41.8404 12.5503 42.3086C13.643 42.7767 14.4235 43.4009 15.204 44.1811C15.9845 44.9614 16.4528 45.8977 16.765 46.99C17.0772 48.0824 17.2333 49.3308 17.2333 50.5791C17.2333 51.9836 17.0772 53.232 16.6089 54.3243C16.1406 55.4167 15.5162 56.353 14.7357 57.2893C13.9552 58.0695 13.0186 58.6937 11.9259 59.1618C10.8332 59.63 9.74051 59.786 8.49171 59.786C8.02341 59.786 7.71122 59.786 7.24292 59.786C6.77462 59.786 6.30633 59.63 5.83803 59.63C5.36973 59.63 4.90144 59.4739 4.43314 59.3179C3.96484 59.1618 3.49651 59.0058 3.18431 58.8497C3.02821 58.8497 3.0282 58.6937 3.0282 58.6937V54.1683C3.0282 54.0122 3.02821 54.0122 3.18431 54.0122H4.27703H4.43314C4.43314 54.0122 4.43314 54.0122 4.43314 54.1683L5.05753 57.1332V57.2893C5.05753 57.2893 5.05754 57.2893 5.21364 57.4453C5.68194 57.7574 6.3063 57.9135 6.9307 58.0695C7.55511 58.2255 8.02341 58.2256 8.49171 58.2256C9.42831 58.2256 10.2088 58.0695 10.9893 57.6013C11.6137 57.2892 12.2381 56.6651 12.7064 56.0409C13.1747 55.4167 13.4869 54.6364 13.643 53.8562C13.7991 53.0759 13.9552 52.1397 13.9552 51.2034H6.46242C6.30632 51.2034 6.30631 51.2033 6.30631 51.0473V49.7989C6.30631 49.6429 6.30632 49.6429 6.46242 49.6429H14.1113C13.9552 48.8626 13.7991 48.0824 13.4869 47.3021C13.1747 46.5219 12.8625 45.8977 12.3942 45.2735C11.9259 44.6493 11.4576 44.3372 10.6771 43.8691C10.0527 43.557 9.27221 43.4009 8.49171 43.4009C7.86731 43.4009 7.24294 43.4009 6.77464 43.5569C6.30634 43.713 5.99411 43.8691 5.52581 44.0251C5.52581 44.0251 5.5258 44.0251 5.3697 44.1811V44.3372L4.74531 47.3021C4.74531 47.3021 4.74531 47.3021 4.74531 47.4582C4.74531 47.4582 4.7453 47.4582 4.5892 47.4582H3.49653Z" fill="#975C28"/>
</svg>
