<svg width="45" height="51" viewBox="0 0 45 51" fill="none" xmlns="http://www.w3.org/2000/svg">
<path d="M12.0555 22.5006C11.7566 22.9657 11.0768 22.9657 10.7778 22.5006L2.37675 9.42911C2.05193 8.92371 2.41481 8.25911 3.0156 8.25911L19.8178 8.25911C20.4185 8.25911 20.7814 8.92371 20.4566 9.42911L12.0555 22.5006Z" fill="#975C28"/>
<path d="M27.1874 8.66311C27.3286 8.44375 27.5734 8.31069 27.8359 8.31069L43.4257 8.31066C44.0267 8.31066 44.3886 8.96458 44.0658 9.46723L18.524 49.2343C18.2219 49.7047 17.5281 49.705 17.2309 49.235L9.48011 36.9748C9.32466 36.7289 9.32645 36.4159 9.48471 36.17L27.1874 8.66311Z" fill="#975C28"/>
</svg>
