<svg width="125" height="25" viewBox="0 0 125 25" fill="none" xmlns="http://www.w3.org/2000/svg">
<path d="M12.5014 0.679626L15.1442 8.81315L23.6962 8.81315L16.7775 13.8399L19.4202 21.9735L12.5014 16.9467L5.58263 21.9735L8.22537 13.8399L1.30658 8.81315L9.85867 8.81315L12.5014 0.679626Z" fill="#E3B776"/>
<path d="M37.5561 0.679626L40.1988 8.81315L48.7509 8.81315L41.8321 13.8399L44.4749 21.9735L37.5561 16.9467L30.6373 21.9735L33.2801 13.8399L26.3613 8.81315L34.9134 8.81315L37.5561 0.679626Z" fill="#E3B776"/>
<path d="M62.6264 0.679626L65.2692 8.81315L73.8212 8.81315L66.9025 13.8399L69.5452 21.9735L62.6264 16.9467L55.7076 21.9735L58.3504 13.8399L51.4316 8.81315L59.9837 8.81315L62.6264 0.679626Z" fill="#E3B776"/>
<path d="M87.6853 0.679626L90.328 8.81315L98.8801 8.81315L91.9613 13.8399L94.604 21.9735L87.6853 16.9467L80.7665 21.9735L83.4092 13.8399L76.4904 8.81315L85.0425 8.81315L87.6853 0.679626Z" fill="#E3B776"/>
<path d="M112.736 0.679626L115.379 8.81315L123.931 8.81315L117.012 13.8399L119.655 21.9735L112.736 16.9467L105.817 21.9735L108.46 13.8399L101.541 8.81315L110.093 8.81315L112.736 0.679626Z" fill="#E3B776"/>
</svg>
